SplineFontDB: 3.0
FontName: Untitled2
FullName: Untitled2 Regular
FamilyName: Untitled2
Weight: Book
Copyright: Copyright (c) 2016, Christian
Version: 001.000
ItalicAngle: 0
UnderlinePosition: -307
UnderlineWidth: 102
Ascent: 1638
Descent: 410
InvalidEm: 0
sfntRevision: 0x00010000
LayerCount: 2
Layer: 0 1 "Back" 1
Layer: 1 1 "Fore" 0
XUID: [1021 674 2063459492 3786669]
StyleMap: 0x0040
FSType: 4
OS2Version: 4
OS2_WeightWidthSlopeOnly: 0
OS2_UseTypoMetrics: 1
CreationTime: 1460383294
ModificationTime: 1563323850
PfmFamily: 17
TTFWeight: 400
TTFWidth: 5
LineGap: 0
VLineGap: 0
Panose: 2 0 5 3 0 0 0 0 0 0
OS2TypoAscent: 1638
OS2TypoAOffset: 0
OS2TypoDescent: -410
OS2TypoDOffset: 0
OS2TypoLinegap: 0
OS2WinAscent: 4147
OS2WinAOffset: 0
OS2WinDescent: 1033
OS2WinDOffset: 0
HheadAscent: 4147
HheadAOffset: 0
HheadDescent: -1033
HheadDOffset: 0
OS2SubXSize: 1331
OS2SubYSize: 1432
OS2SubXOff: 0
OS2SubYOff: 287
OS2SupXSize: 1331
OS2SupYSize: 1432
OS2SupXOff: 0
OS2SupYOff: 981
OS2StrikeYSize: 100
OS2StrikeYPos: 528
OS2CapHeight: 2796
OS2XHeight: 2068
OS2Vendor: 'PfEd'
OS2CodePages: e000009f.dfd70000
OS2UnicodeRanges: a00002af.1000007b.00000000.00000000
Lookup: 258 0 0 "'kern' Horizontal Kerning lookup 0" { "'kern' Horizontal Kerning lookup 0 subtable"  } ['kern' ('DFLT' <'dflt' > 'cyrl' <'dflt' > 'latn' <'dflt' > ) ]
DEI: 91125
TtTable: prep
PUSHW_1
 511
SCANCTRL
PUSHB_1
 1
SCANTYPE
SVTCA[y-axis]
MPPEM
PUSHB_1
 8
LT
IF
PUSHB_2
 1
 1
INSTCTRL
EIF
PUSHB_2
 70
 6
CALL
IF
POP
PUSHB_1
 16
EIF
MPPEM
PUSHB_1
 20
GT
IF
POP
PUSHB_1
 128
EIF
SCVTCI
PUSHB_1
 6
CALL
NOT
IF
SVTCA[y-axis]
PUSHB_1
 3
DUP
RCVT
PUSHB_1
 3
CALL
WCVTP
PUSHB_1
 4
DUP
RCVT
PUSHB_3
 3
 63
 2
CALL
PUSHB_1
 3
CALL
WCVTP
PUSHB_1
 5
DUP
RCVT
PUSHB_3
 4
 25
 2
CALL
PUSHB_1
 3
CALL
WCVTP
PUSHB_1
 6
DUP
RCVT
PUSHB_3
 5
 60
 2
CALL
PUSHB_1
 3
CALL
WCVTP
PUSHB_1
 7
DUP
RCVT
PUSHB_3
 6
 40
 2
CALL
PUSHB_1
 3
CALL
WCVTP
PUSHB_1
 8
DUP
RCVT
PUSHB_3
 7
 34
 2
CALL
PUSHB_1
 3
CALL
WCVTP
PUSHB_1
 9
DUP
RCVT
PUSHB_3
 8
 27
 2
CALL

StartChar: .notdef
Encoding: 65536 -1 0
Width: 748
Flags: W
LayerCount: 2
Fore
SplineSet
68 0 m 1,0,-1
 68 1365 l 1,1,-1
 612 1365 l 1,2,-1
 612 0 l 1,3,-1
 68 0 l 1,0,-1
136 68 m 1,4,-1
 544 68 l 1,5,-1
 544 1297 l 1,6,-1
 136 1297 l 1,7,-1
 136 68 l 1,4,-1
EndSplineSet
EndChar

StartChar: exclam
Encoding: 33 33 4
Width: 1429
GlyphClass: 2
Flags: W
LayerCount: 2
Fore
SplineSet
432 2796 m 1,0,-1
 999 2796 l 1,1,-1
 856 754 l 1,2,-1
 575 754 l 1,3,-1
 432 2796 l 1,0,-1
481 0 m 1,4,-1
 481 514 l 1,5,-1
 948 514 l 1,6,-1
 948 0 l 1,7,-1
 481 0 l 1,4,-1
EndSplineSet
EndChar

StartChar: quotedbl
Encoding: 34 34 5
Width: 2144
GlyphClass: 2
Flags: W
LayerCount: 2
Fore
SplineSet
535 2796 m 1,0,-1
 965 2796 l 1,1,-1
 899 1649 l 1,2,-1
 602 1649 l 1,3,-1
 535 2796 l 1,0,-1
1178 2796 m 1,4,-1
 1608 2796 l 1,5,-1
 1542 1649 l 1,6,-1
 1243 1649 l 1,7,-1
 1178 2796 l 1,4,-1
EndSplineSet
EndChar

StartChar: numbersign
Encoding: 35 35 6
Width: 2142
GlyphClass: 2
Flags: W
LayerCount: 2
Fore
SplineSet
39 872 m 1,0,-1
 86 1159 l 1,1,-1
 492 1159 l 1,2,-1
 584 1700 l 1,3,-1
 178 1700 l 1,4,-1
 223 1985 l 5,5,-1
 629 1985 l 1,6,-1
 766 2796 l 1,7,-1
 1067 2796 l 1,8,-1
 932 1985 l 1,9,-1
 1397 1985 l 1,10,-1
 1532 2796 l 1,11,-1
 1833 2796 l 1,12,-1
 1698 1985 l 1,13,-1
 2103 1985 l 1,14,-1
 2056 1700 l 1,15,-1
 1651 1700 l 1,16,-1
 1559 1159 l 1,17,-1
 1964 1159 l 1,18,-1
 1917 872 l 1,19,-1
 1511 872 l 1,20,-1
 1366 0 l 1,21,-1
 1063 0 l 1,22,-1
 1210 872 l 1,23,-1
 745 872 l 1,24,-1
 598 0 l 1,25,-1
 297 0 l 1,26,-1
 444 872 l 1,27,-1
 39 872 l 1,0,-1
793 1159 m 1,28,-1
 1257 1159 l 1,29,-1
 1350 1700 l 1,30,-1
 885 1700 l 1,31,-1
 793 1159 l 1,28,-1
EndSplineSet
EndChar

StartChar: dollar
Encoding: 36 36 7
Width: 2142
GlyphClass: 2
Flags: W
LayerCount: 2
Fore
SplineSet
190 754 m 1,0,-1
 557 879 l 1,1,2
 645 488 645 488 969 426 c 1,3,-1
 969 1260 l 1,4,5
 293 1446 293 1446 293 2007 c 0,6,7
 293 2271 293 2271 457 2486 c 128,-1,8
 621 2701 621 2701 956 2744 c 1,9,-1
 956 3021 l 1,10,-1
 1212 3021 l 1,11,-1
 1212 2744 l 1,12,13
 1744 2691 1744 2691 1894 2179 c 1,14,-1
 1565 2042 l 1,15,16
 1497 2224 1497 2224 1421.5 2300 c 128,-1,17
 1346 2376 1346 2376 1198 2415 c 1,18,-1
 1198 1645 l 1,19,20
 1618 1532 1618 1532 1785 1341.5 c 128,-1,21
 1952 1151 1952 1151 1952 866 c 0,22,23
 1952 553 1952 553 1762.5 333 c 128,-1,24
 1573 113 1573 113 1212 78 c 1,25,-1
 1212 -279 l 1,26,-1
 956 -279 l 1,27,-1
 956 78 l 1,28,29
 348 146 348 146 190 754 c 1,0,-1
686 2060 m 0,30,31
 686 1800 686 1800 967 1714 c 1,32,-1
 967 2408 l 1,33,34
 686 2336 686 2336 686 2060 c 0,30,31
1198 422 m 1,35,36
 1554 475 1554 475 1554 807 c 0,37,38
 1554 1110 1554 1110 1198 1192 c 1,39,-1
 1198 422 l 1,35,36
EndSplineSet
EndChar

StartChar: percent
Encoding: 37 37 8
Width: 2856
GlyphClass: 2
Flags: W
LayerCount: 2
Fore
SplineSet
178 2097 m 0,0,1
 178 2443 178 2443 328.5 2631.5 c 128,-1,2
 479 2820 479 2820 729 2820 c 0,3,4
 975 2820 975 2820 1126.5 2634.5 c 128,-1,5
 1278 2449 1278 2449 1278 2097 c 0,6,7
 1278 1751 1278 1751 1127.5 1562.5 c 128,-1,8
 977 1374 977 1374 729 1374 c 256,9,10
 481 1374 481 1374 329.5 1560.5 c 128,-1,11
 178 1747 178 1747 178 2097 c 0,0,1
504 2097 m 0,12,13
 504 1632 504 1632 727 1632 c 0,14,15
 952 1632 952 1632 952 2097 c 0,16,17
 952 2564 952 2564 729 2564 c 0,18,19
 504 2564 504 2564 504 2097 c 0,12,13
612 0 m 1,20,-1
 1976 2796 l 1,21,-1
 2253 2796 l 1,22,-1
 889 0 l 1,23,-1
 612 0 l 1,20,-1
1579 698 m 0,24,25
 1579 1046 1579 1046 1730.5 1233.5 c 128,-1,26
 1882 1421 1882 1421 2128 1421 c 0,27,28
 2376 1421 2376 1421 2527.5 1232.5 c 128,-1,29
 2679 1044 2679 1044 2679 698 c 256,30,31
 2679 352 2679 352 2528.5 163.5 c 128,-1,32
 2378 -25 2378 -25 2128 -25 c 0,33,34
 1880 -25 1880 -25 1729.5 163.5 c 128,-1,35
 1579 352 1579 352 1579 698 c 0,24,25
1905 688 m 0,36,37
 1905 233 1905 233 2128 233 c 0,38,39
 2353 233 2353 233 2353 698 c 0,40,41
 2353 1165 2353 1165 2128 1165 c 0,42,43
 1905 1165 1905 1165 1905 688 c 0,36,37
EndSplineSet
EndChar

StartChar: ampersand
Encoding: 38 38 9
Width: 2643
GlyphClass: 2
Flags: W
LayerCount: 2
Fore
SplineSet
248 772 m 0,0,1
 248 1317 248 1317 856 1599 c 1,2,3
 612 1978 612 1978 612 2243 c 0,4,5
 612 2483 612 2483 795.5 2665 c 128,-1,6
 979 2847 979 2847 1272 2847 c 0,7,8
 1567 2847 1567 2847 1734 2674 c 128,-1,9
 1901 2501 1901 2501 1901 2241 c 0,10,11
 1901 1801 1901 1801 1391 1513 c 1,12,-1
 1868 825 l 1,13,14
 2030 1080 2030 1080 2114 1561 c 1,15,-1
 2460 1487 l 1,16,17
 2358 922 2358 922 2083 532 c 1,18,19
 2235 344 2235 344 2378 344 c 0,20,21
 2425 344 2425 344 2507 360 c 1,22,-1
 2507 0 l 1,23,24
 2378 -37 2378 -37 2286 -37 c 0,25,26
 2022 -37 2022 -37 1804 238 c 1,27,28
 1482 -51 1482 -51 1090 -51 c 0,29,30
 684 -51 684 -51 466 189.5 c 128,-1,31
 248 430 248 430 248 772 c 0,0,1
690 795 m 0,32,33
 690 576 690 576 816 436.5 c 128,-1,34
 942 297 942 297 1147 297 c 0,35,36
 1411 297 1411 297 1604 514 c 1,37,-1
 1036 1339 l 1,38,39
 690 1132 690 1132 690 795 c 0,32,33
1020 2253 m 0,40,41
 1020 2056 1020 2056 1206 1767 c 1,42,43
 1532 1955 1532 1955 1532 2245 c 0,44,45
 1532 2372 1532 2372 1462.5 2452.5 c 128,-1,46
 1393 2533 1393 2533 1280 2533 c 0,47,48
 1171 2533 1171 2533 1095.5 2457.5 c 128,-1,49
 1020 2382 1020 2382 1020 2253 c 0,40,41
EndSplineSet
EndChar

StartChar: quotesingle
Encoding: 39 39 10
Width: 1429
GlyphClass: 2
Flags: W
LayerCount: 2
Fore
SplineSet
500 2796 m 1,0,-1
 930 2796 l 1,1,-1
 864 1649 l 1,2,-1
 567 1649 l 1,3,-1
 500 2796 l 1,0,-1
EndSplineSet
EndChar

StartChar: parenleft
Encoding: 40 40 11
Width: 1071
GlyphClass: 2
Flags: W
LayerCount: 2
Fore
SplineSet
190 1049 m 0,0,1
 191 2003 191 2003 756 2796 c 1,2,-1
 1096 2796 l 1,3,4
 617 2003 617 2003 616 1049 c 0,5,6
 616 91 616 91 1096 -700 c 1,7,-1
 756 -700 l 1,8,9
 191 113 191 113 190 1049 c 0,0,1
EndSplineSet
EndChar

StartChar: parenright
Encoding: 41 41 12
Width: 1071
GlyphClass: 2
Flags: W
LayerCount: 2
Fore
SplineSet
-25 -700 m 1,0,1
 454 93 454 93 455 1049 c 0,2,3
 455 2003 455 2003 -25 2796 c 1,4,-1
 315 2796 l 1,5,6
 880 2001 880 2001 881 1049 c 0,7,8
 880 95 880 95 315 -700 c 1,9,-1
 -25 -700 l 1,0,1
EndSplineSet
EndChar

StartChar: asterisk
Encoding: 42 42 13
Width: 2142
GlyphClass: 2
Flags: W
LayerCount: 2
Fore
SplineSet
360 1837 m 1,0,-1
 844 2052 l 1,1,-1
 360 2269 l 1,2,-1
 506 2550 l 1,3,-1
 963 2243 l 1,4,-1
 918 2796 l 1,5,-1
 1227 2796 l 1,6,-1
 1180 2243 l 1,7,-1
 1638 2550 l 1,8,-1
 1784 2269 l 1,9,-1
 1300 2052 l 1,10,-1
 1784 1837 l 1,11,-1
 1638 1559 l 1,12,-1
 1180 1864 l 1,13,-1
 1227 1311 l 1,14,-1
 918 1311 l 1,15,-1
 963 1864 l 1,16,-1
 506 1559 l 1,17,-1
 360 1837 l 1,0,-1
EndSplineSet
EndChar

StartChar: plus
Encoding: 43 43 14
Width: 2142
GlyphClass: 2
Flags: W
LayerCount: 2
Fore
SplineSet
213 1227 m 1,0,-1
 213 1569 l 1,1,-1
 893 1569 l 1,2,-1
 893 2255 l 1,3,-1
 1249 2255 l 1,4,-1
 1249 1569 l 1,5,-1
 1927 1569 l 1,6,-1
 1927 1227 l 1,7,-1
 1249 1227 l 1,8,-1
 1249 541 l 1,9,-1
 893 541 l 1,10,-1
 893 1227 l 1,11,-1
 213 1227 l 1,0,-1
EndSplineSet
EndChar

StartChar: comma
Encoding: 44 44 15
Width: 1001
GlyphClass: 2
Flags: W
LayerCount: 2
Fore
SplineSet
246 -592 m 1,0,-1
 502 0 l 1,1,-1
 287 0 l 1,2,-1
 287 528 l 1,3,-1
 754 528 l 1,4,-1
 754 25 l 1,5,-1
 449 -592 l 1,6,-1
 246 -592 l 1,0,-1
EndSplineSet
EndChar

StartChar: hyphen
Encoding: 45 45 16
Width: 1214
GlyphClass: 2
Flags: W
LayerCount: 2
Fore
SplineSet
164 879 m 1,0,-1
 164 1221 l 1,1,-1
 1049 1221 l 1,2,-1
 1049 879 l 1,3,-1
 164 879 l 1,0,-1
EndSplineSet
EndChar

StartChar: period
Encoding: 46 46 17
Width: 1001
GlyphClass: 2
Flags: W
LayerCount: 2
Fore
SplineSet
266 0 m 1,0,-1
 266 528 l 1,1,-1
 733 528 l 1,2,-1
 733 0 l 1,3,-1
 266 0 l 1,0,-1
EndSplineSet
EndChar

StartChar: slash
Encoding: 47 47 18
Width: 2000
GlyphClass: 2
Flags: W
LayerCount: 2
Fore
SplineSet
-63 -700 m 1,0,-1
 1481 2796 l 1,1,-1
 1800 2796 l 1,2,-1
 256 -700 l 1,3,-1
 -63 -700 l 1,0,-1
EndSplineSet
EndChar

StartChar: zero
Encoding: 48 48 19
Width: 2142
GlyphClass: 2
Flags: W
LayerCount: 2
Fore
SplineSet
160 1364 m 0,0,1
 160 2148 160 2148 393.5 2497.5 c 128,-1,2
 627 2847 627 2847 1071 2847 c 0,3,4
 1982 2847 1982 2847 1982 1432 c 0,5,6
 1982 650 1982 650 1750 299.5 c 128,-1,7
 1518 -51 1518 -51 1071 -51 c 0,8,9
 160 -51 160 -51 160 1364 c 0,0,1
637 1399 m 0,10,11
 637 731 637 731 758 512 c 128,-1,12
 879 293 879 293 1071 293 c 0,13,14
 1290 293 1290 293 1397.5 542 c 128,-1,15
 1505 791 1505 791 1505 1399 c 0,16,17
 1505 2013 1505 2013 1395.5 2259 c 128,-1,18
 1286 2505 1286 2505 1071 2505 c 0,19,20
 858 2505 858 2505 747.5 2262 c 128,-1,21
 637 2019 637 2019 637 1399 c 0,10,11
EndSplineSet
EndChar

StartChar: one
Encoding: 49 49 20
Width: 2142
GlyphClass: 2
Flags: W
LayerCount: 2
Fore
SplineSet
475 1864 m 1,0,-1
 475 2294 l 1,1,2
 835 2490 835 2490 1087 2826 c 1,3,-1
 1425 2826 l 1,4,-1
 1425 344 l 1,5,-1
 1880 344 l 1,6,-1
 1880 0 l 1,7,-1
 487 0 l 1,8,-1
 487 344 l 1,9,-1
 973 344 l 1,10,-1
 973 2259 l 1,11,12
 785 2032 785 2032 475 1864 c 1,0,-1
EndSplineSet
EndChar

StartChar: two
Encoding: 50 50 21
Width: 2142
GlyphClass: 2
Flags: W
LayerCount: 2
Fore
SplineSet
137 0 m 1,0,-1
 137 401 l 1,1,2
 950 1101 950 1101 1174.5 1421 c 128,-1,3
 1399 1741 1399 1741 1399 1997 c 0,4,5
 1399 2202 1399 2202 1293.5 2333 c 128,-1,6
 1188 2464 1188 2464 1008 2464 c 0,7,8
 625 2463 625 2463 553 1898 c 1,9,-1
 137 1987 l 1,10,11
 211 2409 211 2409 443.5 2628 c 128,-1,12
 676 2847 676 2847 1036 2847 c 0,13,14
 1429 2847 1429 2847 1652.5 2615.5 c 128,-1,15
 1876 2384 1876 2384 1876 2023 c 0,16,17
 1876 1605 1876 1605 1554.5 1228.5 c 128,-1,18
 1233 852 1233 852 629 406 c 1,19,-1
 1892 406 l 1,20,-1
 1872 0 l 1,21,-1
 137 0 l 1,0,-1
EndSplineSet
EndChar

StartChar: three
Encoding: 51 51 22
Width: 2142
GlyphClass: 2
Flags: W
LayerCount: 2
Fore
SplineSet
82 698 m 1,0,-1
 479 793 l 1,1,2
 581 316 581 316 981 315 c 0,3,4
 1163 315 1163 315 1296.5 435 c 128,-1,5
 1430 555 1430 555 1430 815 c 0,6,7
 1430 1020 1430 1020 1309 1150 c 128,-1,8
 1188 1280 1188 1280 864 1280 c 2,9,-1
 688 1280 l 1,10,-1
 688 1622 l 1,11,-1
 864 1622 l 2,12,13
 1044 1622 1044 1622 1139.5 1652.5 c 128,-1,14
 1235 1683 1235 1683 1304.5 1786.5 c 128,-1,15
 1374 1890 1374 1890 1374 2054 c 0,16,17
 1374 2255 1374 2255 1271.5 2373.5 c 128,-1,18
 1169 2492 1169 2492 987 2492 c 0,19,20
 649 2493 649 2493 547 2077 c 1,21,-1
 158 2167 l 1,22,23
 351 2847 351 2847 1020 2847 c 0,24,25
 1403 2847 1403 2847 1621 2645 c 128,-1,26
 1839 2443 1839 2443 1839 2095 c 0,27,28
 1839 1653 1839 1653 1403 1470 c 1,29,30
 1917 1331 1917 1331 1917 784 c 0,31,32
 1917 395 1917 395 1663 172 c 128,-1,33
 1409 -51 1409 -51 1010 -51 c 0,34,35
 652 -51 652 -51 401 126 c 128,-1,36
 150 303 150 303 82 698 c 1,0,-1
EndSplineSet
EndChar

StartChar: four
Encoding: 52 52 23
Width: 2142
GlyphClass: 2
Flags: W
LayerCount: 2
Fore
SplineSet
127 668 m 1,0,-1
 127 1008 l 1,1,-1
 1135 2847 l 1,2,-1
 1667 2847 l 1,3,-1
 1667 1022 l 1,4,-1
 2017 1022 l 1,5,-1
 2017 668 l 1,6,-1
 1667 668 l 1,7,-1
 1667 0 l 1,8,-1
 1217 0 l 1,9,-1
 1217 668 l 1,10,-1
 127 668 l 1,0,-1
494 1006 m 1,11,-1
 1239 1006 l 1,12,-1
 1239 2437 l 1,13,-1
 494 1006 l 1,11,-1
EndSplineSet
EndChar

StartChar: five
Encoding: 53 53 24
Width: 2142
GlyphClass: 2
Flags: W
LayerCount: 2
Fore
SplineSet
174 670 m 1,0,-1
 586 770 l 1,1,2
 682 332 682 332 1059 332 c 0,3,4
 1518 332 1518 332 1518 926 c 0,5,6
 1518 1194 1518 1194 1404 1343.5 c 128,-1,7
 1290 1493 1290 1493 1071 1493 c 0,8,9
 762 1493 762 1493 633 1186 c 1,10,-1
 285 1260 l 1,11,-1
 373 2796 l 1,12,-1
 1827 2796 l 1,13,-1
 1784 2390 l 1,14,-1
 721 2390 l 1,15,-1
 680 1614 l 1,16,17
 875 1874 875 1874 1196 1874 c 0,18,19
 1546 1874 1546 1874 1757 1628 c 128,-1,20
 1968 1382 1968 1382 1968 942 c 0,21,22
 1968 471 1968 471 1715 210 c 128,-1,23
 1462 -51 1462 -51 1047 -51 c 0,24,25
 717 -51 717 -51 477.5 131 c 128,-1,26
 238 313 238 313 174 670 c 1,0,-1
EndSplineSet
EndChar

StartChar: six
Encoding: 54 54 25
Width: 2142
GlyphClass: 2
Flags: W
LayerCount: 2
Fore
SplineSet
225 1333 m 0,0,1
 225 2068 225 2068 483 2457.5 c 128,-1,2
 741 2847 741 2847 1184 2847 c 0,3,4
 1475 2847 1475 2847 1690 2685 c 128,-1,5
 1905 2523 1905 2523 1989 2169 c 1,6,-1
 1604 2048 l 1,7,8
 1506 2488 1506 2488 1178 2488 c 0,9,10
 916 2488 916 2488 790 2217 c 128,-1,11
 664 1946 664 1946 651 1389 c 1,12,13
 833 1803 833 1803 1247 1802 c 0,14,15
 1566 1802 1566 1802 1789.5 1555.5 c 128,-1,16
 2013 1309 2013 1309 2013 891 c 0,17,18
 2013 465 2013 465 1776.5 207 c 128,-1,19
 1540 -51 1540 -51 1151 -51 c 0,20,21
 739 -51 739 -51 482 285 c 128,-1,22
 225 621 225 621 225 1333 c 0,0,1
702 877 m 0,23,24
 702 629 702 629 823 468 c 128,-1,25
 944 307 944 307 1149 307 c 0,26,27
 1563 308 1563 308 1563 881 c 0,28,29
 1563 1162 1563 1162 1452 1303 c 128,-1,30
 1341 1444 1341 1444 1157 1444 c 0,31,32
 936 1444 936 1444 819 1281 c 128,-1,33
 702 1118 702 1118 702 877 c 0,23,24
EndSplineSet
EndChar

StartChar: seven
Encoding: 55 55 26
Width: 2142
GlyphClass: 2
Flags: W
LayerCount: 2
Fore
SplineSet
295 2390 m 1,0,-1
 332 2796 l 1,1,-1
 1946 2796 l 1,2,-1
 1946 2470 l 1,3,4
 1598 2024 1598 2024 1390 1364.5 c 128,-1,5
 1182 705 1182 705 1182 0 c 1,6,-1
 692 0 l 1,7,8
 692 1280 692 1280 1532 2390 c 1,9,-1
 295 2390 l 1,0,-1
EndSplineSet
EndChar

StartChar: eight
Encoding: 56 56 27
Width: 2142
GlyphClass: 2
Flags: W
LayerCount: 2
Fore
SplineSet
141 711 m 0,0,1
 141 1184 141 1184 662 1421 c 1,2,3
 238 1667 238 1667 238 2081 c 0,4,5
 238 2409 238 2409 462 2628 c 128,-1,6
 686 2847 686 2847 1096 2847 c 0,7,8
 1489 2847 1489 2847 1703 2647 c 128,-1,9
 1917 2447 1917 2447 1917 2134 c 0,10,11
 1917 1724 1917 1724 1481 1511 c 1,12,13
 2003 1259 2003 1259 2003 766 c 0,14,15
 2003 418 2003 418 1750 183.5 c 128,-1,16
 1497 -51 1497 -51 1049 -51 c 0,17,18
 607 -51 607 -51 374 160 c 128,-1,19
 141 371 141 371 141 711 c 0,0,1
559 739 m 0,20,21
 559 522 559 522 702.5 401.5 c 128,-1,22
 846 281 846 281 1069 281 c 0,23,24
 1276 281 1276 281 1416 394.5 c 128,-1,25
 1556 508 1556 508 1556 698 c 0,26,27
 1556 864 1556 864 1441.5 990 c 128,-1,28
 1327 1116 1327 1116 991 1249 c 1,29,30
 559 1067 559 1067 559 739 c 0,20,21
682 2146 m 0,31,32
 682 1827 682 1827 1133 1659 c 1,33,34
 1514 1849 1514 1849 1513 2128 c 0,35,36
 1513 2298 1513 2298 1399.5 2411.5 c 128,-1,37
 1286 2525 1286 2525 1096 2525 c 0,38,39
 916 2525 916 2525 799 2419.5 c 128,-1,40
 682 2314 682 2314 682 2146 c 0,31,32
EndSplineSet
EndChar

StartChar: nine
Encoding: 57 57 28
Width: 2142
GlyphClass: 2
Flags: W
LayerCount: 2
Fore
SplineSet
135 1909 m 256,0,1
 135 2323 135 2323 372.5 2585 c 128,-1,2
 610 2847 610 2847 1008 2847 c 0,3,4
 1911 2847 1911 2847 1911 1526 c 0,5,6
 1911 -51 1911 -51 956 -51 c 0,7,8
 657 -51 657 -51 472.5 87 c 128,-1,9
 288 225 288 225 182 561 c 1,10,-1
 582 680 l 1,11,12
 672 307 672 307 977 307 c 0,13,14
 1237 307 1237 307 1350.5 579.5 c 128,-1,15
 1464 852 1464 852 1475 1360 c 1,16,17
 1289 991 1289 991 903 991 c 0,18,19
 581 991 581 991 358 1243 c 128,-1,20
 135 1495 135 1495 135 1909 c 256,0,1
582 1923 m 0,21,22
 582 1671 582 1671 694.5 1522.5 c 128,-1,23
 807 1374 807 1374 1008 1374 c 0,24,25
 1213 1374 1213 1374 1323.5 1536 c 128,-1,26
 1434 1698 1434 1698 1434 1931 c 0,27,28
 1434 2177 1434 2177 1320 2332.5 c 128,-1,29
 1206 2488 1206 2488 1010 2488 c 0,30,31
 822 2488 822 2488 702 2341.5 c 128,-1,32
 582 2195 582 2195 582 1923 c 0,21,22
EndSplineSet
EndChar

StartChar: colon
Encoding: 58 58 29
Width: 999
GlyphClass: 2
Flags: W
LayerCount: 2
Fore
SplineSet
266 0 m 1,0,-1
 266 528 l 1,1,-1
 733 528 l 1,2,-1
 733 0 l 1,3,-1
 266 0 l 1,0,-1
266 1540 m 1,4,-1
 266 2068 l 1,5,-1
 733 2068 l 1,6,-1
 733 1540 l 1,7,-1
 266 1540 l 1,4,-1
EndSplineSet
EndChar

StartChar: semicolon
Encoding: 59 59 30
Width: 1001
GlyphClass: 2
Flags: W
LayerCount: 2
Fore
SplineSet
246 -592 m 1,0,-1
 502 0 l 1,1,-1
 287 0 l 1,2,-1
 287 528 l 1,3,-1
 754 528 l 1,4,-1
 754 25 l 1,5,-1
 449 -592 l 1,6,-1
 246 -592 l 1,0,-1
287 1540 m 1,7,-1
 287 2068 l 1,8,-1
 754 2068 l 1,9,-1
 754 1540 l 1,10,-1
 287 1540 l 1,7,-1
EndSplineSet
EndChar

StartChar: less
Encoding: 60 60 31
Width: 2142
GlyphClass: 2
Flags: W
LayerCount: 2
Fore
SplineSet
121 1196 m 1,0,-1
 121 1597 l 1,1,-1
 1937 2501 l 1,2,-1
 1937 2030 l 1,3,-1
 625 1395 l 1,4,-1
 1935 760 l 1,5,-1
 1937 291 l 1,6,-1
 121 1196 l 1,0,-1
EndSplineSet
EndChar

StartChar: equal
Encoding: 61 61 32
Width: 2142
GlyphClass: 2
Flags: W
LayerCount: 2
Fore
SplineSet
213 940 m 1,0,-1
 213 1280 l 1,1,-1
 1927 1280 l 1,2,-1
 1927 940 l 1,3,-1
 213 940 l 1,0,-1
213 1516 m 1,4,-1
 213 1855 l 1,5,-1
 1927 1855 l 1,6,-1
 1927 1516 l 1,7,-1
 213 1516 l 1,4,-1
EndSplineSet
EndChar

StartChar: greater
Encoding: 62 62 33
Width: 2142
GlyphClass: 2
Flags: W
LayerCount: 2
Fore
SplineSet
205 291 m 1,0,-1
 205 762 l 1,1,-1
 1520 1397 l 1,2,-1
 207 2034 l 1,3,-1
 205 2501 l 1,4,-1
 2021 1595 l 1,5,-1
 2021 1194 l 1,6,-1
 205 291 l 1,0,-1
EndSplineSet
EndChar

StartChar: question
Encoding: 63 63 34
Width: 2072
GlyphClass: 2
Flags: W
LayerCount: 2
Fore
SplineSet
160 1978 m 1,0,1
 238 2846 238 2846 1008 2847 c 0,2,3
 1379 2847 1379 2847 1593.5 2638 c 128,-1,4
 1808 2429 1808 2429 1808 2075 c 0,5,6
 1808 1899 1808 1899 1734.5 1723.5 c 128,-1,7
 1661 1548 1661 1548 1389 1325 c 0,8,9
 1203 1171 1203 1171 1162.5 1085 c 128,-1,10
 1122 999 1122 999 1122 856 c 2,11,-1
 1124 745 l 1,12,-1
 737 745 l 1,13,-1
 739 831 l 1,14,15
 739 1132 739 1132 786.5 1251 c 128,-1,16
 834 1370 834 1370 1020 1530 c 0,17,18
 1204 1688 1204 1688 1273.5 1799.5 c 128,-1,19
 1343 1911 1343 1911 1343 2083 c 0,20,21
 1343 2280 1343 2280 1246 2380 c 128,-1,22
 1149 2480 1149 2480 981 2480 c 0,23,24
 590 2481 590 2481 557 1901 c 1,25,-1
 160 1978 l 1,0,1
702 0 m 1,26,-1
 702 504 l 1,27,-1
 1159 504 l 1,28,-1
 1159 0 l 1,29,-1
 702 0 l 1,26,-1
EndSplineSet
EndChar

StartChar: at
Encoding: 64 64 35
Width: 2500
GlyphClass: 2
Flags: W
LayerCount: 2
Fore
SplineSet
31 1368 m 0,0,1
 31 2030 31 2030 389.5 2449.5 c 128,-1,2
 748 2869 748 2869 1329 2869 c 0,3,4
 1847 2869 1847 2869 2159.5 2534.5 c 128,-1,5
 2472 2200 2472 2200 2472 1612 c 0,6,7
 2472 1149 2472 1149 2274.5 860 c 128,-1,8
 2077 571 2077 571 1792 571 c 0,9,10
 1542 571 1542 571 1489 811 c 1,11,12
 1368 561 1368 561 1124 561 c 0,13,14
 921 561 921 561 795.5 743.5 c 128,-1,15
 670 926 670 926 670 1239 c 0,16,17
 670 1632 670 1632 841 1894.5 c 128,-1,18
 1012 2157 1012 2157 1268 2157 c 0,19,20
 1504 2157 1504 2157 1599 1898 c 1,21,-1
 1630 2126 l 1,22,-1
 1876 2126 l 1,23,-1
 1755 1260 l 2,24,25
 1728 1065 1728 1065 1729 983 c 0,26,27
 1729 842 1729 842 1831 842 c 0,28,29
 1981 842 1981 842 2085 1046.5 c 128,-1,30
 2189 1251 2189 1251 2189 1577 c 0,31,32
 2189 2079 2189 2079 1952.5 2351 c 128,-1,33
 1716 2623 1716 2623 1323 2623 c 0,34,35
 883 2623 883 2623 608.5 2270 c 128,-1,36
 334 1917 334 1917 334 1378 c 0,37,38
 334 848 334 848 614.5 514 c 128,-1,39
 895 180 895 180 1374 180 c 0,40,41
 1769 180 1769 180 2122 399 c 1,42,-1
 2216 174 l 1,43,44
 1790 -68 1790 -68 1360 -68 c 0,45,46
 766 -68 766 -68 398.5 317 c 128,-1,47
 31 702 31 702 31 1368 c 0,0,1
993 1245 m 0,48,49
 993 1069 993 1069 1046.5 968.5 c 128,-1,50
 1100 868 1100 868 1188 868 c 0,51,52
 1327 868 1327 868 1401 1056.5 c 128,-1,53
 1475 1245 1475 1245 1475 1495 c 0,54,55
 1475 1849 1475 1849 1284 1849 c 0,56,57
 1157 1849 1157 1849 1075 1679 c 128,-1,58
 993 1509 993 1509 993 1245 c 0,48,49
EndSplineSet
EndChar

StartChar: A
Encoding: 65 65 36
Width: 2276
GlyphClass: 2
Flags: W
LayerCount: 2
Fore
SplineSet
-16 0 m 1,0,-1
 2.857421875 62.8515625 l 1,1,-1
 846.401482295 2759.17480469 l 1,2,-1
 857.689083579 2796 l 1,3,-1
 898.300033631 2796 l 1,4,-1
 1447.04028883 2796 l 1,5,-1
 1488.49850727 2796 l 1,6,-1
 1499.22643554 2758.19628906 l 1,7,-1
 2279.11132812 61.9072265625 l 1,8,-1
 2296.30859375 -0 l 1,9,-1
 2229.84863281 0 l 1,10,-1
 1743.65664299 0 l 1,11,-1
 1701.5321964 0 l 1,12,-1
 1691.26048958 38.564453125 l 1,13,-1
 1515.08763093 649 l 1,14,-1
 734.086176985 649 l 1,15,-1
 561.986206821 38.830078125 l 1,16,-1
 551.878988001 -0 l 1,17,-1
 509.520740857 0 l 1,18,-1
 51.8486328125 0 l 1,19,-1
 -16 0 l 1,0,-1
1124.02309288 2132.53222656 m 1,20,-1
 858.173236947 1116 l 1,21,-1
 1390.71297559 1116 l 1,22,-1
 1124.02309288 2132.53222656 l 1,20,-1
EndSplineSet
EndChar

StartChar: B
Encoding: 66 66 37
Width: 2285
GlyphClass: 2
Flags: W
LayerCount: 2
Fore
SplineSet
268 0 m 1,0,-1
 268 2796 l 1,1,-1
 1114 2796 l 2,2,3
 1433 2796 1433 2796 1599 2744.5 c 128,-1,4
 1765 2693 1765 2693 1880 2516 c 128,-1,5
 1995 2339 1995 2339 1995 2085 c 0,6,7
 1995 1620 1995 1620 1579 1473 c 1,8,9
 2081 1315 2081 1315 2081 770 c 0,10,11
 2081 461 2081 461 1883.5 230.5 c 128,-1,12
 1686 0 1686 0 1126 0 c 2,13,-1
 268 0 l 1,0,-1
721 371 m 1,14,-1
 1094 371 l 2,15,16
 1606 371 1606 371 1606 823 c 0,17,18
 1606 999 1606 999 1497.5 1138.5 c 128,-1,19
 1389 1278 1389 1278 1055 1278 c 2,20,-1
 721 1278 l 1,21,-1
 721 371 l 1,14,-1
721 1636 m 1,22,-1
 1014 1636 l 2,23,24
 1323 1636 1323 1636 1421.5 1750 c 128,-1,25
 1520 1864 1520 1864 1520 2044 c 0,26,27
 1520 2255 1520 2255 1407 2346 c 128,-1,28
 1294 2437 1294 2437 1059 2437 c 2,29,-1
 721 2437 l 1,30,-1
 721 1636 l 1,22,-1
EndSplineSet
EndChar

StartChar: C
Encoding: 67 67 38
Width: 2417
GlyphClass: 2
Flags: W
LayerCount: 2
Fore
SplineSet
432.841919755 349.432617188 m 0,0,1
 174 739.274414062 174 739.274414062 174 1386.40820312 c 0,2,3
 174 2084.90429688 174 2084.90429688 449.036660931 2461.81152344 c 0,4,5
 746.686988747 2847 746.686988747 2847 1305.84329724 2847 c 0,6,7
 1593.84881713 2847 1593.84881713 2847 1804.790604 2732.68945312 c 128,-1,8
 2015.73239086 2618.37792969 2015.73239086 2618.37792969 2140.00488281 2396.39453125 c 0,9,10
 2261.05859375 2174.41113281 2261.05859375 2174.41113281 2306.51269531 1848.03515625 c 2,11,-1
 2313.49707031 1797.87988281 l 1,12,-1
 2263.39355469 1790.5390625 l 1,13,-1
 1817.93211024 1727.5390625 l 1,14,-1
 1762.18689008 1719.87695312 l 1,15,-1
 1756.01275561 1772.41210938 l 2,16,17
 1720.08285321 2078.17578125 1720.08285321 2078.17578125 1607.80125757 2220.08789062 c 128,-1,18
 1495.51966194 2362 1495.51966194 2362 1307.97525263 2362 c 0,19,20
 790.976071691 2362 790.976071691 2362 790.976071691 1365.70800781 c 0,21,22
 790.976071691 434 790.976071691 434 1307.97525263 434 c 0,23,24
 1508.24477064 434 1508.24477064 434 1604.54294685 568.0078125 c 0,25,26
 1710.1798788 715.01171875 1710.1798788 715.01171875 1756.30735687 998.690429688 c 2,27,-1
 1764.39379702 1048.41894531 l 1,28,-1
 1817.50946674 1041.51757812 l 1,29,-1
 2258.99707031 982.517578125 l 1,30,-1
 2309.61621094 975.506835938 l 1,31,-1
 2302.50390625 924.901367188 l 2,32,33
 2235.02539062 444.828125 2235.02539062 444.828125 1986.64181799 196.9140625 c 0,34,35
 1727.22094797 -51 1727.22094797 -51 1288.78765416 -51 c 0,36,37
 1005.02418418 -51 1005.02418418 -51 789.204300174 49.6201171875 c 128,-1,38
 573.384416171 150.240234375 573.384416171 150.240234375 432.841919755 349.432617188 c 0,0,1
EndSplineSet
EndChar

StartChar: D
Encoding: 68 68 39
Width: 2561
GlyphClass: 2
Flags: W
LayerCount: 2
Fore
SplineSet
270 0 m 1,0,-1
 270 51 l 1,1,-1
 270 2745 l 1,2,-1
 270 2796 l 1,3,-1
 321 2796 l 1,4,-1
 979.073227085 2796 l 2,5,6
 1145.43333814 2796 1145.43333814 2796 1289.79902604 2777.61425781 c 0,7,8
 1434.16575589 2759.87988281 1434.16575589 2759.87988281 1558.87722976 2723.52734375 c 128,-1,9
 1683.58766168 2687.17382812 1683.58766168 2687.17382812 1786.21302121 2632.21972656 c 0,10,11
 2093.10029371 2467.88476562 2093.10029371 2467.88476562 2242.71191406 2145.19238281 c 0,12,13
 2387 1827.57128906 2387 1827.57128906 2387 1442.04492188 c 0,14,15
 2387 1307.52148438 2387 1307.52148438 2372.70019531 1182.57617188 c 128,-1,16
 2358.40039062 1057.63183594 2358.40039062 1057.63183594 2329.58203125 941.646484375 c 128,-1,17
 2300.76367188 825.661132812 2300.76367188 825.661132812 2257.46386719 719.421875 c 0,18,19
 2125.2224251 397.42578125 2125.2224251 397.42578125 1836.71610948 199.541992188 c 0,20,21
 1689.84766899 98.806640625 1689.84766899 98.806640625 1484.57819492 49.4033203125 c 128,-1,22
 1279.30976279 0 1279.30976279 0 1016.41654633 0 c 2,23,-1
 321 0 l 1,24,-1
 270 0 l 1,0,-1
856.373749573 2323 m 1,25,-1
 856.373749573 473 l 1,26,-1
 1007.8809305 473 l 2,27,28
 1408.40574245 473 1408.40574245 473 1587.01913013 715.986328125 c 0,29,30
 1772.88549899 968.837890625 1772.88549899 968.837890625 1772.88549899 1397.05273438 c 0,31,32
 1772.88549899 1870.92480469 1772.88549899 1870.92480469 1582.96804684 2096.96289062 c 128,-1,33
 1393.05059469 2323 1393.05059469 2323 1007.8809305 2323 c 2,34,-1
 856.373749573 2323 l 1,25,-1
EndSplineSet
EndChar

StartChar: E
Encoding: 69 69 40
Width: 2133
GlyphClass: 2
Flags: W
LayerCount: 2
Fore
SplineSet
268 0 m 1,0,-1
 268 51 l 1,1,-1
 268 2745 l 1,2,-1
 268 2796 l 1,3,-1
 319 2796 l 1,4,-1
 2023 2796 l 1,5,-1
 2074 2796 l 1,6,-1
 2074 2745 l 1,7,-1
 2074 2374 l 1,8,-1
 2074 2323 l 1,9,-1
 2023 2323 l 1,10,-1
 859.46323386 2323 l 1,11,-1
 859.46323386 1677 l 1,12,-1
 1771.26038619 1677 l 1,13,-1
 1826.48800468 1677 l 1,14,-1
 1826.48800468 1626 l 1,15,-1
 1826.48800468 1253 l 1,16,-1
 1826.48800468 1202 l 1,17,-1
 1771.26038619 1202 l 1,18,-1
 859.46323386 1202 l 1,19,-1
 859.46323386 481 l 1,20,-1
 2041 481 l 1,21,-1
 2092 481 l 1,22,-1
 2092 430 l 1,23,-1
 2092 51 l 1,24,-1
 2092 0 l 1,25,-1
 2041 0 l 1,26,-1
 319 0 l 1,27,-1
 268 0 l 1,0,-1
EndSplineSet
EndChar

StartChar: F
Encoding: 70 70 41
Width: 1989
GlyphClass: 2
Flags: W
LayerCount: 2
Fore
SplineSet
268 0 m 1,0,-1
 268 51 l 1,1,-1
 268 2745 l 1,2,-1
 268 2796 l 1,3,-1
 319 2796 l 1,4,-1
 1974 2796 l 1,5,-1
 2025 2796 l 1,6,-1
 2025 2745 l 1,7,-1
 2025 2374 l 1,8,-1
 2025 2323 l 1,9,-1
 1974 2323 l 1,10,-1
 860.987142022 2323 l 1,11,-1
 860.987142022 1640 l 1,12,-1
 1755.050263 1640 l 1,13,-1
 1808 1640 l 1,14,-1
 1808 1589 l 1,15,-1
 1808 1219 l 1,16,-1
 1808 1168 l 1,17,-1
 1755.050263 1168 l 1,18,-1
 860.987142022 1168 l 1,19,-1
 860.987142022 51 l 1,20,-1
 860.987142022 0 l 1,21,-1
 805.516072472 0 l 1,22,-1
 319 0 l 1,23,-1
 268 0 l 1,0,-1
EndSplineSet
EndChar

StartChar: G
Encoding: 71 71 42
Width: 2563
GlyphClass: 2
Flags: W
LayerCount: 2
Fore
SplineSet
448.872816948 337.237304688 m 0,0,1
 174 716.9921875 174 716.9921875 174 1361.29199219 c 0,2,3
 174 2038.60449219 174 2038.60449219 444.782250809 2437.74902344 c 0,4,5
 591.133270682 2641.59863281 591.133270682 2641.59863281 817.700334105 2744.29882812 c 128,-1,6
 1044.26635826 2847 1044.26635826 2847 1343.75171233 2847 c 0,7,8
 1764.30265077 2847 1764.30265077 2847 2019.77596586 2619.97949219 c 0,9,10
 2265.29199219 2392.95898438 2265.29199219 2392.95898438 2341.2578125 1952.67089844 c 2,11,-1
 2349.29980469 1906.06054688 l 1,12,-1
 2303.42480469 1894.53710938 l 1,13,-1
 1870.98889745 1789.53710938 l 1,14,-1
 1816.01567935 1776.56054688 l 1,15,-1
 1804.6034571 1828.73144531 l 2,16,17
 1766.97357429 2000.74609375 1766.97357429 2000.74609375 1716.65732439 2111.74609375 c 128,-1,18
 1666.34003522 2222.74707031 1666.34003522 2222.74707031 1611.14441336 2267.32226562 c 0,19,20
 1493.90749913 2362 1493.90749913 2362 1333.10958904 2362 c 0,21,22
 1156.45034247 2362 1156.45034247 2362 1036.72645548 2263.22558594 c 128,-1,23
 917.002568493 2164.45117188 917.002568493 2164.45117188 852.617722603 1948.85742188 c 128,-1,24
 788.232876712 1733.26269531 788.232876712 1733.26269531 788.232876712 1400.84960938 c 0,25,26
 788.232876712 904.127929688 788.232876712 904.127929688 930.305222603 669.064453125 c 128,-1,27
 1072.37756849 434 1072.37756849 434 1348.00856164 434 c 0,28,29
 1456.99263398 434 1456.99263398 434 1538.71977589 467.23046875 c 128,-1,30
 1620.44795708 500.461914062 1620.44795708 500.461914062 1678.37581938 570.188476562 c 128,-1,31
 1736.30368167 639.916015625 1736.30368167 639.916015625 1767.36226121 750.119140625 c 128,-1,32
 1798.42084075 860.321289062 1798.42084075 860.321289062 1802.83254127 1012 c 1,33,-1
 1324.59589041 1012 l 1,34,-1
 1270.32106164 1012 l 1,35,-1
 1270.32106164 1063 l 1,36,-1
 1270.32106164 1434 l 1,37,-1
 1270.32106164 1485 l 1,38,-1
 1324.59589041 1485 l 1,39,-1
 2305 1485 l 1,40,-1
 2356 1485 l 1,41,-1
 2356 1435.72851562 l 1,42,-1
 2356 31 l 1,43,-1
 2356 -20 l 1,44,-1
 2305 -20 l 1,45,-1
 2056.7739726 -20 l 1,46,-1
 2011.17912564 -20 l 1,47,-1
 2003.31289213 22.2021484375 l 1,48,-1
 1961.11541832 248.599609375 l 1,49,50
 1717.23827623 -50.53125 1717.23827623 -50.53125 1273.51369863 -51 c 0,51,52
 746.017735311 -51 746.017735311 -51 448.872816948 337.237304688 c 0,0,1
EndSplineSet
EndChar

StartChar: H
Encoding: 72 72 43
Width: 2489
GlyphClass: 2
Flags: W
LayerCount: 2
Fore
SplineSet
268 0 m 1,0,-1
 268 51 l 1,1,-1
 268 2745 l 1,2,-1
 268 2796 l 1,3,-1
 319 2796 l 1,4,-1
 802.125695119 2796 l 1,5,-1
 856.952158178 2796 l 1,6,-1
 856.952158178 2745 l 1,7,-1
 856.952158178 1687 l 1,8,-1
 1632.04784182 1687 l 1,9,-1
 1632.04784182 2745 l 1,10,-1
 1632.04784182 2796 l 1,11,-1
 1686.87430488 2796 l 1,12,-1
 2170 2796 l 1,13,-1
 2221 2796 l 1,14,-1
 2221 2745 l 1,15,-1
 2221 51 l 1,16,-1
 2221 0 l 1,17,-1
 2170 0 l 1,18,-1
 1686.87430488 0 l 1,19,-1
 1632.04784182 0 l 1,20,-1
 1632.04784182 51 l 1,21,-1
 1632.04784182 1194 l 1,22,-1
 856.952158178 1194 l 1,23,-1
 856.952158178 51 l 1,24,-1
 856.952158178 0 l 1,25,-1
 802.125695119 0 l 1,26,-1
 319 0 l 1,27,-1
 268 0 l 1,0,-1
EndSplineSet
EndChar

StartChar: I
Encoding: 73 73 44
Width: 1101
GlyphClass: 2
Flags: W
LayerCount: 2
Fore
SplineSet
268 0 m 1,0,-1
 268 51 l 1,1,-1
 268 2745 l 1,2,-1
 268 2796 l 1,3,-1
 319 2796 l 1,4,-1
 782 2796 l 1,5,-1
 833 2796 l 1,6,-1
 833 2745 l 1,7,-1
 833 51 l 1,8,-1
 833 0 l 1,9,-1
 782 0 l 1,10,-1
 319 0 l 1,11,-1
 268 0 l 1,0,-1
EndSplineSet
EndChar

StartChar: J
Encoding: 74 74 45
Width: 1490
GlyphClass: 2
Flags: W
LayerCount: 2
Fore
SplineSet
-68 10.6826171875 m 1,0,-1
 -68 51 l 1,1,-1
 -68 434 l 1,2,-1
 -68 500.771484375 l 1,3,-1
 -3.5810546875 483.203125 l 2,4,5
 132.830078125 446 132.830078125 446 265.007360435 446 c 0,6,7
 317.665500748 446 317.665500748 446 361.477064549 451.543945312 c 128,-1,8
 405.288628349 457.088867188 405.288628349 457.088867188 436.428220058 466.672851562 c 128,-1,9
 467.567811766 476.256835938 467.567811766 476.256835938 489.936820796 489.8359375 c 0,10,11
 524.793405112 510.995117188 524.793405112 510.995117188 549.555102409 544.028320312 c 128,-1,12
 574.317917262 577.061523438 574.317917262 577.061523438 589.026077127 624.413085938 c 0,13,14
 620.908843846 727.049804688 620.908843846 727.049804688 620.908843846 1079.87695312 c 2,15,-1
 620.908843846 2745 l 1,16,-1
 620.908843846 2796 l 1,17,-1
 679.272109614 2796 l 1,18,-1
 1181 2796 l 1,19,-1
 1232 2796 l 1,20,-1
 1232 2745 l 1,21,-1
 1232 1067.20703125 l 2,22,23
 1232 644.7734375 1232 644.7734375 1181.67773438 435.708007812 c 0,24,25
 1128.61132812 215.241210938 1128.61132812 215.241210938 947.588462341 82.0107421875 c 0,26,27
 746.341139788 -51 746.341139788 -51 379.445136451 -51 c 0,28,29
 194.095053779 -51 194.095053779 -51 -28.771484375 1.376953125 c 2,30,-1
 -68 10.6826171875 l 1,0,-1
EndSplineSet
EndChar

StartChar: K
Encoding: 75 75 46
Width: 2348
GlyphClass: 2
Flags: W
LayerCount: 2
Fore
SplineSet
268 0 m 1,0,-1
 268 51 l 1,1,-1
 268 2745 l 1,2,-1
 268 2796 l 1,3,-1
 319 2796 l 1,4,-1
 799.546419427 2796 l 1,5,-1
 853.882489331 2796 l 1,6,-1
 853.882489331 2745 l 1,7,-1
 853.882489331 1586.99707031 l 1,8,-1
 1652.83725615 2772.26757812 l 1,9,-1
 1668.83510026 2796 l 1,10,-1
 1698.75510567 2796 l 1,11,-1
 2217 2796 l 1,12,-1
 2315.1171875 2796 l 1,13,-1
 2258.74023438 2718.52246094 l 1,14,-1
 1514.2856882 1751.19140625 l 1,15,-1
 2386.02929688 70.392578125 l 1,16,-1
 2420.83984375 -0 l 1,17,-1
 2340 0 l 1,18,-1
 1817.01596369 0 l 1,19,-1
 1781.91351412 0 l 1,20,-1
 1767.48361688 30.03515625 l 1,21,-1
 1140.71064142 1334.62792969 l 1,22,-1
 853.882489331 952.827148438 l 1,23,-1
 853.882489331 51 l 1,24,-1
 853.882489331 0 l 1,25,-1
 799.546419427 0 l 1,26,-1
 319 0 l 1,27,-1
 268 0 l 1,0,-1
EndSplineSet
EndChar

StartChar: L
Encoding: 76 76 47
Width: 1918
GlyphClass: 2
Flags: W
LayerCount: 2
Fore
SplineSet
268 0 m 1,0,-1
 268 51 l 1,1,-1
 268 2745 l 1,2,-1
 268 2796 l 1,3,-1
 319 2796 l 1,4,-1
 807.751524735 2796 l 1,5,-1
 863.647616896 2796 l 1,6,-1
 863.647616896 2745 l 1,7,-1
 863.647616896 493 l 1,8,-1
 1873 493 l 1,9,-1
 1924 493 l 1,10,-1
 1924 442 l 1,11,-1
 1924 51 l 1,12,-1
 1924 0 l 1,13,-1
 1873 0 l 1,14,-1
 319 0 l 1,15,-1
 268 0 l 1,0,-1
EndSplineSet
EndChar

StartChar: M
Encoding: 77 77 48
Width: 3204
GlyphClass: 2
Flags: W
LayerCount: 2
Fore
SplineSet
258 0 m 1,0,-1
 258 51 l 1,1,-1
 258 2745 l 1,2,-1
 258 2796 l 1,3,-1
 309 2796 l 1,4,-1
 655.064884177 2796 l 1,5,-1
 1019.06096577 2796 l 1,6,-1
 1059.78269959 2796 l 1,7,-1
 1070.62694074 2758.58203125 l 1,8,-1
 1604.02715602 918.142578125 l 1,9,-1
 2151.89284734 2758.92089844 l 1,10,-1
 2162.92865028 2796 l 1,11,-1
 2203.35945603 2796 l 1,12,-1
 2487.6330529 2796 l 1,13,-1
 2883 2796 l 1,14,-1
 2934 2796 l 1,15,-1
 2934 2745 l 1,16,-1
 2934 51 l 1,17,-1
 2934 0 l 1,18,-1
 2883 0 l 1,19,-1
 2437.28200991 0 l 1,20,-1
 2383.78402674 0 l 1,21,-1
 2383.78402674 51 l 1,22,-1
 2383.78402674 2063.51171875 l 1,23,-1
 1792.2985893 37.3271484375 l 1,24,-1
 1781.40210403 0 l 1,25,-1
 1740.75924859 0 l 1,26,-1
 1388.30194768 0 l 1,27,-1
 1347.43577422 0 l 1,28,-1
 1336.68782616 37.5859375 l 1,29,-1
 758.913910338 2058.01660156 l 1,30,-1
 758.913910338 51 l 1,31,-1
 758.913910338 0 l 1,32,-1
 705.415927164 0 l 1,33,-1
 309 0 l 1,34,-1
 258 0 l 1,0,-1
EndSplineSet
EndChar

StartChar: N
Encoding: 78 78 49
Width: 2561
GlyphClass: 2
Flags: W
LayerCount: 2
Fore
SplineSet
254 0 m 1,0,-1
 254 51 l 1,1,-1
 254 2745 l 1,2,-1
 254 2796 l 1,3,-1
 305 2796 l 1,4,-1
 874.444043025 2796 l 1,5,-1
 909.534065104 2796 l 1,6,-1
 924.08909034 2766.15429688 l 1,7,-1
 1803.02372937 963.83203125 l 1,8,-1
 1803.02372937 2745 l 1,9,-1
 1803.02372937 2796 l 1,10,-1
 1857.5831349 2796 l 1,11,-1
 2258 2796 l 1,12,-1
 2309 2796 l 1,13,-1
 2309 2745 l 1,14,-1
 2309 51 l 1,15,-1
 2309 0 l 1,16,-1
 2258 0 l 1,17,-1
 1809.44248296 0 l 1,18,-1
 1774.52066064 0 l 1,19,-1
 1759.89668395 29.6435546875 l 1,20,-1
 759.97627063 2056.61035156 l 1,21,-1
 759.97627063 51 l 1,22,-1
 759.97627063 0 l 1,23,-1
 705.416865096 0 l 1,24,-1
 305 0 l 1,25,-1
 254 0 l 1,0,-1
EndSplineSet
EndChar

StartChar: O
Encoding: 79 79 50
Width: 2563
GlyphClass: 2
Flags: W
LayerCount: 2
Fore
SplineSet
447.493494054 322.745117188 m 0,0,1
 176 688.65234375 176 688.65234375 176 1398.96582031 c 0,2,3
 176 2103.29101562 176 2103.29101562 444.612851159 2471.03613281 c 0,4,5
 735.054319785 2847 735.054319785 2847 1286.22044113 2847 c 0,6,7
 1465.46805596 2847 1465.46805596 2847 1618.69334428 2803.91015625 c 0,8,9
 1771.91863259 2762.30664062 1771.91863259 2762.30664062 1897.94753778 2679.01757812 c 128,-1,10
 2023.97748103 2595.72949219 2023.97748103 2595.72949219 2120.30617942 2471.77734375 c 0,11,12
 2389 2106.1171875 2389 2106.1171875 2389 1398.22265625 c 0,13,14
 2389 1281.22363281 2389 1281.22363281 2381.82421875 1173.77246094 c 128,-1,15
 2374.6484375 1066.32226562 2374.6484375 1066.32226562 2360.1796875 967.46875 c 128,-1,16
 2345.71191406 868.615234375 2345.71191406 868.615234375 2323.76855469 779.106445312 c 128,-1,17
 2301.82617188 689.596679688 2301.82617188 689.596679688 2272.41992188 609.115234375 c 128,-1,18
 2243.01464844 528.634765625 2243.01464844 528.634765625 2205.82714844 457.250976562 c 128,-1,19
 2168.63964844 385.8671875 2168.63964844 385.8671875 2122.58681814 323.901367188 c 0,20,21
 1834.27962043 -51 1834.27962043 -51 1288.34640749 -51 c 0,22,23
 740.613182019 -51 740.613182019 -51 447.493494054 322.745117188 c 0,0,1
903.407395092 2123.87207031 m 0,24,25
 785.55536345 1859.89453125 785.55536345 1859.89453125 785.55536345 1399 c 0,26,27
 785.55536345 945.436523438 785.55536345 945.436523438 901.494232982 677.4453125 c 0,28,29
 937.995871215 593.0703125 937.995871215 593.0703125 992.020122803 538.795898438 c 128,-1,30
 1046.04437439 484.521484375 1046.04437439 484.521484375 1119.28952105 458.260742188 c 128,-1,31
 1192.53466772 432 1192.53466772 432 1288.34640749 432 c 0,32,33
 1341.831901 432 1341.831901 432 1387.94502484 440.984375 c 128,-1,34
 1434.05814868 449.96875 1434.05814868 449.96875 1474.16707847 468.399414062 c 128,-1,35
 1514.27704632 486.829101562 1514.27704632 486.829101562 1548.03714297 515.12890625 c 128,-1,36
 1581.79620156 543.428710938 1581.79620156 543.428710938 1609.90400972 581.860351562 c 128,-1,37
 1638.01077982 620.291015625 1638.01077982 620.291015625 1660.79017718 669.477539062 c 0,38,39
 1700.0842224 754.323242188 1700.0842224 754.323242188 1726.62662173 863.169921875 c 128,-1,40
 1753.17005914 972.016601562 1753.17005914 972.016601562 1766.8383204 1106.70410156 c 128,-1,41
 1780.50761973 1241.39160156 1780.50761973 1241.39160156 1780.50761973 1399 c 0,42,43
 1780.50761973 1862.58496094 1780.50761973 1862.58496094 1661.18879587 2125.01269531 c 0,44,45
 1604.83823051 2248.94824219 1604.83823051 2248.94824219 1512.15938452 2307.47460938 c 128,-1,46
 1419.47950046 2366 1419.47950046 2366 1281.96850841 2366 c 0,47,48
 1143.99557543 2366 1143.99557543 2366 1051.50565809 2307.21386719 c 128,-1,49
 959.015740754 2248.42871094 959.015740754 2248.42871094 903.407395092 2123.87207031 c 0,24,25
EndSplineSet
EndChar

StartChar: P
Encoding: 80 80 51
Width: 2276
GlyphClass: 2
Flags: W
LayerCount: 2
Fore
SplineSet
268 0 m 1,0,-1
 268 51 l 1,1,-1
 268 2745 l 1,2,-1
 268 2796 l 1,3,-1
 319 2796 l 1,4,-1
 1050.1684141 2796 l 2,5,6
 1415.72888375 2796 1415.72888375 2796 1645.82723516 2733.13964844 c 0,7,8
 1726.52015271 2711.09570312 1726.52015271 2711.09570312 1798.94612028 2671.02050781 c 128,-1,9
 1871.37208786 2630.94628906 1871.37208786 2630.94628906 1934.03289819 2574.29101562 c 0,10,11
 1993.17382812 2517.63671875 1993.17382812 2517.63671875 2043.04101562 2444.34765625 c 0,12,13
 2118.15625 2333.95507812 2118.15625 2333.95507812 2155.578125 2201.60351562 c 128,-1,14
 2193 2069.25195312 2193 2069.25195312 2193 1916.55664062 c 0,15,16
 2193 1776.67382812 2193 1776.67382812 2162.63964844 1654.81347656 c 128,-1,17
 2132.27929688 1532.95410156 2132.27929688 1532.95410156 2071.15722656 1430.17285156 c 0,18,19
 2040.64648438 1378.8671875 2040.64648438 1378.8671875 2004.58398438 1334.37207031 c 128,-1,20
 1968.52246094 1289.87792969 1968.52246094 1289.87792969 1925.50415621 1252.35351562 c 0,21,22
 1880.85442562 1214.83007812 1880.85442562 1214.83007812 1830.29071899 1184.39355469 c 128,-1,23
 1779.72701236 1153.95703125 1779.72701236 1153.95703125 1723.70772855 1130.9609375 c 0,24,25
 1611.53984197 1084.91699219 1611.53984197 1084.91699219 1446.98832121 1062.95898438 c 128,-1,26
 1282.43680044 1041 1282.43680044 1041 1060.93447893 1041 c 2,27,-1
 857.455853637 1041 l 1,28,-1
 857.455853637 51 l 1,29,-1
 857.455853637 0 l 1,30,-1
 802.548923003 0 l 1,31,-1
 319 0 l 1,32,-1
 268 0 l 1,0,-1
857.455853637 2335 m 1,33,-1
 857.455853637 1513 l 1,34,-1
 1050.1684141 1513 l 2,35,36
 1358.28814294 1513 1358.28814294 1513 1468.78224287 1607.58007812 c 0,37,38
 1578.78219725 1701.73730469 1578.78219725 1701.73730469 1578.78219725 1924.47070312 c 0,39,40
 1578.78219725 2091.98730469 1578.78219725 2091.98730469 1504.18514336 2192.5859375 c 0,41,42
 1466.82037989 2242.97265625 1466.82037989 2242.97265625 1428.18030033 2272.01464844 c 128,-1,43
 1389.53916941 2301.05664062 1389.53916941 2301.05664062 1350.65937669 2311.05761719 c 0,44,45
 1257.58233046 2335 1257.58233046 2335 1050.1684141 2335 c 2,46,-1
 857.455853637 2335 l 1,33,-1
EndSplineSet
EndChar

StartChar: Q
Encoding: 81 81 52
Width: 2561
GlyphClass: 2
Flags: W
LayerCount: 2
Fore
SplineSet
457.467625869 308.2109375 m 0,0,1
 174 657.698242188 174 657.698242188 174 1399.05078125 c 0,2,3
 174 2103.33398438 174 2103.33398438 442.612851159 2471.05859375 c 0,4,5
 733.054319785 2847 733.054319785 2847 1284.22044113 2847 c 0,6,7
 1832.34605687 2847 1832.34605687 2847 2120.6459881 2470.78320312 c 0,8,9
 2387 2103.00488281 2387 2103.00488281 2387 1400.51367188 c 0,10,11
 2387 310.951171875 2387 310.951171875 1723.98301864 37.44140625 c 1,12,13
 1729.37163747 -74.7421875 1729.37163747 -74.7421875 1768.94077111 -126.856445312 c 128,-1,14
 1808.53170421 -179 1808.53170421 -179 1961.34072665 -179 c 0,15,16
 2009.77497392 -179 2009.77497392 -179 2061.53934818 -170.4609375 c 128,-1,17
 2113.30476051 -161.920898438 2113.30476051 -161.920898438 2166.87207031 -144.6171875 c 2,18,-1
 2234 -122.241210938 l 1,19,-1
 2234 -193 l 1,20,-1
 2234 -545 l 1,21,-1
 2234 -580.18359375 l 1,22,-1
 2201.109375 -592.676757812 l 2,23,24
 2058.45420559 -645 2058.45420559 -645 1895.43576951 -645 c 0,25,26
 1689.24921278 -645 1689.24921278 -645 1544.19041731 -576.6015625 c 128,-1,27
 1399.13058378 -508.204101562 1399.13058378 -508.204101562 1320.24041511 -374.424804688 c 128,-1,28
 1241.35024644 -240.646484375 1241.35024644 -240.646484375 1231.4096928 -46.0341796875 c 1,29,30
 745.349215079 -28.3388671875 745.349215079 -28.3388671875 457.467625869 308.2109375 c 0,0,1
904.372121617 2129.55175781 m 0,31,32
 785.68132981 1871.96679688 785.68132981 1871.96679688 785.68132981 1399 c 0,33,34
 785.68132981 1162.0625 785.68132981 1162.0625 815.72928989 978.837890625 c 128,-1,35
 845.77724997 795.61328125 845.77724997 795.61328125 904.372121617 668.448242188 c 0,36,37
 960.394657014 546.8671875 960.394657014 546.8671875 1052.16311604 489.43359375 c 128,-1,38
 1143.93157507 432 1143.93157507 432 1279.96850841 432 c 0,39,40
 1418.09299954 432 1418.09299954 432 1510.28187672 490.0234375 c 128,-1,41
 1602.46971583 548.047851562 1602.46971583 548.047851562 1657.49051415 670.857421875 c 0,42,43
 1715.19056988 799.649414062 1715.19056988 799.649414062 1744.72364748 982.217773438 c 128,-1,44
 1774.25568701 1164.78613281 1774.25568701 1164.78613281 1774.25568701 1399 c 0,45,46
 1774.25568701 1735.37792969 1774.25568701 1735.37792969 1714.55734747 1963.61425781 c 0,47,48
 1657.0462204 2183.484375 1657.0462204 2183.484375 1549.89460928 2276.66113281 c 0,49,50
 1498.37625749 2321.45996094 1498.37625749 2321.45996094 1431.87752459 2343.72949219 c 128,-1,51
 1365.37879168 2366 1365.37879168 2366 1279.96850841 2366 c 0,52,53
 1234.61421338 2366 1234.61421338 2366 1194.61324283 2359.79394531 c 128,-1,54
 1154.61227227 2353.58691406 1154.61227227 2353.58691406 1118.9867647 2340.86035156 c 128,-1,55
 1083.36021907 2328.13476562 1083.36021907 2328.13476562 1052.53474492 2308.81445312 c 128,-1,56
 1021.70823271 2289.49511719 1021.70823271 2289.49511719 994.953029121 2263.18359375 c 128,-1,57
 968.197825532 2236.87109375 968.197825532 2236.87109375 945.672755202 2203.58496094 c 128,-1,58
 923.147684871 2170.29785156 923.147684871 2170.29785156 904.372121617 2129.55175781 c 0,31,32
EndSplineSet
EndChar

StartChar: R
Encoding: 82 82 53
Width: 2417
GlyphClass: 2
Flags: W
LayerCount: 2
Fore
SplineSet
268 0 m 1,0,-1
 268 51 l 1,1,-1
 268 2745 l 1,2,-1
 268 2796 l 1,3,-1
 319 2796 l 1,4,-1
 1205.87491997 2796 l 2,5,6
 1716.39984827 2796 1716.39984827 2796 1964.24799365 2582.68457031 c 0,7,8
 2205 2368.43066406 2205 2368.43066406 2205 1973.98730469 c 0,9,10
 2205 1725.66210938 2205 1725.66210938 2100.6796875 1541.82910156 c 0,11,12
 1990.07906255 1357.99511719 1990.07906255 1357.99511719 1770.49931284 1246.36425781 c 1,13,-1
 2303.03320312 68.2314453125 l 1,14,-1
 2332.68652344 -0 l 1,15,-1
 2256 0 l 1,16,-1
 1731.98662602 0 l 1,17,-1
 1694.17464454 0 l 1,18,-1
 1680.91450091 33.115234375 l 1,19,-1
 1226.87623896 1167 l 1,20,-1
 855.133782601 1167 l 1,21,-1
 855.133782601 51 l 1,22,-1
 855.133782601 0 l 1,23,-1
 800.597813072 0 l 1,24,-1
 319 0 l 1,25,-1
 268 0 l 1,0,-1
855.133782601 2335 m 1,26,-1
 855.133782601 1577 l 1,27,-1
 1179.14160157 1577 l 2,28,29
 1296.9373743 1577 1296.9373743 1577 1378.81651605 1603.89550781 c 128,-1,30
 1460.69670207 1630.79003906 1460.69670207 1630.79003906 1511.34380919 1682.92871094 c 0,31,32
 1564.19014946 1737.33105469 1564.19014946 1737.33105469 1590.87856423 1809.06152344 c 128,-1,33
 1617.56802328 1880.79199219 1617.56802328 1880.79199219 1617.56802328 1972.39648438 c 0,34,35
 1617.56802328 2159.7890625 1617.56802328 2159.7890625 1513.8427479 2247.39453125 c 128,-1,36
 1410.11747252 2335 1410.11747252 2335 1184.48826525 2335 c 2,37,-1
 855.133782601 2335 l 1,26,-1
EndSplineSet
EndChar

StartChar: S
Encoding: 83 83 54
Width: 2348
GlyphClass: 2
Flags: W
LayerCount: 2
Fore
SplineSet
98 817.793945312 m 1,0,-1
 145.005859375 831.078125 l 1,1,-1
 573.399271794 948.078125 l 1,2,-1
 629.403676532 962.913085938 l 1,3,-1
 641.432006567 909.541015625 l 2,4,5
 678.284851088 746.013671875 678.284851088 746.013671875 751.043484954 640.522460938 c 128,-1,6
 823.802118821 535.032226562 823.802118821 535.032226562 932.632198549 484.515625 c 128,-1,7
 1041.46123641 434 1041.46123641 434 1190.97822342 434 c 0,8,9
 1301.20961141 434 1301.20961141 434 1381.18420143 458.506835938 c 128,-1,10
 1461.15879145 483.013671875 1461.15879145 483.013671875 1514.25535131 530.55859375 c 0,11,12
 1621.99355665 627.030273438 1621.99355665 627.030273438 1621.99355665 769.8046875 c 0,13,14
 1621.99355665 873.404296875 1621.99355665 873.404296875 1547.55022727 962.528320312 c 0,15,16
 1513.10825808 1003.76171875 1513.10825808 1003.76171875 1410.9929975 1056.5234375 c 128,-1,17
 1308.87773692 1109.28613281 1308.87773692 1109.28613281 1148.18570722 1164.44628906 c 0,18,19
 785.372932737 1287.7734375 785.372932737 1287.7734375 622.870141872 1374.375 c 0,20,21
 452.738816358 1465.04101562 452.738816358 1465.04101562 334.7890625 1640.51855469 c 0,22,23
 222.875976562 1817.25 222.875976562 1817.25 222.875976562 2041.06738281 c 0,24,25
 222.875976562 2382.10253906 222.875976562 2382.10253906 479.195933111 2614.76855469 c 0,26,27
 743.104474572 2847 743.104474572 2847 1176.0420485 2847 c 0,28,29
 1556.38211585 2847 1556.38211585 2847 1804.24906376 2666.47460938 c 0,30,31
 2047.03808594 2485.94921875 2047.03808594 2485.94921875 2145.01074219 2133.66503906 c 2,32,-1
 2157.84570312 2087.51269531 l 1,33,-1
 2112.58789062 2071.81542969 l 1,34,-1
 1700.63455962 1934.81542969 l 1,35,-1
 1647.81513582 1917.64453125 l 1,36,-1
 1630.93379918 1967.60058594 l 2,37,38
 1613.05123039 2020.51953125 1613.05123039 2020.51953125 1592.40459407 2066.42675781 c 128,-1,39
 1571.75691588 2112.33496094 1571.75691588 2112.33496094 1548.95882859 2150.171875 c 128,-1,40
 1526.16178316 2188.00976562 1526.16178316 2188.00976562 1501.46958551 2218.40820312 c 128,-1,41
 1476.77738786 2248.80664062 1476.77738786 2248.80664062 1449.98999994 2272.14550781 c 0,42,43
 1344.56160905 2364 1344.56160905 2364 1155.77152541 2364 c 0,44,45
 1068.11630749 2364 1068.11630749 2364 1004.30937667 2342.04785156 c 128,-1,46
 940.501403984 2320.09472656 940.501403984 2320.09472656 896.004396842 2276.640625 c 0,47,48
 849.545558131 2231.27148438 849.545558131 2231.27148438 827.157965598 2180.93847656 c 128,-1,49
 804.77141493 2130.60546875 804.77141493 2130.60546875 804.77141493 2072.31933594 c 0,50,51
 804.77141493 2008.22363281 804.77141493 2008.22363281 829.065620192 1960.31152344 c 128,-1,52
 853.359825455 1912.3984375 853.359825455 1912.3984375 903.605843003 1875.72070312 c 0,53,54
 1015.77822526 1793.84082031 1015.77822526 1793.84082031 1363.99447278 1674.76367188 c 0,55,56
 1441.13414847 1648.23046875 1441.13414847 1648.23046875 1509.06894794 1622.45898438 c 128,-1,57
 1577.00270555 1596.68652344 1577.00270555 1596.68652344 1636.70885621 1571.27148438 c 128,-1,58
 1696.41500686 1545.85546875 1696.41500686 1545.85546875 1747.55911194 1520.8203125 c 128,-1,59
 1798.70425888 1495.78515625 1798.70425888 1495.78515625 1841.34883026 1471.09472656 c 0,60,61
 2012.81347656 1370.20507812 2012.81347656 1370.20507812 2114.48144531 1202.17675781 c 0,62,63
 2216.87597656 1032.94921875 2216.87597656 1032.94921875 2216.87597656 811.568359375 c 0,64,65
 2216.87597656 453.506835938 2216.87597656 453.506835938 1951.64481388 201.212890625 c 0,66,67
 1670.07145338 -51 1670.07145338 -51 1169.64083068 -51 c 0,68,69
 739.635064523 -51 739.635064523 -51 467.798973193 156.774414062 c 0,70,71
 205.225585938 364.548828125 205.225585938 364.548828125 109.245117188 770.258789062 c 2,72,-1
 98 817.793945312 l 1,0,-1
EndSplineSet
EndChar

StartChar: T
Encoding: 84 84 55
Width: 1776
GlyphClass: 2
Flags: W
LayerCount: 2
Fore
SplineSet
-66 2300 m 1,0,-1
 -66 2351 l 1,1,-1
 -66 2745 l 1,2,-1
 -66 2796 l 1,3,-1
 -15 2796 l 1,4,-1
 1793 2796 l 1,5,-1
 1844 2796 l 1,6,-1
 1844 2745 l 1,7,-1
 1844 2351 l 1,8,-1
 1844 2300 l 1,9,-1
 1793 2300 l 1,10,-1
 1190.69421488 2300 l 1,11,-1
 1190.69421488 51 l 1,12,-1
 1190.69421488 0 l 1,13,-1
 1135.7427686 0 l 1,14,-1
 636.869834711 0 l 1,15,-1
 581.91838843 0 l 1,16,-1
 581.91838843 51 l 1,17,-1
 581.91838843 2300 l 1,18,-1
 -15 2300 l 1,19,-1
 -66 2300 l 1,0,-1
EndSplineSet
EndChar

StartChar: U
Encoding: 85 85 56
Width: 2489
GlyphClass: 2
Flags: W
LayerCount: 2
Fore
SplineSet
358.109375 351.163085938 m 0,0,1
 248 558.2890625 248 558.2890625 248 1073.14550781 c 2,2,-1
 248 2745 l 1,3,-1
 248 2796 l 1,4,-1
 299 2796 l 1,5,-1
 769.735347881 2796 l 1,6,-1
 824.449788644 2796 l 1,7,-1
 824.449788644 2745 l 1,8,-1
 824.449788644 1083.33984375 l 2,9,10
 824.449788644 1014.86621094 824.449788644 1014.86621094 826.554593169 954.751953125 c 128,-1,11
 828.659397693 894.638671875 828.659397693 894.638671875 832.743284222 844.668945312 c 128,-1,12
 836.828218439 794.700195312 836.828218439 794.700195312 842.747653762 754.258789062 c 128,-1,13
 848.668136773 713.81640625 848.668136773 713.81640625 856.377022632 683.1796875 c 0,14,15
 871.014267039 625.010742188 871.014267039 625.010742188 903.090272677 580.376953125 c 128,-1,16
 935.166278314 535.743164062 935.166278314 535.743164062 986.265148936 502 c 0,17,18
 1089.23817905 434 1089.23817905 434 1270.74797212 434 c 0,19,20
 1442.82543312 434 1442.82543312 434 1534.62487426 489.327148438 c 0,21,22
 1624.95021885 543.764648438 1624.95021885 543.764648438 1663.03680864 644.936523438 c 0,23,24
 1704.17216954 754.208007812 1704.17216954 754.208007812 1704.17216954 1091.00195312 c 2,25,-1
 1704.17216954 2745 l 1,26,-1
 1704.17216954 2796 l 1,27,-1
 1758.88661031 2796 l 1,28,-1
 2191 2796 l 1,29,-1
 2242 2796 l 1,30,-1
 2242 2745 l 1,31,-1
 2242 1100.97558594 l 2,32,33
 2242 900.047851562 2242 900.047851562 2227.14941406 745.397460938 c 128,-1,34
 2212.29882812 590.747070312 2212.29882812 590.747070312 2181.80175781 479.592773438 c 0,35,36
 2150.17578125 364.321289062 2150.17578125 364.321289062 2076.85351562 268.471679688 c 128,-1,37
 2003.53027344 172.62109375 2003.53027344 172.62109375 1883.18427521 98.0146484375 c 0,38,39
 1641.75198598 -51 1641.75198598 -51 1242.85433566 -51 c 0,40,41
 935.102369366 -51 935.102369366 -51 705.605338047 44.423828125 c 0,42,43
 470.805664062 139.168945312 470.805664062 139.168945312 358.109375 351.163085938 c 0,0,1
EndSplineSet
EndChar

StartChar: V
Encoding: 86 86 57
Width: 2133
GlyphClass: 2
Flags: W
LayerCount: 2
Fore
SplineSet
-16 2796 m 1,0,-1
 49.8193359375 2796 l 1,1,-1
 556.38860532 2796 l 1,2,-1
 599.260921358 2796 l 1,3,-1
 609.170034844 2756.78710938 l 1,4,-1
 1120.3157448 734.06640625 l 1,5,-1
 1634.37009485 2756.85058594 l 1,6,-1
 1644.31868274 2796 l 1,7,-1
 1687.13490357 2796 l 1,8,-1
 2111.81933594 2796 l 1,9,-1
 2177.99121094 2796 l 1,10,-1
 2161.13769531 2734.28808594 l 1,11,-1
 1390.69253901 32.0107421875 l 1,12,-1
 1379.9108335 -6.47265625 l 1,13,-1
 1337.58180988 -5.99609375 l 1,14,-1
 804.652463289 0.00390625 l 1,15,-1
 763.13682009 0.470703125 l 1,16,-1
 752.770634591 38.265625 l 1,17,-1
 0.435546875 2734.53808594 l 1,18,-1
 -16 2796 l 1,0,-1
EndSplineSet
EndChar

StartChar: W
Encoding: 87 87 58
Width: 3132
GlyphClass: 2
Flags: W
LayerCount: 2
Fore
SplineSet
10 2796 m 1,0,-1
 73.12109375 2796 l 1,1,-1
 553.600783321 2796 l 1,2,-1
 597.906101264 2796 l 1,3,-1
 605.797160757 2754.08300781 l 1,4,-1
 951.554358733 917.381835938 l 1,5,-1
 1351.43169096 2755.44140625 l 1,6,-1
 1360.25517324 2796 l 1,7,-1
 1403.35281069 2796 l 1,8,-1
 1821.46825133 2796 l 1,9,-1
 1864.65425564 2796 l 1,10,-1
 1873.41070099 2755.34082031 l 1,11,-1
 2270.5496761 911.286132812 l 1,12,-1
 2633.66334526 2754.49121094 l 1,13,-1
 2641.84083529 2796 l 1,14,-1
 2685.78151295 2796 l 1,15,-1
 3085.12109375 2796 l 1,16,-1
 3147.91210938 2796 l 1,17,-1
 3135.03710938 2736.73242188 l 1,18,-1
 2533.84129032 34.54296875 l 1,19,-1
 2525.00765093 -6 l 1,20,-1
 2481.92423343 -6 l 1,21,-1
 2047.16738222 -6 l 1,22,-1
 2004.33179823 -6 l 1,23,-1
 1995.31228371 34.2607421875 l 1,24,-1
 1587.86180956 1852.95214844 l 1,25,-1
 1186.90172931 34.423828125 l 1,26,-1
 1177.98886446 -6 l 1,27,-1
 1135.0100652 -6 l 1,28,-1
 691.932508706 -6 l 1,29,-1
 649.073563362 -6 l 1,30,-1
 640.071315931 34.287109375 l 1,31,-1
 23.2587890625 2736.48535156 l 1,32,-1
 10 2796 l 1,0,-1
EndSplineSet
EndChar

StartChar: X
Encoding: 88 88 59
Width: 2061
GlyphClass: 2
Flags: W
LayerCount: 2
Fore
SplineSet
-57 0 m 1,0,-1
 -18.6279296875 71.763671875 l 1,1,-1
 749.370692046 1446.8671875 l 1,2,-1
 70.8515625 2725.23730469 l 1,3,-1
 35.1044921875 2796 l 1,4,-1
 116.696289062 2796 l 1,5,-1
 658.093226968 2796 l 1,6,-1
 693.112029925 2796 l 1,7,-1
 707.484196346 2765.93066406 l 1,8,-1
 1086.60634851 1972.71484375 l 1,9,-1
 1510.25234803 2767.86914062 l 1,10,-1
 1525.24055333 2796 l 1,11,-1
 1558.66325554 2796 l 1,12,-1
 2012.69628906 2796 l 1,13,-1
 2095.91503906 2796 l 1,14,-1
 2058.13964844 2724.45898438 l 1,15,-1
 1390.77710312 1520.88183594 l 1,16,-1
 2146.64453125 70.556640625 l 1,17,-1
 2181.86816406 0 l 1,18,-1
 2100.69628906 0 l 1,19,-1
 1558.66325554 0 l 1,20,-1
 1523.43495788 0 l 1,21,-1
 1509.15301938 30.3232421875 l 1,22,-1
 1051.12603494 1002.76855469 l 1,23,-1
 530.183227447 28.0732421875 l 1,24,-1
 515.178428502 -0 l 1,25,-1
 481.802395903 0 l 1,26,-1
 26.6962890625 0 l 1,27,-1
 -57 0 l 1,0,-1
EndSplineSet
EndChar

StartChar: Y
Encoding: 89 89 60
Width: 1918
GlyphClass: 2
Flags: W
LayerCount: 2
Fore
SplineSet
-133 2796 m 1,0,-1
 -53.3779296875 2796 l 1,1,-1
 469.394380176 2796 l 1,2,-1
 504.70496536 2796 l 1,3,-1
 518.947620343 2765.57226562 l 1,4,-1
 1015.56675682 1704.61816406 l 1,5,-1
 1520.04190743 2765.83886719 l 1,6,-1
 1534.37892583 2796 l 1,7,-1
 1569.46863839 2796 l 1,8,-1
 2028.62207031 2796 l 1,9,-1
 2109.73144531 2796 l 1,10,-1
 2074.5859375 2725.52050781 l 1,11,-1
 1268.96572809 1179.4453125 l 1,12,-1
 1268.96572809 51 l 1,13,-1
 1268.96572809 0 l 1,14,-1
 1214.81149337 0 l 1,15,-1
 725.299685417 0 l 1,16,-1
 671.145450698 0 l 1,17,-1
 671.145450698 51 l 1,18,-1
 671.145450698 1179.87695312 l 1,19,-1
 -99.705078125 2726.26464844 l 1,20,-1
 -133 2796 l 1,0,-1
EndSplineSet
EndChar

StartChar: Z
Encoding: 90 90 61
Width: 1989
GlyphClass: 2
Flags: W
LayerCount: 2
Fore
SplineSet
2 0 m 1,0,-1
 2 51 l 1,1,-1
 2 393.56640625 l 1,2,-1
 2 407.004882812 l 1,3,-1
 9.189453125 418.548828125 l 1,4,-1
 1259.07868573 2315 l 1,5,-1
 129 2315 l 1,6,-1
 78 2315 l 1,7,-1
 78 2366 l 1,8,-1
 78 2745 l 1,9,-1
 78 2796 l 1,10,-1
 129 2796 l 1,11,-1
 1908 2796 l 1,12,-1
 1959 2796 l 1,13,-1
 1959 2745 l 1,14,-1
 1959 2435.02734375 l 1,15,-1
 1959 2421.63183594 l 1,16,-1
 1951.85058594 2410.11328125 l 1,17,-1
 688.609754078 491 l 1,18,-1
 1941 491 l 1,19,-1
 1992 491 l 1,20,-1
 1992 440 l 1,21,-1
 1992 51 l 1,22,-1
 1992 0 l 1,23,-1
 1941 0 l 1,24,-1
 53 0 l 1,25,-1
 2 0 l 1,0,-1
EndSplineSet
EndChar

StartChar: bracketleft
Encoding: 91 91 62
Width: 1071
GlyphClass: 2
Flags: W
LayerCount: 2
Fore
SplineSet
301 -700 m 1,0,-1
 301 2796 l 1,1,-1
 1026 2796 l 1,2,-1
 1026 2560 l 1,3,-1
 698 2560 l 1,4,-1
 698 -465 l 1,5,-1
 1026 -465 l 1,6,-1
 1026 -700 l 1,7,-1
 301 -700 l 1,0,-1
EndSplineSet
EndChar

StartChar: backslash
Encoding: 92 92 63
Width: 2000
GlyphClass: 2
Flags: W
LayerCount: 2
Fore
SplineSet
201 2796 m 1,0,-1
 520 2796 l 1,1,-1
 2064 -700 l 1,2,-1
 1745 -700 l 1,3,-1
 201 2796 l 1,0,-1
EndSplineSet
EndChar

StartChar: bracketright
Encoding: 93 93 64
Width: 1071
GlyphClass: 2
Flags: W
LayerCount: 2
Fore
SplineSet
45 -465 m 1,0,-1
 375 -465 l 1,1,-1
 375 2560 l 1,2,-1
 45 2560 l 1,3,-1
 45 2796 l 1,4,-1
 770 2796 l 1,5,-1
 770 -700 l 1,6,-1
 45 -700 l 1,7,-1
 45 -465 l 1,0,-1
EndSplineSet
EndChar

StartChar: asciicircum
Encoding: 94 94 65
Width: 2097
GlyphClass: 2
Flags: W
LayerCount: 2
Fore
SplineSet
45 1440 m 1,0,-1
 737 2810 l 1,1,-1
 1362 2810 l 1,2,-1
 2054 1440 l 1,3,-1
 1554 1440 l 1,4,-1
 1049 2431 l 1,5,-1
 545 1440 l 1,6,-1
 45 1440 l 1,0,-1
EndSplineSet
EndChar

StartChar: underscore
Encoding: 95 95 66
Width: 2097
GlyphClass: 2
Flags: W
LayerCount: 2
Fore
SplineSet
0 -219 m 1,0,-1
 2097 -219 l 1,1,-1
 2097 -645 l 1,2,-1
 0 -645 l 1,3,-1
 0 -219 l 1,0,-1
EndSplineSet
EndChar

StartChar: grave
Encoding: 96 96 67
Width: 2097
GlyphClass: 2
Flags: W
LayerCount: 2
Fore
SplineSet
485 2771 m 1,0,-1
 707 3049 l 1,1,-1
 1364 2474 l 1,2,-1
 1208 2316 l 1,3,-1
 485 2771 l 1,0,-1
EndSplineSet
EndChar

StartChar: a
Encoding: 97 97 68
Width: 2133
GlyphClass: 2
Flags: W
LayerCount: 2
Fore
SplineSet
320.768554688 118.348632812 m 0,0,1
 147 287.504882812 147 287.504882812 147 574.870117188 c 0,2,3
 147 923.65234375 147 923.65234375 397.982885471 1127.88476562 c 0,4,5
 665.413977342 1329 665.413977342 1329 1307.73736092 1329 c 0,6,7
 1324.06615442 1329 1324.06615442 1329 1350.00510122 1328.46777344 c 1,8,-1
 1350.00510122 1356.2890625 l 2,9,10
 1350.00510122 1393.56933594 1350.00510122 1393.56933594 1347.14851491 1427.36621094 c 128,-1,11
 1344.29087021 1461.16308594 1344.29087021 1461.16308594 1338.89521365 1490.02832031 c 128,-1,12
 1333.49849871 1518.89355469 1333.49849871 1518.89355469 1325.59234837 1544.078125 c 128,-1,13
 1317.68513964 1569.26269531 1317.68513964 1569.26269531 1307.71936834 1589.80761719 c 128,-1,14
 1297.75359704 1610.3515625 1297.75359704 1610.3515625 1285.62448286 1627.01757812 c 0,15,16
 1257.82277507 1665.21972656 1257.82277507 1665.21972656 1207.22235449 1684.609375 c 128,-1,17
 1156.62299229 1704 1156.62299229 1704 1074.72289513 1704 c 2,18,-1
 1072.5553187 1704 l 2,19,20
 985.146317586 1704 985.146317586 1704 924.030822889 1675.45019531 c 128,-1,21
 862.916386578 1646.89941406 862.916386578 1646.89941406 823.133738777 1584.73144531 c 128,-1,22
 783.352149362 1522.56445312 783.352149362 1522.56445312 765.05898972 1423.43945312 c 2,23,-1
 756.193940822 1375.39941406 l 1,24,-1
 703.779445049 1381.38671875 l 1,25,-1
 267.734375 1432.38671875 l 1,26,-1
 215.875 1438.80566406 l 1,27,-1
 223.553710938 1490.49414062 l 2,28,29
 245.422851562 1637.71191406 245.422851562 1637.71191406 314.762695312 1754.63671875 c 128,-1,30
 384.102539062 1871.56054688 384.102539062 1871.56054688 508.130271322 1954.39550781 c 0,31,32
 631.550887622 2036.34570312 631.550887622 2036.34570312 782.680073663 2077.17285156 c 128,-1,33
 933.809259705 2118 933.809259705 2118 1110.48790616 2118 c 0,34,35
 1429.72492132 2118 1429.72492132 2118 1624.16647556 2002.86132812 c 0,36,37
 1813.04492188 1886.00976562 1813.04492188 1886.00976562 1861.109375 1722.3125 c 0,38,39
 1906 1569.42675781 1906 1569.42675781 1906 1266.02929688 c 2,40,-1
 1906 593.421875 l 2,41,42
 1906 394.255859375 1906 394.255859375 1915.26660156 258.599609375 c 128,-1,43
 1924.53320312 122.942382812 1924.53320312 122.942382812 1941.37402344 60.8447265625 c 2,44,-1
 1957.875 -0 l 1,45,-1
 1892 0 l 1,46,-1
 1469.22180465 0 l 1,47,-1
 1425.58239489 0 l 1,48,-1
 1415.45680716 39.1669921875 l 2,49,50
 1397.33722297 109.2578125 1397.33722297 109.2578125 1390.29894991 219.58203125 c 1,51,52
 1171.46898571 -51 1171.46898571 -51 810.278571165 -51 c 0,53,54
 503.27862565 -51 503.27862565 -51 320.768554688 118.348632812 c 0,0,1
852.54631147 877.891601562 m 128,-1,56
 721.407937701 790.784179688 721.407937701 790.784179688 721.407937701 610.115234375 c 0,57,58
 721.407937701 478.5859375 721.407937701 478.5859375 779.700714464 421.489257812 c 128,-1,59
 837.994549615 364.392578125 837.994549615 364.392578125 965.360832377 364 c 0,60,61
 1112.2734049 364 1112.2734049 364 1227.97203018 502.733398438 c 0,62,63
 1350.00510122 649.060546875 1350.00510122 649.060546875 1350.00510122 911.537109375 c 2,64,-1
 1350.00510122 961.626953125 l 1,65,66
 1299.69256189 965 1299.69256189 965 1269.80477346 965 c 0,67,55
 983.68468524 965 983.68468524 965 852.54631147 877.891601562 c 128,-1,56
EndSplineSet
EndChar

StartChar: b
Encoding: 98 98 69
Width: 2204
GlyphClass: 2
Flags: W
LayerCount: 2
Fore
SplineSet
250 0 m 1,0,-1
 250 51 l 1,1,-1
 250 2745 l 1,2,-1
 250 2796 l 1,3,-1
 301 2796 l 1,4,-1
 744.268945512 2796 l 1,5,-1
 799.555789959 2796 l 1,6,-1
 799.555789959 2745 l 1,7,-1
 799.555789959 1924.71972656 l 1,8,9
 991.386022695 2105 991.386022695 2105 1265.69977255 2105 c 0,10,11
 1391.21416373 2105 1391.21416373 2105 1500.77472628 2071.38769531 c 0,12,13
 1610.33634748 2039.32226562 1610.33634748 2039.32226562 1701.82260903 1976.04296875 c 128,-1,14
 1793.30887059 1912.76367188 1793.30887059 1912.76367188 1861.19726562 1819.30273438 c 0,15,16
 2057 1544.11035156 2057 1544.11035156 2057 1083.64941406 c 0,17,18
 2057 532.249023438 2057 532.249023438 1852.5 244.625 c 0,19,20
 1634.27873554 -43 1634.27873554 -43 1191.98397996 -43 c 0,21,22
 1016.39023492 -43 1016.39023492 -43 881.013476962 20.3896484375 c 128,-1,23
 745.636719008 83.7802734375 745.636719008 83.7802734375 658.055810722 208.0390625 c 1,24,25
 628.989565296 129.879882812 628.989565296 129.879882812 600.118111141 36.9501953125 c 2,26,-1
 588.639188532 0 l 1,27,-1
 546.970794739 0 l 1,28,-1
 301 0 l 1,29,-1
 250 0 l 1,0,-1
799.555789959 1245.62695312 m 2,30,-1
 799.555789959 885.674804688 l 2,31,32
 799.555789959 620.349609375 799.555789959 620.349609375 885.196196064 500.674804688 c 128,-1,33
 970.836602169 381 970.836602169 381 1137.78119128 381 c 2,34,-1
 1138.86524706 381 l 2,35,36
 1225.77391373 381 1225.77391373 381 1285.72727951 414.643554688 c 128,-1,37
 1345.6806453 448.286132812 1345.6806453 448.286132812 1386.60692669 521.16796875 c 0,38,39
 1474.92253684 678.44140625 1474.92253684 678.44140625 1474.92253684 1061.01171875 c 0,40,41
 1474.92253684 1427.640625 1474.92253684 1427.640625 1388.24889007 1566.06933594 c 0,42,43
 1361.38145699 1608.97949219 1361.38145699 1608.97949219 1326.90340188 1636.29980469 c 128,-1,44
 1292.42640542 1663.62011719 1292.42640542 1663.62011719 1248.49250445 1676.80957031 c 128,-1,45
 1204.55966212 1690 1204.55966212 1690 1148.62174902 1690 c 0,46,47
 1076.05988298 1690 1076.05988298 1690 1016.35741682 1662.38378906 c 128,-1,48
 956.654950664 1634.76855469 956.654950664 1634.76855469 905.053260657 1575.8203125 c 0,49,50
 853.004821103 1516.36230469 853.004821103 1516.36230469 826.280305531 1434.14453125 c 128,-1,51
 799.555789959 1351.92578125 799.555789959 1351.92578125 799.555789959 1245.62695312 c 2,30,-1
EndSplineSet
EndChar

StartChar: c
Encoding: 99 99 70
Width: 1918
GlyphClass: 2
Flags: W
LayerCount: 2
Fore
SplineSet
350.099609375 244.2734375 m 0,0,1
 150 530.193359375 150 530.193359375 150 1028.24707031 c 0,2,3
 150 1288.78417969 150 1288.78417969 203.5546875 1489.70800781 c 128,-1,4
 257.109375 1690.63183594 257.109375 1690.63183594 366.506835938 1831.79980469 c 0,5,6
 605.341059773 2118 605.341059773 2118 1063.32681599 2118 c 0,7,8
 1431.52997319 2117.46972656 1431.52997319 2117.46972656 1645.73961875 1915.7890625 c 0,9,10
 1842.88085938 1714.10839844 1842.88085938 1714.10839844 1889.63183594 1327.11621094 c 2,11,-1
 1895.81835938 1275.90234375 l 1,12,-1
 1844.53710938 1270.30175781 l 1,13,-1
 1413.28240219 1225.30175781 l 1,14,-1
 1358.40043532 1219.79492188 l 1,15,-1
 1352.10318432 1270.18261719 l 2,16,17
 1336.16977865 1397.67089844 1336.16977865 1397.67089844 1309.07374085 1483.45800781 c 128,-1,18
 1281.97770305 1569.24609375 1281.97770305 1569.24609375 1250.22463341 1605.56152344 c 0,19,20
 1186.88538616 1678 1186.88538616 1678 1066.54878894 1678 c 0,21,22
 1030.91043024 1678 1030.91043024 1678 1000.2565094 1672.89257812 c 128,-1,23
 969.602588571 1667.78515625 969.602588571 1667.78515625 942.850964903 1657.31347656 c 128,-1,24
 916.099341236 1646.84179688 916.099341236 1646.84179688 893.298913037 1630.640625 c 128,-1,25
 870.498484839 1614.43945312 870.498484839 1614.43945312 851.140071956 1592.49707031 c 128,-1,26
 831.781659074 1570.5546875 831.781659074 1570.5546875 815.340136255 1542.26074219 c 0,27,28
 726.930941754 1390.11425781 726.930941754 1390.11425781 726.930941754 992.814453125 c 0,29,30
 726.930941754 403 726.930941754 403 1066.54878894 403 c 0,31,32
 1190.68563469 403 1190.68563469 403 1262.52574558 497.565429688 c 128,-1,33
 1334.36585648 592.131835938 1334.36585648 592.131835938 1351.89908706 804.850585938 c 2,34,-1
 1356.15005038 856.421875 l 1,35,-1
 1412.22045861 851.795898438 l 1,36,-1
 1843.56152344 814.795898438 l 1,37,-1
 1895.38085938 810.141601562 l 1,38,-1
 1889.69433594 758.42578125 l 2,39,40
 1846.05175781 361.486328125 1846.05175781 361.486328125 1641.27711711 155.243164062 c 0,41,42
 1419.15338755 -51 1419.15338755 -51 1032.80470797 -51 c 0,43,44
 570.995317077 -51 570.995317077 -51 350.099609375 244.2734375 c 0,0,1
EndSplineSet
EndChar

StartChar: d
Encoding: 100 100 71
Width: 2204
GlyphClass: 2
Flags: W
LayerCount: 2
Fore
SplineSet
329.748046875 269.587890625 m 0,0,1
 147 560.29296875 147 560.29296875 147 1026.31933594 c 0,2,3
 147 1527.24609375 147 1527.24609375 349.864257812 1810.70703125 c 0,4,5
 572.990835302 2103 572.990835302 2103 950.118242799 2103 c 0,6,7
 1240.53988872 2103 1240.53988872 2103 1407.50230172 1941.40332031 c 1,8,-1
 1407.50230172 2745 l 1,9,-1
 1407.50230172 2796 l 1,10,-1
 1462.77857425 2796 l 1,11,-1
 1906 2796 l 1,12,-1
 1957 2796 l 1,13,-1
 1957 2745 l 1,14,-1
 1957 51 l 1,15,-1
 1957 0 l 1,16,-1
 1906 0 l 1,17,-1
 1498.54557412 0 l 1,18,-1
 1443.26930159 0 l 1,19,-1
 1443.26930159 51 l 1,20,-1
 1443.26930159 175.875976562 l 1,21,22
 1261.44525136 -37 1261.44525136 -37 941.447454952 -37 c 0,23,24
 738.733918766 -37 738.733918766 -37 582.61739969 43.310546875 c 0,25,26
 426.500880615 119.83203125 426.500880615 119.83203125 329.748046875 269.587890625 c 0,0,1
1060.67078785 1690 m 0,27,28
 730.097001184 1690 730.097001184 1690 730.097001184 1061.22167969 c 0,29,30
 730.097001184 387 730.097001184 387 1066.09003025 387 c 0,31,32
 1191.75400573 387 1191.75400573 387 1298.26222944 490.580078125 c 0,33,34
 1407.50230172 596.817382812 1407.50230172 596.817382812 1407.50230172 874.813476562 c 2,35,-1
 1407.50230172 1204.04101562 l 2,36,37
 1407.50230172 1481.06542969 1407.50230172 1481.06542969 1291.46383219 1586.09863281 c 0,38,39
 1176.67538712 1690 1176.67538712 1690 1060.67078785 1690 c 0,27,28
EndSplineSet
EndChar

StartChar: e
Encoding: 101 101 72
Width: 2061
GlyphClass: 2
Flags: W
LayerCount: 2
Fore
SplineSet
384.796875 222.516601562 m 0,0,1
 150 492.020507812 150 492.020507812 150 1005.32519531 c 0,2,3
 150 1530.06542969 150 1530.06542969 385.653320312 1821.15527344 c 0,4,5
 645.271312736 2118 645.271312736 2118 1081.02083376 2118 c 0,6,7
 1386.66564953 2118 1386.66564953 2118 1597.48842785 1967.60839844 c 0,8,9
 1799.09472656 1818.703125 1799.09472656 1818.703125 1877.20214844 1577.63964844 c 0,10,11
 1952.87890625 1344.07910156 1952.87890625 1344.07910156 1958.99414062 969.68359375 c 2,12,-1
 1959.80566406 920 l 1,13,-1
 1908 920 l 1,14,-1
 712.989394017 920 l 1,15,16
 716.532055839 754.40234375 716.532055839 754.40234375 745.69894833 644.077148438 c 128,-1,17
 774.86689928 533.751953125 774.86689928 533.751953125 823.247995552 483.19921875 c 0,18,19
 877.706762628 426.297851562 877.706762628 426.297851562 943.06448064 399.149414062 c 128,-1,20
 1008.42114019 372 1008.42114019 372 1089.69172879 372 c 0,21,22
 1142.41356486 372 1142.41356486 372 1186.58411177 384.2421875 c 128,-1,23
 1230.75465868 396.484375 1230.75465868 396.484375 1268.78931954 422.674804688 c 128,-1,24
 1306.82292194 448.865234375 1306.82292194 448.865234375 1336.81117852 489.439453125 c 128,-1,25
 1366.79943509 530.014648438 1366.79943509 530.014648438 1390.01037954 587.110351562 c 128,-1,26
 1413.22238246 644.205078125 1413.22238246 644.205078125 1428.89286596 717.828125 c 2,27,-1
 1438.88789302 764.788085938 l 1,28,-1
 1490.31946774 758.567382812 l 1,29,-1
 1896.62988281 707.567382812 l 1,30,-1
 1952.51757812 700.240234375 l 1,31,-1
 1939.65429688 645.361328125 l 2,32,33
 1859.36035156 302.809570312 1859.36035156 302.809570312 1648.00761103 125.905273438 c 0,34,35
 1424.46744944 -51 1424.46744944 -51 1074.51766249 -51 c 0,36,37
 642.154151377 -51 642.154151377 -51 384.796875 222.516601562 c 0,0,1
757.574856798 1428.57519531 m 128,-1,39
 737.492716748 1354.87011719 737.492716748 1354.87011719 727.75277827 1260 c 1,40,-1
 1395.51330718 1260 l 1,41,42
 1386.90803661 1493.99804688 1386.90803661 1493.99804688 1305.12092009 1598.99902344 c 128,-1,43
 1223.33380357 1704 1223.33380357 1704 1066.93062935 1704 c 2,44,-1
 1065.84676747 1704 l 2,45,46
 1008.68893029 1704 1008.68893029 1704 961.712408928 1688.50683594 c 128,-1,47
 914.734829111 1673.01367188 914.734829111 1673.01367188 875.334756311 1639.49511719 c 128,-1,48
 835.934683511 1605.97558594 835.934683511 1605.97558594 806.796369409 1554.12792969 c 128,-1,38
 777.656996849 1502.28027344 777.656996849 1502.28027344 757.574856798 1428.57519531 c 128,-1,39
EndSplineSet
EndChar

StartChar: f
Encoding: 102 102 73
Width: 1275
GlyphClass: 2
Flags: W
LayerCount: 2
Fore
SplineSet
41 1622 m 1,0,-1
 41 1673 l 1,1,-1
 41 2017 l 1,2,-1
 41 2068 l 1,3,-1
 92 2068 l 1,4,-1
 315.593494562 2068 l 1,5,6
 326.037866991 2406.44042969 326.037866991 2406.44042969 390.977759388 2545.81640625 c 0,7,8
 463.649200207 2701.78808594 463.649200207 2701.78808594 627.890681222 2790.00878906 c 0,9,10
 789.8407154 2877 789.8407154 2877 1060.07245275 2877 c 0,11,12
 1134.90820312 2877 1134.90820312 2877 1200.37011719 2870.765625 c 128,-1,13
 1265.83300781 2864.53125 1265.83300781 2864.53125 1329.76660156 2852.05566406 c 2,14,-1
 1371 2844.01074219 l 1,15,-1
 1371 2802 l 1,16,-1
 1371 2462 l 1,17,-1
 1371 2402.24511719 l 1,18,-1
 1311.98730469 2411.63378906 l 2,19,20
 1227.96875 2425 1227.96875 2425 1159 2425 c 0,21,22
 1038.99025241 2425 1038.99025241 2425 985.828908181 2388.72558594 c 0,23,24
 972.361515885 2379.53515625 972.361515885 2379.53515625 961.864888239 2369.59960938 c 128,-1,25
 951.368260594 2359.6640625 951.368260594 2359.6640625 943.484393776 2348.56054688 c 128,-1,26
 935.599415145 2337.45703125 935.599415145 2337.45703125 930.261600366 2325.23242188 c 128,-1,27
 924.923785587 2313.0078125 924.923785587 2313.0078125 921.770683585 2299.06445312 c 0,28,29
 917.78928081 2281.45507812 917.78928081 2281.45507812 914.615054359 2249.44238281 c 128,-1,30
 911.440827908 2217.4296875 911.440827908 2217.4296875 909.311705787 2170.55957031 c 128,-1,31
 907.182583667 2123.68847656 907.182583667 2123.68847656 906.621118042 2068 c 1,32,-1
 1253 2068 l 1,33,-1
 1304 2068 l 1,34,-1
 1304 2017 l 1,35,-1
 1304 1673 l 1,36,-1
 1304 1622 l 1,37,-1
 1253 1622 l 1,38,-1
 906.375407343 1622 l 1,39,-1
 906.375407343 51 l 1,40,-1
 906.375407343 0 l 1,41,-1
 848.312079079 0 l 1,42,-1
 372.420486639 0 l 1,43,-1
 314.357158375 0 l 1,44,-1
 314.357158375 51 l 1,45,-1
 314.357158375 1622 l 1,46,-1
 92 1622 l 1,47,-1
 41 1622 l 1,0,-1
EndSplineSet
EndChar

StartChar: g
Encoding: 103 103 74
Width: 2061
GlyphClass: 2
Flags: W
LayerCount: 2
Fore
SplineSet
333.856445312 -612 m 0,0,1
 113 -454.245117188 113 -454.245117188 113 -193 c 0,2,3
 113 -53.7001953125 113 -53.7001953125 175.150390625 50.8271484375 c 0,4,5
 237.301757812 150.439453125 237.301757812 150.439453125 356.881835938 209.138671875 c 1,6,7
 188.928710938 333.17578125 188.928710938 333.17578125 188 521.6484375 c 0,8,9
 188 648.088867188 188 648.088867188 254.984375 749.827148438 c 128,-1,10
 321.969726562 851.564453125 321.969726562 851.564453125 456.968356485 924.323242188 c 1,11,12
 227.942382812 1104.34667969 227.942382812 1104.34667969 227 1423.2109375 c 0,13,14
 227 1733.30175781 227 1733.30175781 452.867024235 1926.41796875 c 0,15,16
 686.59157785 2118 686.59157785 2118 1050.56672554 2118 c 0,17,18
 1250.12469618 2118 1250.12469618 2118 1429.16342157 2050.21679688 c 1,19,20
 1471.23379928 2231.5859375 1471.23379928 2231.5859375 1567.4551856 2312.37695312 c 0,21,22
 1681.34029998 2408 1681.34029998 2408 1886 2408 c 0,23,24
 1913.6796875 2408 1913.6796875 2408 1946.89355469 2405.38378906 c 128,-1,25
 1980.10742188 2402.76757812 1980.10742188 2402.76757812 2019.65332031 2397.56445312 c 2,26,-1
 2064 2391.72949219 l 1,27,-1
 2064 2347 l 1,28,-1
 2064 2034 l 1,29,-1
 2064 1971.58300781 l 1,30,-1
 2002.83496094 1984.0234375 l 2,31,32
 1948.86621094 1995 1948.86621094 1995 1914 1995 c 0,33,34
 1842.99609375 1995 1842.99609375 1995 1800.02515808 1959.02929688 c 128,-1,35
 1756.99944577 1923.05957031 1756.99944577 1923.05957031 1737.95462475 1838.50683594 c 1,36,37
 1778.92180595 1789.44824219 1778.92180595 1789.44824219 1809.71692813 1737.22070312 c 128,-1,38
 1840.51309898 1684.99316406 1840.51309898 1684.99316406 1859.74023438 1629.83398438 c 128,-1,39
 1878.84960938 1574.67578125 1878.84960938 1574.67578125 1888.42480469 1516.59765625 c 128,-1,40
 1898 1458.52050781 1898 1458.52050781 1898 1397.68847656 c 0,41,42
 1898 1253.51171875 1898 1253.51171875 1845.24707031 1130.11816406 c 0,43,44
 1788.82226051 1006.72558594 1788.82226051 1006.72558594 1676.96421727 907.8203125 c 0,45,46
 1564.40776256 808.296875 1564.40776256 808.296875 1412.99299373 758.6484375 c 128,-1,47
 1261.57927356 709 1261.57927356 709 1075.26490431 709 c 0,48,49
 942.232199655 709 942.232199655 709 797.465972493 743.400390625 c 1,50,51
 733.549787213 718.67578125 733.549787213 718.67578125 707.358308238 688.806640625 c 0,52,53
 681.167877928 660.091796875 681.167877928 660.091796875 681.167877928 621.701171875 c 0,54,55
 681.167877928 584.8203125 681.167877928 584.8203125 693.655391206 567.142578125 c 128,-1,56
 706.142904485 549.46484375 706.142904485 549.46484375 734.420179892 540.380859375 c 0,57,58
 815.810284701 514.236328125 815.810284701 514.236328125 1189.82850551 496.787109375 c 0,59,60
 1357.53534742 489.146484375 1357.53534742 489.146484375 1483.81464382 475.564453125 c 128,-1,61
 1610.09498888 461.982421875 1610.09498888 461.982421875 1698.04974208 441.775390625 c 0,62,63
 1881.35449219 398.998046875 1881.35449219 398.998046875 1985.03320312 267.140625 c 0,64,65
 2088 136.188476562 2088 136.188476562 2088 -72 c 0,66,67
 2088 -240.640625 2088 -240.640625 2020.90527344 -372.350585938 c 128,-1,68
 1953.80957031 -504.059570312 1953.80957031 -504.059570312 1820.36613013 -592.380859375 c 0,69,70
 1545.06092577 -764 1545.06092577 -764 1044.12372238 -764 c 0,71,72
 560.529355293 -764 560.529355293 -764 333.856445312 -612 c 0,0,1
655.284706721 -4.5634765625 m 128,-1,74
 619.959347946 -55.9189453125 619.959347946 -55.9189453125 619.959347946 -127 c 0,75,76
 619.959347946 -189.06640625 619.959347946 -189.06640625 643.521821564 -230.649414062 c 128,-1,77
 667.084295183 -272.232421875 667.084295183 -272.232421875 716.713456538 -300.487304688 c 0,78,79
 826.516114653 -363 826.516114653 -363 1096.74158149 -363 c 0,80,81
 1348.01870458 -363 1348.01870458 -363 1459.16050902 -303 c 128,-1,82
 1570.30231346 -243 1570.30231346 -243 1570.30231346 -129 c 0,83,84
 1570.30231346 -19.9931640625 1570.30231346 -19.9931640625 1498.04608845 17.4296875 c 0,85,86
 1458.18629842 38.0732421875 1458.18629842 38.0732421875 1362.78182281 52.921875 c 128,-1,87
 1267.37734721 67.771484375 1267.37734721 67.771484375 1128.18373052 72.029296875 c 0,88,89
 893.929600637 79.583984375 893.929600637 79.583984375 768.243849129 85.376953125 c 1,90,73
 690.60901683 46.7919921875 690.60901683 46.7919921875 655.284706721 -4.5634765625 c 128,-1,74
867.478052523 1657.07617188 m 128,-1,92
 800.363436315 1579.15332031 800.363436315 1579.15332031 800.363436315 1401.96972656 c 0,93,94
 800.363436315 1230.56933594 800.363436315 1230.56933594 864.748375242 1155.78417969 c 128,-1,95
 929.13331417 1081 929.13331417 1081 1062.28451806 1081 c 0,96,97
 1192.25197235 1081.38671875 1192.25197235 1081.38671875 1255.63858136 1157.21972656 c 128,-1,98
 1319.02519038 1233.05175781 1319.02519038 1233.05175781 1319.02519038 1406.60839844 c 0,99,100
 1319.02519038 1582.86425781 1319.02519038 1582.86425781 1258.35357732 1658.93164062 c 128,-1,101
 1197.68196427 1735 1197.68196427 1735 1074.19107045 1735 c 2,102,-1
 1073.11723659 1735 l 2,103,91
 934.592668732 1735 934.592668732 1735 867.478052523 1657.07617188 c 128,-1,92
EndSplineSet
EndChar

StartChar: h
Encoding: 104 104 75
Width: 2133
GlyphClass: 2
Flags: W
LayerCount: 2
Fore
SplineSet
250 0 m 1,0,-1
 250 51 l 1,1,-1
 250 2745 l 1,2,-1
 250 2796 l 1,3,-1
 301 2796 l 1,4,-1
 751.647246973 2796 l 1,5,-1
 807.599268906 2796 l 1,6,-1
 807.599268906 2745 l 1,7,-1
 807.599268906 1923.50390625 l 1,8,9
 985.076374015 2118 985.076374015 2118 1292.51679232 2118 c 0,10,11
 1344.72860844 2118 1344.72860844 2118 1393.33307051 2112.42871094 c 128,-1,12
 1441.93753257 2106.85839844 1441.93753257 2106.85839844 1487.14248933 2095.65136719 c 128,-1,13
 1532.34637469 2084.44433594 1532.34637469 2084.44433594 1573.93969186 2067.31933594 c 128,-1,14
 1615.53300902 2050.19433594 1615.53300902 2050.19433594 1652.44921875 2027.32714844 c 0,15,16
 1788.42089844 1940.42285156 1788.42089844 1940.42285156 1842.55664062 1795.53808594 c 0,17,18
 1894 1657.859375 1894 1657.859375 1894 1290.05175781 c 2,19,-1
 1894 51 l 1,20,-1
 1894 0 l 1,21,-1
 1843 0 l 1,22,-1
 1394.54694997 0 l 1,23,-1
 1338.59492803 0 l 1,24,-1
 1338.59492803 51 l 1,25,-1
 1338.59492803 1276.953125 l 2,26,27
 1338.59492803 1326.21191406 1338.59492803 1326.21191406 1335.90039419 1370.75683594 c 128,-1,28
 1333.20693174 1415.30175781 1333.20693174 1415.30175781 1328.45105273 1450.0234375 c 128,-1,29
 1323.69624511 1484.74511719 1323.69624511 1484.74511719 1317.47042557 1513.72558594 c 128,-1,30
 1311.24460604 1542.70605469 1311.24460604 1542.70605469 1303.89811756 1563.34570312 c 128,-1,31
 1296.55162908 1583.98535156 1296.55162908 1583.98535156 1288.97586416 1597.69042969 c 128,-1,32
 1281.40117063 1611.39453125 1281.40117063 1611.39453125 1273.66469792 1618.07421875 c 0,33,34
 1240.55996589 1646.65625 1240.55996589 1646.65625 1201.61297023 1660.328125 c 128,-1,35
 1162.66704596 1674 1162.66704596 1674 1113.68974183 1674 c 0,36,37
 964.484350011 1674 964.484350011 1674 886.041809459 1553.56835938 c 128,-1,38
 807.599268906 1433.13769531 807.599268906 1433.13769531 807.599268906 1164.98925781 c 2,39,-1
 807.599268906 51 l 1,40,-1
 807.599268906 0 l 1,41,-1
 751.647246973 0 l 1,42,-1
 301 0 l 1,43,-1
 250 0 l 1,0,-1
EndSplineSet
EndChar

StartChar: i
Encoding: 105 105 76
Width: 1031
GlyphClass: 2
Flags: W
LayerCount: 2
Fore
SplineSet
242 2245 m 1,0,-1
 242 2296 l 1,1,-1
 242 2749 l 1,2,-1
 242 2800 l 1,3,-1
 293 2800 l 1,4,-1
 739 2800 l 1,5,-1
 790 2800 l 1,6,-1
 790 2749 l 1,7,-1
 790 2296 l 1,8,-1
 790 2245 l 1,9,-1
 739 2245 l 1,10,-1
 293 2245 l 1,11,-1
 242 2245 l 1,0,-1
252 0 m 1,12,-1
 252 51 l 1,13,-1
 252 2017 l 1,14,-1
 252 2068 l 1,15,-1
 303 2068 l 1,16,-1
 729 2068 l 1,17,-1
 780 2068 l 1,18,-1
 780 2017 l 1,19,-1
 780 51 l 1,20,-1
 780 0 l 1,21,-1
 729 0 l 1,22,-1
 303 0 l 1,23,-1
 252 0 l 1,12,-1
EndSplineSet
EndChar

StartChar: j
Encoding: 106 106 77
Width: 1133
GlyphClass: 2
Flags: W
LayerCount: 2
Fore
SplineSet
-106 -242.06640625 m 1,0,-1
 -42.9150390625 -257.452148438 l 2,1,2
 32.9970703125 -275.967773438 32.9970703125 -275.967773438 98.3828125 -277 c 0,3,4
 139.931288904 -276.89453125 139.931288904 -276.89453125 175.119987695 -269.553710938 c 128,-1,5
 210.3074696 -262.213867188 210.3074696 -262.213867188 226.234076433 -251.92578125 c 128,-1,6
 242.160683266 -241.637695312 242.160683266 -241.637695312 250.328423567 -227.071289062 c 0,7,8
 266.761255067 -197.765625 266.761255067 -197.765625 278.1756478 -103.239257812 c 0,9,10
 289.590040533 -13.05078125 289.590040533 -13.05078125 289.590040533 120.248046875 c 2,11,-1
 289.590040533 2017 l 1,12,-1
 289.590040533 2068 l 1,13,-1
 353.140706427 2068 l 1,14,-1
 839 2068 l 1,15,-1
 890 2068 l 1,16,-1
 890 2017 l 1,17,-1
 890 105.2421875 l 2,18,19
 890 -203.540039062 890 -203.540039062 858.502929688 -354.033203125 c 0,20,21
 824.318359375 -524.3984375 824.318359375 -524.3984375 685.623046875 -634.012695312 c 0,22,23
 605.666500796 -689.310546875 605.666500796 -689.310546875 487.886517444 -716.155273438 c 128,-1,24
 370.106534091 -743 370.106534091 -743 223.547191662 -743 c 0,25,26
 82.7080078125 -743 82.7080078125 -743 -65.4716796875 -711.913085938 c 2,27,-1
 -106 -703.411132812 l 1,28,-1
 -106 -662 l 1,29,-1
 -106 -307 l 1,30,-1
 -106 -242.06640625 l 1,0,-1
277.129125651 2245 m 1,31,-1
 277.129125651 2296 l 1,32,-1
 277.129125651 2749 l 1,33,-1
 277.129125651 2800 l 1,34,-1
 340.679791546 2800 l 1,35,-1
 851 2800 l 1,36,-1
 902 2800 l 1,37,-1
 902 2749 l 1,38,-1
 902 2296 l 1,39,-1
 902 2245 l 1,40,-1
 851 2245 l 1,41,-1
 340.679791546 2245 l 1,42,-1
 277.129125651 2245 l 1,31,-1
EndSplineSet
EndChar

StartChar: k
Encoding: 107 107 78
Width: 1989
GlyphClass: 2
Flags: W
LayerCount: 2
Fore
SplineSet
250 0 m 1,0,-1
 250 51 l 1,1,-1
 250 2745 l 1,2,-1
 250 2796 l 1,3,-1
 301 2796 l 1,4,-1
 748.587970461 2796 l 1,5,-1
 803.871054381 2796 l 1,6,-1
 803.871054381 2745 l 1,7,-1
 803.871054381 1249.73242188 l 1,8,-1
 1427.86997209 2046.85839844 l 1,9,-1
 1444.41975253 2068 l 1,10,-1
 1472.68797161 2068 l 1,11,-1
 1920 2068 l 1,12,-1
 2021.82910156 2068 l 1,13,-1
 1960.84082031 1990.28808594 l 1,14,-1
 1413.77079556 1332.53808594 l 1,15,-1
 2026.703125 68.12890625 l 1,16,-1
 2058.06542969 -0 l 1,17,-1
 1980 0 l 1,18,-1
 1494.36761236 0 l 1,19,-1
 1456.92577186 0 l 1,20,-1
 1443.03195912 32.0751953125 l 1,21,-1
 1031.5422153 982.014648438 l 1,22,-1
 803.871054381 691.495117188 l 1,23,-1
 803.871054381 51 l 1,24,-1
 803.871054381 0 l 1,25,-1
 748.587970461 0 l 1,26,-1
 301 0 l 1,27,-1
 250 0 l 1,0,-1
EndSplineSet
EndChar

StartChar: l
Encoding: 108 108 79
Width: 1031
GlyphClass: 2
Flags: W
LayerCount: 2
Fore
SplineSet
252 0 m 1,0,-1
 252 51 l 1,1,-1
 252 2745 l 1,2,-1
 252 2796 l 1,3,-1
 303 2796 l 1,4,-1
 731 2796 l 1,5,-1
 782 2796 l 1,6,-1
 782 2745 l 1,7,-1
 782 51 l 1,8,-1
 782 0 l 1,9,-1
 731 0 l 1,10,-1
 303 0 l 1,11,-1
 252 0 l 1,0,-1
EndSplineSet
EndChar

StartChar: m
Encoding: 109 109 80
Width: 3132
GlyphClass: 2
Flags: W
LayerCount: 2
Fore
SplineSet
250 0 m 1,0,-1
 250 51 l 1,1,-1
 250 2017 l 1,2,-1
 250 2068 l 1,3,-1
 301 2068 l 1,4,-1
 705.955973249 2068 l 1,5,-1
 759.491703551 2068 l 1,6,-1
 759.491703551 2017 l 1,7,-1
 759.491703551 1896.19140625 l 1,8,9
 935.924656643 2118 935.924656643 2118 1241.31327627 2118 c 0,10,11
 1425.07581866 2118 1425.07581866 2118 1554.37079905 2043.50976562 c 128,-1,12
 1683.66475432 1969.01953125 1683.66475432 1969.01953125 1748.17436623 1823.72070312 c 1,13,14
 1806.6142581 1920.94921875 1806.6142581 1920.94921875 1887.14542961 1986.5859375 c 128,-1,15
 1967.67762624 2052.22363281 1967.67762624 2052.22363281 2068.19961187 2085.11132812 c 128,-1,16
 2168.72159751 2118 2168.72159751 2118 2287.88431766 2118 c 0,17,18
 2393.27561087 2118 2393.27561087 2118 2483.43468486 2095.60644531 c 128,-1,19
 2573.59375885 2073.21289062 2573.59375885 2073.21289062 2647.14183074 2027.79492188 c 0,20,21
 2788.12890625 1940.94921875 2788.12890625 1940.94921875 2842.95996094 1796.76464844 c 0,22,23
 2895 1659.91992188 2895 1659.91992188 2895 1295.77148438 c 2,24,-1
 2895 51 l 1,25,-1
 2895 0 l 1,26,-1
 2844 0 l 1,27,-1
 2404.40326009 0 l 1,28,-1
 2350.86752978 0 l 1,29,-1
 2350.86752978 51 l 1,30,-1
 2350.86752978 1249.66796875 l 2,31,32
 2350.86752978 1514.45410156 2350.86752978 1514.45410156 2303.62499511 1602.953125 c 0,33,34
 2284.7023533 1638.40039062 2284.7023533 1638.40039062 2246.33015935 1656.20019531 c 128,-1,35
 2207.95899053 1674 2207.95899053 1674 2139.87376918 1674 c 0,36,37
 2071.04636285 1674 2071.04636285 1674 2019.32304008 1647.68066406 c 128,-1,38
 1967.60074244 1621.36132812 1967.60074244 1621.36132812 1929.95945719 1564.83886719 c 128,-1,39
 1892.31817193 1508.31542969 1892.31817193 1508.31542969 1873.20588341 1414.73535156 c 128,-1,40
 1854.09359489 1321.15625 1854.09359489 1321.15625 1854.34987424 1191.37597656 c 2,41,-1
 1854.34987424 51 l 1,42,-1
 1854.34987424 0 l 1,43,-1
 1800.81414394 0 l 1,44,-1
 1351.53389748 0 l 1,45,-1
 1297.99816718 0 l 1,46,-1
 1297.99816718 51 l 1,47,-1
 1297.99816718 1236.49609375 l 2,48,49
 1297.99816718 1482.23535156 1297.99816718 1482.23535156 1277.308223 1550.37695312 c 0,50,51
 1259.47118051 1609.12011719 1259.47118051 1609.12011719 1212.34550921 1641.61132812 c 0,52,53
 1200.98310812 1649.44628906 1200.98310812 1649.44628906 1187.97129315 1655.35546875 c 128,-1,54
 1174.95947819 1661.26464844 1174.95947819 1661.26464844 1159.50993408 1665.48144531 c 128,-1,55
 1144.05936486 1669.69726562 1144.05936486 1669.69726562 1125.86558151 1671.84863281 c 128,-1,56
 1107.67179817 1674 1107.67179817 1674 1087.00440657 1674 c 0,57,58
 1005.54652895 1674 1005.54652895 1674 952.640220719 1648.88867188 c 128,-1,59
 899.732887374 1623.77832031 899.732887374 1623.77832031 866.9844874 1571.83105469 c 0,60,61
 794.132470217 1456.27148438 794.132470217 1456.27148438 794.132470217 1181.92480469 c 2,62,-1
 794.132470217 51 l 1,63,-1
 794.132470217 0 l 1,64,-1
 740.596739915 0 l 1,65,-1
 301 0 l 1,66,-1
 250 0 l 1,0,-1
EndSplineSet
EndChar

StartChar: n
Encoding: 110 110 81
Width: 2133
GlyphClass: 2
Flags: W
LayerCount: 2
Fore
SplineSet
252 0 m 1,0,-1
 252 51 l 1,1,-1
 252 2017 l 1,2,-1
 252 2068 l 1,3,-1
 303 2068 l 1,4,-1
 717.442997487 2068 l 1,5,-1
 773.39501942 2068 l 1,6,-1
 773.39501942 2017 l 1,7,-1
 773.39501942 1898.44335938 l 1,8,9
 953.7745071 2118 953.7745071 2118 1279.15741375 2118 c 0,10,11
 1527.79163989 2118 1527.79163989 2118 1680.49511719 2011.8515625 c 0,12,13
 1822.40820312 1905.66699219 1822.40820312 1905.66699219 1860.56933594 1755.38867188 c 0,14,15
 1878.74902344 1683.796875 1878.74902344 1683.796875 1887.37402344 1576.36621094 c 128,-1,16
 1896 1468.93457031 1896 1468.93457031 1896 1321.31445312 c 2,17,-1
 1896 51 l 1,18,-1
 1896 0 l 1,19,-1
 1845 0 l 1,20,-1
 1396.54694997 0 l 1,21,-1
 1340.59492803 0 l 1,22,-1
 1340.59492803 51 l 1,23,-1
 1340.59492803 1284.48046875 l 2,24,25
 1340.59492803 1527.44824219 1340.59492803 1527.44824219 1294.1343078 1609.234375 c 0,26,27
 1257.34293921 1674 1257.34293921 1674 1124.46652959 1674 c 0,28,29
 1048.73673642 1674 1048.73673642 1674 993.417903155 1650.375 c 128,-1,30
 938.099069889 1626.75 938.099069889 1626.75 896.744671632 1577.33691406 c 0,31,32
 856.647008243 1529.42578125 856.647008243 1529.42578125 833.122602882 1418.28222656 c 128,-1,33
 809.599268906 1307.13769531 809.599268906 1307.13769531 809.599268906 1141.46777344 c 2,34,-1
 809.599268906 51 l 1,35,-1
 809.599268906 0 l 1,36,-1
 753.647246973 0 l 1,37,-1
 303 0 l 1,38,-1
 252 0 l 1,0,-1
EndSplineSet
EndChar

StartChar: o
Encoding: 111 111 82
Width: 2133
GlyphClass: 2
Flags: W
LayerCount: 2
Fore
SplineSet
376.813476562 222.125 m 0,0,1
 150 490.520507812 150 490.520507812 150 1033.97753906 c 0,2,3
 150 1564.45117188 150 1564.45117188 368.692382812 1840.97363281 c 0,4,5
 603.16679367 2117.49511719 603.16679367 2117.49511719 1071.37797138 2118 c 0,6,7
 1501.1368651 2118 1501.1368651 2118 1752.32519531 1848.16308594 c 0,8,9
 1830.04980469 1758.26464844 1830.04980469 1758.26464844 1881.29589844 1638.7734375 c 128,-1,10
 1932.54101562 1519.28222656 1932.54101562 1519.28222656 1957.27050781 1373.87402344 c 128,-1,11
 1982 1228.46679688 1982 1228.46679688 1982 1054.03417969 c 0,12,13
 1982 512.500976562 1982 512.500976562 1763 230.75 c 0,14,15
 1528.16730185 -51 1528.16730185 -51 1059.50584588 -51 c 0,16,17
 625.072936937 -51 625.072936937 -51 376.813476562 222.125 c 0,0,1
1067.08235902 1694 m 0,18,19
 732.56154621 1694 732.56154621 1694 731.551062593 1033.96875 c 0,20,21
 731.551062593 683.072265625 731.551062593 683.072265625 817.599661733 519.22265625 c 0,22,23
 833.599337999 488.756835938 833.599337999 488.756835938 852.673801757 465.189453125 c 128,-1,24
 871.749322506 441.622070312 871.749322506 441.622070312 894.311857327 424.338867188 c 128,-1,25
 916.875449139 407.056640625 916.875449139 407.056640625 943.553907814 395.916992188 c 128,-1,26
 970.231309498 384.778320312 970.231309498 384.778320312 1000.79738192 379.388671875 c 128,-1,27
 1031.36239735 374 1031.36239735 374 1067.08235902 374 c 0,28,29
 1110.70015917 374 1110.70015917 374 1146.77104192 382.518554688 c 128,-1,30
 1182.84086769 391.038085938 1182.84086769 391.038085938 1213.51581021 409.047851562 c 128,-1,31
 1244.19075273 427.057617188 1244.19075273 427.057617188 1269.09875109 455.036132812 c 128,-1,32
 1294.00674945 483.013671875 1294.00674945 483.013671875 1314.36545756 521.940429688 c 0,33,34
 1356.84593514 603.1640625 1356.84593514 603.1640625 1379.18861578 732.072265625 c 128,-1,35
 1401.53129643 860.979492188 1401.53129643 860.979492188 1401.53129643 1034 c 0,36,37
 1401.53129643 1425.64746094 1401.53129643 1425.64746094 1303.82936896 1565.73144531 c 0,38,39
 1257.2731332 1632.484375 1257.2731332 1632.484375 1199.51596135 1663.2421875 c 128,-1,40
 1141.7598465 1694 1141.7598465 1694 1067.08235902 1694 c 0,18,19
EndSplineSet
EndChar

StartChar: p
Encoding: 112 112 83
Width: 2204
GlyphClass: 2
Flags: W
LayerCount: 2
Fore
SplineSet
250 -700 m 1,0,-1
 250 -649 l 1,1,-1
 250 2017 l 1,2,-1
 250 2068 l 1,3,-1
 301 2068 l 1,4,-1
 710.663216534 2068 l 1,5,-1
 765.950060982 2068 l 1,6,-1
 765.950060982 2017 l 1,7,-1
 765.950060982 1871.11523438 l 1,8,9
 952.520929379 2103 952.520929379 2103 1263.53166101 2103 c 2,10,-1
 1265.69977255 2103 l 2,11,12
 1387.39350231 2103 1387.39350231 2103 1494.98815513 2069.56835938 c 0,13,14
 1602.58174929 2037.68261719 1602.58174929 2037.68261719 1693.75994422 1975.04785156 c 128,-1,15
 1784.93708049 1912.41308594 1784.93708049 1912.41308594 1855.20507812 1819.95898438 c 0,16,17
 2057 1546.51464844 2057 1546.51464844 2057 1049.47070312 c 0,18,19
 2057 604.90625 2057 604.90625 1875.66503906 291.12890625 c 0,20,21
 1696.14296135 -4.0673828125 1696.14296135 -4.0673828125 1324.73529034 -33.69921875 c 0,22,23
 1284.70462533 -36.9560546875 1284.70462533 -36.9560546875 1244.01865709 -37 c 0,24,25
 978.141274861 -37 978.141274861 -37 799.555789959 123.533203125 c 1,26,-1
 799.555789959 -649 l 1,27,-1
 799.555789959 -700 l 1,28,-1
 744.268945512 -700 l 1,29,-1
 301 -700 l 1,30,-1
 250 -700 l 1,0,-1
799.555789959 1195.69433594 m 2,31,-1
 799.555789959 876.66796875 l 2,32,33
 799.555789959 787.341796875 799.555789959 787.341796875 807.287097883 717.8046875 c 128,-1,34
 815.018405807 648.268554688 815.018405807 648.268554688 829.696563325 600.807617188 c 0,35,36
 843.557444421 555.98828125 843.557444421 555.98828125 871.84452476 518.301757812 c 128,-1,37
 900.130546451 480.616210938 900.130546451 480.616210938 944.277235719 448.565429688 c 0,38,39
 987.525132651 417.166015625 987.525132651 417.166015625 1034.35337785 402.083007812 c 128,-1,40
 1081.1805644 387 1081.1805644 387 1134.52902396 387 c 0,41,42
 1474.92253684 387 1474.92253684 387 1474.92253684 1050.09277344 c 0,43,44
 1474.92253684 1690 1474.92253684 1690 1143.20147015 1690 c 0,45,46
 1000.87045207 1690 1000.87045207 1690 903.535159115 1569.85351562 c 0,47,48
 799.555789959 1441.50683594 799.555789959 1441.50683594 799.555789959 1195.69433594 c 2,31,-1
EndSplineSet
EndChar

StartChar: q
Encoding: 113 113 84
Width: 2204
GlyphClass: 2
Flags: W
LayerCount: 2
Fore
SplineSet
353.8125 230.51171875 m 0,0,1
 147 491.71875 147 491.71875 147 998.681640625 c 0,2,3
 147 1552.35742188 147 1552.35742188 362.245117188 1825.47070312 c 0,4,5
 598.454635497 2105 598.454635497 2105 975.030960382 2105 c 0,6,7
 1149.88992709 2105 1149.88992709 2105 1287.81119659 2032.69921875 c 128,-1,8
 1425.7324661 1960.39746094 1425.7324661 1960.39746094 1520.61426401 1819.77832031 c 1,9,10
 1545.40239171 1869.57128906 1545.40239171 1869.57128906 1568.78599996 1926.03613281 c 128,-1,11
 1592.17066662 1982.5 1592.17066662 1982.5 1614.99331382 2047.67871094 c 2,12,-1
 1627.36091724 2083 l 1,13,-1
 1667.59134994 2083 l 1,14,-1
 1904 2083 l 1,15,-1
 1957.42675781 2083 l 1,16,-1
 1954.9453125 2029.63085938 l 2,17,18
 1947 1865.08007812 1947 1865.08007812 1947 1568.55761719 c 2,19,-1
 1947 -649 l 1,20,-1
 1947 -700 l 1,21,-1
 1896 -700 l 1,22,-1
 1447.57607751 -700 l 1,23,-1
 1392.30130464 -700 l 1,24,-1
 1392.30130464 -649 l 1,25,-1
 1392.30130464 154.844726562 l 1,26,27
 1206.97565156 -37 1206.97565156 -37 923.007644735 -37 c 0,28,29
 580.105917234 -37 580.105917234 -37 353.8125 230.51171875 c 0,0,1
817.288714476 1555.41308594 m 0,30,31
 727.920211058 1405.078125 727.920211058 1405.078125 727.920211058 1043.60058594 c 0,32,33
 727.920211058 387 727.920211058 387 1053.06593385 387 c 2,34,-1
 1054.14975293 387 l 2,35,36
 1177.68501767 387 1177.68501767 387 1281.54007547 517.899414062 c 0,37,38
 1392.30130464 657.500976562 1392.30130464 657.500976562 1392.30130464 952.71484375 c 2,39,-1
 1392.30130464 1201.25878906 l 2,40,41
 1392.30130464 1323.17285156 1392.30130464 1323.17285156 1365.67047283 1415.37011719 c 128,-1,42
 1339.0385826 1507.56738281 1339.0385826 1507.56738281 1287.92233038 1570.17089844 c 0,43,44
 1237.04104675 1632.48535156 1237.04104675 1632.48535156 1180.17547302 1661.24316406 c 128,-1,45
 1123.3098993 1690 1123.3098993 1690 1056.31739108 1690 c 0,46,47
 974.838328476 1690 974.838328476 1690 916.899519845 1657.75683594 c 128,-1,48
 858.960711214 1625.51367188 858.960711214 1625.51367188 817.288714476 1555.41308594 c 0,30,31
EndSplineSet
EndChar

StartChar: r
Encoding: 114 114 85
Width: 1346
GlyphClass: 2
Flags: W
LayerCount: 2
Fore
SplineSet
252 0 m 1,0,-1
 252 51 l 1,1,-1
 252 2017 l 1,2,-1
 252 2068 l 1,3,-1
 303 2068 l 1,4,-1
 711.967531127 2068 l 1,5,-1
 771.91366857 2068 l 1,6,-1
 771.91366857 2017 l 1,7,-1
 771.91366857 1798.75292969 l 1,8,9
 978.976011307 2111 978.976011307 2111 1297 2111 c 2,10,-1
 1298 2111 l 2,11,12
 1334.38476562 2111 1334.38476562 2111 1382.74023438 2104.55273438 c 2,13,-1
 1427 2098.65136719 l 1,14,-1
 1427 2054 l 1,15,-1
 1427 1610 l 1,16,-1
 1427 1552.90039062 l 1,17,-1
 1370.26269531 1559.32324219 l 2,18,19
 1357.60449219 1560.75683594 1357.60449219 1560.75683594 1346.0234375 1561.83789062 c 128,-1,20
 1334.44238281 1562.91894531 1334.44238281 1562.91894531 1324.41210938 1563.61328125 c 128,-1,21
 1314.38183594 1564.30761719 1314.38183594 1564.30761719 1305.77441406 1564.65332031 c 128,-1,22
 1297.16796875 1565 1297.16796875 1565 1290 1565 c 0,23,24
 1068.1181124 1565 1068.1181124 1565 949.988959208 1438.52148438 c 128,-1,25
 831.859806012 1312.04199219 831.859806012 1312.04199219 831.859806012 1037.53613281 c 2,26,-1
 831.859806012 51 l 1,27,-1
 831.859806012 0 l 1,28,-1
 771.91366857 0 l 1,29,-1
 303 0 l 1,30,-1
 252 0 l 1,0,-1
EndSplineSet
EndChar

StartChar: s
Encoding: 115 115 86
Width: 1848
GlyphClass: 2
Flags: W
LayerCount: 2
Fore
SplineSet
70 643.211914062 m 1,0,-1
 118.28515625 652.1484375 l 1,1,-1
 495.268076461 719.1484375 l 1,2,-1
 549.376081998 728.327148438 l 1,3,-1
 559.993747217 678.83984375 l 2,4,5
 583.541203449 569.078125 583.541203449 569.078125 632.317468217 499.412109375 c 128,-1,6
 681.093732985 429.74609375 681.093732985 429.74609375 755.92243451 396.873046875 c 128,-1,7
 830.750070538 364 830.750070538 364 936.366271964 364 c 0,8,9
 1094.23438532 364 1094.23438532 364 1166.27255345 427.065429688 c 0,10,11
 1238.59201247 490.376953125 1238.59201247 490.376953125 1238.59201247 577.235351562 c 0,12,13
 1238.59201247 635.213867188 1238.59201247 635.213867188 1188.64263687 694.752929688 c 0,14,15
 1168.02209749 719.33203125 1168.02209749 719.33203125 1087.82649383 755.161132812 c 128,-1,16
 1007.63195568 790.990234375 1007.63195568 790.990234375 880.03777327 826.752929688 c 0,17,18
 608.897871476 901.70703125 608.897871476 901.70703125 468.97057568 967.577148438 c 0,19,20
 395.004925719 1002.39550781 395.004925719 1002.39550781 334.001031642 1052.95117188 c 0,21,22
 276.56640625 1103.50683594 276.56640625 1103.50683594 233.318359375 1168.79589844 c 0,23,24
 145.56640625 1301.26855469 145.56640625 1301.26855469 145.56640625 1467.91992188 c 0,25,26
 145.56640625 1737.46582031 145.56640625 1737.46582031 357.130813537 1926.68261719 c 0,27,28
 470.082953251 2020.80859375 470.082953251 2020.80859375 616.414944042 2067.9921875 c 0,29,30
 762.746934834 2118 762.746934834 2118 938.601682063 2118 c 0,31,32
 1138.43221482 2117.64648438 1138.43221482 2117.64648438 1293.91148668 2052.69238281 c 128,-1,33
 1449.39075855 1987.73730469 1449.39075855 1987.73730469 1554.97363281 1860.84667969 c 0,34,35
 1653.17578125 1733.95605469 1653.17578125 1733.95605469 1705.65234375 1547.83984375 c 2,36,-1
 1719.65429688 1498.18066406 l 1,37,-1
 1669.8359375 1484.75683594 l 1,38,-1
 1317.44296048 1394.75683594 l 1,39,-1
 1265.00991427 1381.80761719 l 1,40,-1
 1249.60604211 1429.53320312 l 2,41,42
 1203.33369237 1572.8984375 1203.33369237 1572.8984375 1122.82270198 1638.44921875 c 128,-1,43
 1042.31171158 1704 1042.31171158 1704 921.091324791 1704 c 0,44,45
 893.157222527 1704 893.157222527 1704 868.903342608 1700.51757812 c 128,-1,46
 844.648397194 1697.03515625 844.648397194 1697.03515625 823.779597296 1690.02246094 c 128,-1,47
 802.910797397 1683.00976562 802.910797397 1683.00976562 785.176686016 1672.83203125 c 128,-1,48
 767.442574635 1662.65429688 767.442574635 1662.65429688 751.767001057 1648.88867188 c 0,49,50
 719.666810383 1620.70019531 719.666810383 1620.70019531 704.180895049 1586.93164062 c 128,-1,51
 688.69391422 1553.16210938 688.69391422 1553.16210938 688.69391422 1510.25976562 c 0,52,53
 688.69391422 1460.9921875 688.69391422 1460.9921875 703.65347465 1429.26269531 c 128,-1,54
 718.614100575 1397.53320312 718.614100575 1397.53320312 747.343062673 1378.234375 c 0,55,56
 762.970688943 1367.73730469 762.970688943 1367.73730469 793.217982495 1354.13867188 c 128,-1,57
 823.465276047 1340.54003906 823.465276047 1340.54003906 867.06216594 1324.42675781 c 128,-1,58
 910.660121329 1308.31347656 910.660121329 1308.31347656 970.392878967 1289.36523438 c 128,-1,59
 1030.12563661 1270.41699219 1030.12563661 1270.41699219 1099.98060394 1250.78027344 c 0,60,61
 1467.63737339 1144.30078125 1467.63737339 1144.30078125 1624.71289062 1008.38476562 c 0,62,63
 1783.56640625 865.60546875 1783.56640625 865.60546875 1783.56640625 614.331054688 c 0,64,65
 1783.56640625 334.298828125 1783.56640625 334.298828125 1562.18554688 140.896484375 c 0,66,67
 1324.74373741 -51 1324.74373741 -51 923.273460101 -51 c 0,68,69
 547.98667553 -51 547.98667553 -51 327.069981743 112.602539062 c 0,70,71
 123.649414062 276.204101562 123.649414062 276.204101562 77.1025390625 594.623046875 c 2,72,-1
 70 643.211914062 l 1,0,-1
EndSplineSet
EndChar

StartChar: t
Encoding: 116 116 87
Width: 1346
GlyphClass: 2
Flags: W
LayerCount: 2
Fore
SplineSet
25 1622 m 1,0,-1
 25 1673 l 1,1,-1
 25 2017 l 1,2,-1
 25 2068 l 1,3,-1
 76 2068 l 1,4,-1
 312.001616866 2068 l 1,5,-1
 335.719326027 2558.17382812 l 1,6,-1
 337.86541438 2602.51953125 l 1,7,-1
 387.966278866 2606.765625 l 1,8,-1
 824.53690449 2643.765625 l 1,9,-1
 887.90077218 2649.13671875 l 1,10,-1
 887.90077218 2593 l 1,11,-1
 887.90077218 2068 l 1,12,-1
 1261 2068 l 1,13,-1
 1312 2068 l 1,14,-1
 1312 2017 l 1,15,-1
 1312 1673 l 1,16,-1
 1312 1622 l 1,17,-1
 1261 1622 l 1,18,-1
 887.90077218 1622 l 1,19,-1
 887.90077218 827.06640625 l 2,20,21
 887.90077218 607.46875 887.90077218 607.46875 900.843744665 538.609375 c 0,22,23
 906.124805221 510.516601562 906.124805221 510.516601562 921.37664985 488.749023438 c 128,-1,24
 936.627387107 466.98046875 936.627387107 466.98046875 963.722583099 448.88671875 c 0,25,26
 1017.46116701 413 1017.46116701 413 1157 413 c 0,27,28
 1192.70800781 413 1192.70800781 413 1233.81640625 416.584960938 c 128,-1,29
 1274.92382812 420.169921875 1274.92382812 420.169921875 1321.12695312 427.388671875 c 2,30,-1
 1380 436.587890625 l 1,31,-1
 1380 377 l 1,32,-1
 1380 37 l 1,33,-1
 1380 -4.1953125 l 1,34,-1
 1339.72558594 -12.859375 l 2,35,36
 1162.42382812 -51 1162.42382812 -51 992.224142459 -51 c 0,37,38
 701.165615859 -51 701.165615859 -51 541.896625394 45.9423828125 c 0,39,40
 380.153764247 144.391601562 380.153764247 144.391601562 336.399252884 313.0546875 c 0,41,42
 295.979040815 468.868164062 295.979040815 468.868164062 295.979040815 782.201171875 c 2,43,-1
 295.979040815 1622 l 1,44,-1
 76 1622 l 1,45,-1
 25 1622 l 1,0,-1
EndSplineSet
EndChar

StartChar: u
Encoding: 117 117 88
Width: 2135
GlyphClass: 2
Flags: W
LayerCount: 2
Fore
SplineSet
291.944335938 269.354492188 m 0,0,1
 238 413.711914062 238 413.711914062 238 758.749023438 c 2,2,-1
 238 2017 l 1,3,-1
 238 2068 l 1,4,-1
 289 2068 l 1,5,-1
 739.668826466 2068 l 1,6,-1
 795.625566947 2068 l 1,7,-1
 795.625566947 2017 l 1,8,-1
 795.625566947 780.7421875 l 2,9,10
 795.625566947 698.661132812 795.625566947 698.661132812 801.505824909 631.524414062 c 128,-1,11
 807.387154345 564.387695312 807.387154345 564.387695312 817.052935516 521.444335938 c 128,-1,12
 826.718716687 478.500976562 826.718716687 478.500976562 839.463918664 455.793945312 c 0,13,14
 855.813564478 426.663085938 855.813564478 426.663085938 894.866706272 410.831054688 c 128,-1,15
 933.919848066 395 933.919848066 395 1006.28623699 395 c 0,16,17
 1066.55352372 395 1066.55352372 395 1111.97015896 408.795898438 c 128,-1,18
 1157.38786567 422.592773438 1157.38786567 422.592773438 1190.49753245 450.729492188 c 128,-1,19
 1223.60612774 478.866210938 1223.60612774 478.866210938 1247.26109404 523.169921875 c 0,20,21
 1325.56881503 669.836914062 1325.56881503 669.836914062 1325.56881503 1080.86914062 c 2,22,-1
 1325.56881503 2017 l 1,23,-1
 1325.56881503 2068 l 1,24,-1
 1381.52555551 2068 l 1,25,-1
 1830 2068 l 1,26,-1
 1881 2068 l 1,27,-1
 1881 2017 l 1,28,-1
 1881 51 l 1,29,-1
 1881 0 l 1,30,-1
 1830 0 l 1,31,-1
 1419.92724016 0 l 1,32,-1
 1363.97049968 0 l 1,33,-1
 1363.97049968 51 l 1,34,-1
 1363.97049968 177.259765625 l 1,35,36
 1299.75375398 101.76953125 1299.75375398 101.76953125 1219.50773367 50.8759765625 c 128,-1,37
 1139.26171335 -0.0166015625 1139.26171335 -0.0166015625 1044.81328428 -25.5087890625 c 128,-1,38
 950.363783731 -51 950.363783731 -51 842.80477951 -51 c 0,39,40
 624.189474788 -51 624.189474788 -51 481.002929688 34.8720703125 c 0,41,42
 348.682617188 117.524414062 348.682617188 117.524414062 291.944335938 269.354492188 c 0,0,1
EndSplineSet
EndChar

StartChar: v
Encoding: 118 118 89
Width: 1705
GlyphClass: 2
Flags: W
LayerCount: 2
Fore
SplineSet
-23 2068 m 1,0,-1
 44.6484375 2068 l 1,1,-1
 485.198894864 2068 l 1,2,-1
 527.95197773 2068 l 1,3,-1
 538.74116865 2029.86914062 l 1,4,-1
 904.51836836 737.083984375 l 1,5,-1
 1262.66483518 2029.62011719 l 1,6,-1
 1273.29933476 2068 l 1,7,-1
 1316.27703793 2068 l 1,8,-1
 1703.6484375 2068 l 1,9,-1
 1771.10742188 2068 l 1,10,-1
 1752.71582031 2006.19921875 l 1,11,-1
 1136.2470492 37.095703125 l 1,12,-1
 1124.84227152 -0 l 1,13,-1
 1083.0109795 0 l 1,14,-1
 671.811741609 0 l 1,15,-1
 630.095938318 0 l 1,16,-1
 618.614874505 36.9638671875 l 1,17,-1
 -4.3828125 2006.07421875 l 1,18,-1
 -23 2068 l 1,0,-1
EndSplineSet
EndChar

StartChar: w
Encoding: 119 119 90
Width: 2561
GlyphClass: 2
Flags: W
LayerCount: 2
Fore
SplineSet
-4 2068 m 1,0,-1
 61.3505859375 2068 l 1,1,-1
 493.533178743 2068 l 1,2,-1
 536.784175403 2068 l 1,3,-1
 545.917518312 2027.76953125 l 1,4,-1
 815.275193995 841.331054688 l 1,5,-1
 1075.78481546 2027.43359375 l 1,6,-1
 1084.69444277 2068 l 1,7,-1
 1128.24509518 2068 l 1,8,-1
 1522.31292409 2068 l 1,9,-1
 1565.97235564 2068 l 1,10,-1
 1574.79885928 2027.31054688 l 1,11,-1
 1835.00677255 827.836914062 l 1,12,-1
 2123.69737487 2028.37597656 l 1,13,-1
 2133.22478561 2068 l 1,14,-1
 2175.94009632 2068 l 1,15,-1
 2530.35058594 2068 l 1,16,-1
 2595.51660156 2068 l 1,17,-1
 2579.85546875 2007.77050781 l 1,18,-1
 2053.52148856 38.7431640625 l 1,19,-1
 2043.44197237 -0 l 1,20,-1
 2001.49940405 0 l 1,21,-1
 1621.09259321 0 l 1,22,-1
 1577.93498241 0 l 1,23,-1
 1568.73185666 40.1240234375 l 1,24,-1
 1293.37593499 1240.61621094 l 1,25,-1
 1030.43828102 40.58984375 l 1,26,-1
 1021.54507319 -0 l 1,27,-1
 977.973896421 0 l 1,28,-1
 596.516238032 0 l 1,29,-1
 554.691684816 0 l 1,30,-1
 544.529044946 38.6083984375 l 1,31,-1
 11.87890625 2007.64160156 l 1,32,-1
 -4 2068 l 1,0,-1
EndSplineSet
EndChar

StartChar: x
Encoding: 120 120 91
Width: 1705
GlyphClass: 2
Flags: W
LayerCount: 2
Fore
SplineSet
-72 0 m 1,0,-1
 -29.5634765625 72.32421875 l 1,1,-1
 586.313147065 1071.64648438 l 1,2,-1
 36.0126953125 1996.4140625 l 1,3,-1
 -4.3017578125 2068 l 1,4,-1
 80.9501953125 2068 l 1,5,-1
 583.243974354 2068 l 1,6,-1
 617.09112234 2068 l 1,7,-1
 632.308665443 2039.92871094 l 1,8,-1
 910.53895345 1526.6875 l 1,9,-1
 1200.19186505 2040.64453125 l 1,10,-1
 1215.60819966 2068 l 1,11,-1
 1248.86107672 2068 l 1,12,-1
 1671.95019531 2068 l 1,13,-1
 1758.83300781 2068 l 1,14,-1
 1716.48046875 1995.70507812 l 1,15,-1
 1177.94930325 1127.92285156 l 1,16,-1
 1804.85546875 71.6435546875 l 1,17,-1
 1845.33007812 -0 l 1,18,-1
 1759.95019531 0 l 1,19,-1
 1260.70863032 0 l 1,20,-1
 1227.15178106 0 l 1,21,-1
 1211.83431629 27.7216796875 l 1,22,-1
 855.922825224 671.880859375 l 1,23,-1
 486.333636444 27.0419921875 l 1,24,-1
 470.834209075 -0 l 1,25,-1
 437.842180149 0 l 1,26,-1
 14.9501953125 0 l 1,27,-1
 -72 0 l 1,0,-1
EndSplineSet
EndChar

StartChar: y
Encoding: 121 121 92
Width: 1705
GlyphClass: 2
Flags: W
LayerCount: 2
Fore
SplineSet
-2 2068 m 1,0,-1
 66.171875 2068 l 1,1,-1
 515.643599613 2068 l 1,2,-1
 558.737310299 2068 l 1,3,-1
 569.32014932 2029.52441406 l 1,4,-1
 907.318914455 800.734375 l 1,5,-1
 1255.74677533 2029.88378906 l 1,6,-1
 1266.55121674 2068 l 1,7,-1
 1309.32365699 2068 l 1,8,-1
 1712.171875 2068 l 1,9,-1
 1781.08496094 2068 l 1,10,-1
 1760.9453125 2005.06347656 l 1,11,-1
 1050.65006153 -94.9658203125 l 2,12,13
 968.726100302 -339.680664062 968.726100302 -339.680664062 900.009216808 -458.479492188 c 0,14,15
 863.565698121 -521.484375 863.565698121 -521.484375 811.325852839 -572.787109375 c 128,-1,16
 759.087067856 -624.08984375 759.087067856 -624.08984375 692.16526967 -662.715820312 c 0,17,18
 556.531889483 -741 556.531889483 -741 346.267280939 -741 c 0,19,20
 225.947265625 -741 225.947265625 -741 106.905273438 -711.502929688 c 2,21,-1
 68.171875 -701.905273438 l 1,22,-1
 68.171875 -662 l 1,23,-1
 68.171875 -322 l 1,24,-1
 68.171875 -261.5546875 l 1,25,-1
 127.754882812 -271.727539062 l 2,26,27
 205.494140625 -285 205.494140625 -285 271.350832295 -285 c 0,28,29
 426.133202838 -285 426.133202838 -285 485.020059223 -221.790039062 c 0,30,31
 513.8516952 -190.840820312 513.8516952 -190.840820312 553.023361848 -101.46875 c 0,32,33
 592.195028496 -16.1103515625 592.195028496 -16.1103515625 631.807779308 110.514648438 c 1,34,-1
 17.24609375 2005.53808594 l 1,35,-1
 -2 2068 l 1,0,-1
EndSplineSet
EndChar

StartChar: z
Encoding: 122 122 93
Width: 1633
GlyphClass: 2
Flags: W
LayerCount: 2
Fore
SplineSet
61 0 m 1,0,-1
 61 51 l 1,1,-1
 61 355.491210938 l 1,2,-1
 61 368.59765625 l 1,3,-1
 68.0966796875 379.880859375 l 1,4,-1
 922.257742798 1643 l 1,5,-1
 186 1643 l 1,6,-1
 135 1643 l 1,7,-1
 135 1694 l 1,8,-1
 135 2017 l 1,9,-1
 135 2068 l 1,10,-1
 186 2068 l 1,11,-1
 1546 2068 l 1,12,-1
 1597 2068 l 1,13,-1
 1597 2017 l 1,14,-1
 1597 1772.6640625 l 1,15,-1
 1597 1759.63867188 l 1,16,-1
 1589.98339844 1748.40429688 l 1,17,-1
 700.19799141 426 l 1,18,-1
 1554 426 l 1,19,-1
 1605 426 l 1,20,-1
 1605 375 l 1,21,-1
 1605 51 l 1,22,-1
 1605 0 l 1,23,-1
 1554 0 l 1,24,-1
 112 0 l 1,25,-1
 61 0 l 1,0,-1
EndSplineSet
EndChar

StartChar: braceleft
Encoding: 123 123 94
Width: 1071
GlyphClass: 2
Flags: W
LayerCount: 2
Fore
SplineSet
150 926 m 1,0,-1
 150 1219 l 1,1,2
 297 1219 297 1219 335 1296.5 c 128,-1,3
 373 1374 373 1374 373 1692 c 2,4,-1
 373 2142 l 2,5,6
 373 2541 373 2541 504 2670.5 c 128,-1,7
 635 2800 635 2800 889 2800 c 0,8,9
 926 2800 926 2800 1020 2796 c 1,10,-1
 1020 2552 l 1,11,12
 858 2550 858 2550 813 2483.5 c 128,-1,13
 768 2417 768 2417 768 2142 c 2,14,-1
 768 1700 l 2,15,16
 768 1335 768 1335 723 1232.5 c 128,-1,17
 678 1130 678 1130 512 1073 c 1,18,19
 676 1014 676 1014 722 911.5 c 128,-1,20
 768 809 768 809 768 444 c 2,21,-1
 768 -47 l 2,22,23
 768 -319 768 -319 812 -388 c 128,-1,24
 856 -457 856 -457 1020 -457 c 1,25,-1
 1020 -700 l 1,26,27
 909 -704 909 -704 897 -705 c 0,28,29
 618 -705 618 -705 495.5 -566.5 c 128,-1,30
 373 -428 373 -428 373 -47 c 2,31,-1
 373 453 l 2,32,33
 373 766 373 766 336 846 c 128,-1,34
 299 926 299 926 150 926 c 1,0,-1
EndSplineSet
EndChar

StartChar: bar
Encoding: 124 124 95
Width: 2097
GlyphClass: 2
Flags: W
LayerCount: 2
Fore
SplineSet
811 -698 m 1,0,-1
 811 2796 l 1,1,-1
 1286 2796 l 1,2,-1
 1286 -698 l 1,3,-1
 811 -698 l 1,0,-1
EndSplineSet
EndChar

StartChar: braceright
Encoding: 125 125 96
Width: 1071
GlyphClass: 2
Flags: W
LayerCount: 2
Fore
SplineSet
51 -457 m 1,0,1
 213 -457 213 -457 258 -389.5 c 128,-1,2
 303 -322 303 -322 303 -47 c 2,3,-1
 303 444 l 2,4,5
 303 806 303 806 347 909 c 128,-1,6
 391 1012 391 1012 559 1073 c 1,7,8
 395 1130 395 1130 349 1232.5 c 128,-1,9
 303 1335 303 1335 303 1700 c 2,10,-1
 303 2142 l 2,11,12
 303 2414 303 2414 258 2481 c 128,-1,13
 213 2548 213 2548 51 2552 c 1,14,-1
 51 2796 l 1,15,16
 162 2800 162 2800 172 2800 c 0,17,18
 459 2800 459 2800 578.5 2656.5 c 128,-1,19
 698 2513 698 2513 698 2142 c 2,20,-1
 698 1692 l 2,21,22
 698 1444 698 1444 708.5 1374.5 c 128,-1,23
 719 1305 719 1305 770 1262 c 128,-1,24
 821 1219 821 1219 922 1219 c 1,25,-1
 922 926 l 1,26,27
 822 926 822 926 771.5 884 c 128,-1,28
 721 842 721 842 709.5 772 c 128,-1,29
 698 702 698 702 698 453 c 2,30,-1
 698 -47 l 2,31,32
 698 -446 698 -446 567 -575.5 c 128,-1,33
 436 -705 436 -705 182 -705 c 0,34,35
 145 -704 145 -704 51 -700 c 1,36,-1
 51 -457 l 1,0,1
EndSplineSet
EndChar

StartChar: asciitilde
Encoding: 126 126 97
Width: 2795
GlyphClass: 2
Flags: W
LayerCount: 2
Fore
SplineSet
383 1155 m 1,0,1
 530 1489 530 1489 673.5 1588.5 c 128,-1,2
 817 1688 817 1688 989 1688 c 0,3,4
 1139 1688 1139 1688 1440 1563 c 0,5,6
 1719 1446 1719 1446 1825 1446 c 0,7,8
 2028 1446 2028 1446 2165 1696 c 1,9,-1
 2413 1552 l 1,10,11
 2184 1036 2184 1036 1769 1036 c 0,12,13
 1642 1036 1642 1036 1280 1184 c 0,14,15
 1049 1278 1049 1278 956 1278 c 0,16,17
 762 1278 762 1278 623 997 c 1,18,-1
 383 1155 l 1,0,1
EndSplineSet
EndChar

StartChar: exclamdown
Encoding: 161 161 99
Width: 1429
GlyphClass: 2
Flags: W
LayerCount: 2
Fore
SplineSet
432 -729 m 1,0,-1
 575 1315 l 1,1,-1
 856 1315 l 1,2,-1
 999 -729 l 1,3,-1
 432 -729 l 1,0,-1
481 1552 m 1,4,-1
 481 2068 l 1,5,-1
 948 2066 l 1,6,-1
 948 1552 l 1,7,-1
 481 1552 l 1,4,-1
EndSplineSet
EndChar

StartChar: cent
Encoding: 162 162 100
Width: 2142
GlyphClass: 2
Flags: W
LayerCount: 2
Fore
SplineSet
344 1386 m 0,0,1
 344 1806 344 1806 503 2089 c 128,-1,2
 662 2372 662 2372 991 2413 c 1,3,-1
 991 2796 l 1,4,-1
 1235 2796 l 1,5,-1
 1235 2413 l 1,6,7
 1739 2345 1739 2345 1821 1726 c 1,8,-1
 1460 1679 l 1,9,10
 1427 2005 1427 2005 1225 2097 c 1,11,-1
 1225 766 l 1,12,13
 1422 842 1422 842 1460 1178 c 1,14,-1
 1821 1130 l 1,15,16
 1743 514 1743 514 1235 434 c 1,17,-1
 1235 -23 l 1,18,-1
 991 -23 l 1,19,-1
 991 434 l 1,20,21
 663 483 663 483 503.5 755.5 c 128,-1,22
 344 1028 344 1028 344 1386 c 0,0,1
756 1438 m 0,23,24
 756 901 756 901 1001 774 c 1,25,-1
 1001 2083 l 1,26,27
 755 1968 755 1968 756 1438 c 0,23,24
EndSplineSet
EndChar

StartChar: sterling
Encoding: 163 163 101
Width: 2142
GlyphClass: 2
Flags: W
LayerCount: 2
Fore
SplineSet
82 0 m 1,0,-1
 82 369 l 1,1,-1
 225 369 l 2,2,3
 395 369 395 369 501.5 426 c 128,-1,4
 608 483 608 483 680 618.5 c 128,-1,5
 752 754 752 754 752 967 c 0,6,7
 752 1117 752 1117 721 1305 c 1,8,-1
 317 1305 l 1,9,-1
 317 1636 l 1,10,-1
 668 1636 l 1,11,12
 621 1923 621 1923 621 2077 c 0,13,14
 621 2421 621 2421 816.5 2634 c 128,-1,15
 1012 2847 1012 2847 1364 2847 c 0,16,17
 1856 2847 1856 2847 2036 2400 c 1,18,-1
 1706 2198 l 1,19,20
 1597 2495 1597 2495 1366 2494 c 0,21,22
 1065 2494 1065 2494 1065 2077 c 0,23,24
 1065 1983 1065 1983 1094 1794 c 2,25,-1
 1116 1636 l 1,26,-1
 1649 1636 l 1,27,-1
 1649 1305 l 1,28,-1
 1159 1305 l 1,29,30
 1175 1190 1175 1190 1176 1087 c 0,31,32
 1176 612 1176 612 831 365 c 1,33,-1
 1145 365 l 2,34,35
 1467 365 1467 365 1614 444.5 c 128,-1,36
 1761 524 1761 524 1860 739 c 1,37,-1
 2191 565 l 1,38,39
 2093 311 2093 311 1970 196.5 c 128,-1,40
 1847 82 1847 82 1673 41 c 128,-1,41
 1499 0 1499 0 1145 0 c 2,42,-1
 82 0 l 1,0,-1
EndSplineSet
EndChar

StartChar: currency
Encoding: 164 164 102
Width: 2144
GlyphClass: 2
Flags: W
LayerCount: 2
Fore
SplineSet
186 2085 m 1,0,-1
 428 2327 l 1,1,-1
 719 2036 l 1,2,3
 885 2134 885 2134 1071 2134 c 0,4,5
 1266 2134 1266 2134 1432 2032 c 1,6,-1
 1720 2320 l 1,7,-1
 1956 2085 l 1,8,-1
 1667 1796 l 1,9,10
 1765 1632 1765 1632 1765 1440 c 0,11,12
 1765 1256 1765 1256 1667 1087 c 1,13,-1
 1958 799 l 1,14,-1
 1714 555 l 1,15,-1
 1425 844 l 1,16,17
 1257 748 1257 748 1071 748 c 0,18,19
 891 748 891 748 717 846 c 1,20,-1
 428 557 l 1,21,-1
 193 793 l 1,22,-1
 481 1081 l 1,23,24
 379 1249 379 1249 379 1440 c 0,25,26
 379 1630 379 1630 477 1794 c 1,27,-1
 186 2085 l 1,0,-1
713 1440 m 256,28,29
 713 1293 713 1293 818.5 1187 c 128,-1,30
 924 1081 924 1081 1071 1081 c 0,31,32
 1221 1081 1221 1081 1326.5 1186.5 c 128,-1,33
 1432 1292 1432 1292 1432 1440 c 0,34,35
 1432 1590 1432 1590 1326.5 1694 c 128,-1,36
 1221 1798 1221 1798 1071 1798 c 0,37,38
 924 1798 924 1798 818.5 1692.5 c 128,-1,39
 713 1587 713 1587 713 1440 c 256,28,29
EndSplineSet
EndChar

StartChar: yen
Encoding: 165 165 103
Width: 2142
GlyphClass: 2
Flags: W
LayerCount: 2
Fore
SplineSet
113 2796 m 1,0,-1
 584 2796 l 1,1,-1
 1100 1542 l 1,2,-1
 1632 2796 l 1,3,-1
 2028 2796 l 1,4,-1
 1511 1681 l 1,5,-1
 1976 1681 l 1,6,-1
 1976 1423 l 1,7,-1
 1397 1423 l 1,8,-1
 1272 1137 l 1,9,-1
 1976 1137 l 1,10,-1
 1976 881 l 1,11,-1
 1272 881 l 1,12,-1
 1272 0 l 1,13,-1
 856 0 l 1,14,-1
 856 881 l 1,15,-1
 197 881 l 1,16,-1
 197 1137 l 1,17,-1
 854 1137 l 1,18,-1
 723 1423 l 1,19,-1
 197 1423 l 1,20,-1
 197 1681 l 1,21,-1
 614 1681 l 1,22,-1
 113 2796 l 1,0,-1
EndSplineSet
EndChar

StartChar: brokenbar
Encoding: 166 166 104
Width: 2097
GlyphClass: 2
Flags: W
LayerCount: 2
Fore
SplineSet
811 643 m 1,0,-1
 1286 643 l 1,1,-1
 1286 -698 l 1,2,-1
 811 -698 l 1,3,-1
 811 643 l 1,0,-1
811 1360 m 1,4,-1
 811 2796 l 1,5,-1
 1286 2796 l 1,6,-1
 1286 1360 l 1,7,-1
 811 1360 l 1,4,-1
EndSplineSet
EndChar

StartChar: section
Encoding: 167 167 105
Width: 2142
GlyphClass: 2
Flags: W
LayerCount: 2
Fore
SplineSet
244 -88 m 1,0,-1
 623 -20 l 1,1,2
 701 -399 701 -399 1077 -399 c 0,3,4
 1276 -399 1276 -399 1381.5 -303 c 128,-1,5
 1487 -207 1487 -207 1487 -41 c 256,6,7
 1487 125 1487 125 1382.5 212 c 128,-1,8
 1278 299 1278 299 958 422 c 0,9,10
 612 555 612 555 465.5 695.5 c 128,-1,11
 319 836 319 836 319 1087 c 0,12,13
 319 1449 319 1449 657 1673 c 1,14,15
 405 1870 405 1870 406 2195 c 0,16,17
 406 2482 406 2482 600.5 2664.5 c 128,-1,18
 795 2847 795 2847 1118 2847 c 0,19,20
 1727 2847 1727 2847 1868 2302 c 1,21,-1
 1513 2220 l 1,22,23
 1423 2548 1423 2548 1124 2548 c 0,24,25
 964 2548 964 2548 883.5 2457.5 c 128,-1,26
 803 2367 803 2367 803 2238 c 0,27,28
 803 2093 803 2093 887 2017.5 c 128,-1,29
 971 1942 971 1942 1274 1817 c 0,30,31
 1596 1686 1596 1686 1732 1547.5 c 128,-1,32
 1868 1409 1868 1409 1868 1157 c 0,33,34
 1868 831 1868 831 1571 592 c 1,35,36
 1893 383 1893 383 1892 12 c 0,37,38
 1892 -312 1892 -312 1667 -516.5 c 128,-1,39
 1442 -721 1442 -721 1071 -721 c 0,40,41
 387 -721 387 -721 244 -88 c 1,0,-1
694 1194 m 0,42,43
 694 1083 694 1083 766 992 c 128,-1,44
 838 901 838 901 1139 788 c 0,45,46
 1280 735 1280 735 1309 723 c 1,47,48
 1506 870 1506 870 1505 1059 c 0,49,50
 1505 1155 1505 1155 1433.5 1250 c 128,-1,51
 1362 1345 1362 1345 897 1538 c 1,52,53
 694 1384 694 1384 694 1194 c 0,42,43
EndSplineSet
EndChar

StartChar: dieresis
Encoding: 168 168 106
Width: 2097
GlyphClass: 2
Flags: W
LayerCount: 2
Fore
SplineSet
500 2591 m 0,0,1
 500 2681 500 2681 566.5 2742.5 c 128,-1,2
 633 2804 633 2804 723 2804 c 0,3,4
 811 2804 811 2804 878.5 2744.5 c 128,-1,5
 946 2685 946 2685 946 2591 c 0,6,7
 946 2499 946 2499 876.5 2440.5 c 128,-1,8
 807 2382 807 2382 723 2382 c 0,9,10
 641 2382 641 2382 570.5 2439.5 c 128,-1,11
 500 2497 500 2497 500 2591 c 0,0,1
1151 2591 m 0,12,13
 1151 2679 1151 2679 1217.5 2741.5 c 128,-1,14
 1284 2804 1284 2804 1374 2804 c 256,15,16
 1464 2804 1464 2804 1530.5 2742.5 c 128,-1,17
 1597 2681 1597 2681 1597 2591 c 0,18,19
 1597 2497 1597 2497 1527.5 2439.5 c 128,-1,20
 1458 2382 1458 2382 1374 2382 c 256,21,22
 1290 2382 1290 2382 1220.5 2440.5 c 128,-1,23
 1151 2499 1151 2499 1151 2591 c 0,12,13
EndSplineSet
EndChar

StartChar: copyright
Encoding: 169 169 107
Width: 3276
GlyphClass: 2
Flags: W
LayerCount: 2
Fore
SplineSet
176 1399 m 0,0,1
 176 1995 176 1995 606 2421 c 128,-1,2
 1036 2847 1036 2847 1638 2847 c 256,3,4
 2240 2847 2240 2847 2670.5 2420 c 128,-1,5
 3101 1993 3101 1993 3101 1399 c 0,6,7
 3101 803 3101 803 2672 376 c 128,-1,8
 2243 -51 2243 -51 1638 -51 c 0,9,10
 1032 -51 1032 -51 604 374 c 128,-1,11
 176 799 176 799 176 1399 c 0,0,1
481 1399 m 0,12,13
 481 912 481 912 820 569.5 c 128,-1,14
 1159 227 1159 227 1638 227 c 0,15,16
 2115 227 2115 227 2455.5 571 c 128,-1,17
 2796 915 2796 915 2796 1399 c 0,18,19
 2796 1880 2796 1880 2456 2224 c 128,-1,20
 2116 2568 2116 2568 1638 2568 c 0,21,22
 1161 2568 1161 2568 821 2224 c 128,-1,23
 481 1880 481 1880 481 1399 c 0,12,13
991 1389 m 256,24,25
 991 1813 991 1813 1168.5 2040 c 128,-1,26
 1346 2267 1346 2267 1675 2267 c 0,27,28
 2212 2267 2212 2267 2286 1667 c 1,29,-1
 1954 1624 l 1,30,31
 1913 1999 1913 1999 1677 1999 c 0,32,33
 1362 1999 1362 1999 1362 1376 c 0,34,35
 1362 798 1362 798 1677 799 c 0,36,37
 1808 799 1808 799 1868.5 891 c 128,-1,38
 1929 983 1929 983 1956 1155 c 1,39,-1
 2284 1116 l 1,40,41
 2200 530 2200 530 1667 530 c 0,42,43
 1356 530 1356 530 1173.5 747.5 c 128,-1,44
 991 965 991 965 991 1389 c 256,24,25
EndSplineSet
EndChar

StartChar: ordfeminine
Encoding: 170 170 108
Width: 1286
GlyphClass: 2
Flags: W
LayerCount: 2
Fore
SplineSet
92 1462 m 0,0,1
 92 1917 92 1917 762 1917 c 0,2,3
 780 1917 780 1917 807 1915 c 1,4,5
 807 2050 807 2050 774 2109.5 c 128,-1,6
 741 2169 741 2169 641 2169 c 0,7,8
 486 2169 486 2169 457 2001 c 1,9,-1
 139 2038 l 1,10,11
 223 2403 223 2403 659 2402 c 0,12,13
 847 2402 847 2402 959 2332.5 c 128,-1,14
 1071 2263 1071 2263 1100.5 2164.5 c 128,-1,15
 1130 2066 1130 2066 1130 1886 c 2,16,-1
 1130 1479 l 2,17,18
 1130 1196 1130 1196 1161 1118 c 1,19,-1
 893 1118 l 1,20,21
 879 1202 879 1202 870 1315 c 1,22,23
 729 1090 729 1090 481 1090 c 0,24,25
 311 1090 311 1090 201.5 1189 c 128,-1,26
 92 1288 92 1288 92 1462 c 0,0,1
430 1481 m 0,27,28
 430 1323 430 1323 573 1323 c 0,29,30
 807 1323 807 1323 807 1704 c 1,31,32
 766 1710 766 1710 733 1710 c 0,33,34
 430 1710 430 1710 430 1481 c 0,27,28
EndSplineSet
EndChar

StartChar: guillemotleft
Encoding: 171 171 109
Width: 1642
GlyphClass: 2
Flags: W
LayerCount: 2
Fore
SplineSet
182 1075 m 1,0,-1
 578 1731 l 1,1,-1
 817 1731 l 1,2,-1
 596 1075 l 1,3,-1
 817 420 l 1,4,-1
 578 420 l 1,5,-1
 182 1075 l 1,0,-1
825 1075 m 1,6,-1
 1221 1747 l 1,7,-1
 1460 1747 l 1,8,-1
 1239 1075 l 1,9,-1
 1460 406 l 1,10,-1
 1221 406 l 1,11,-1
 825 1075 l 1,6,-1
EndSplineSet
EndChar

StartChar: logicalnot
Encoding: 172 172 110
Width: 2142
GlyphClass: 2
Flags: W
LayerCount: 2
Fore
SplineSet
162 692 m 1,0,-1
 162 1118 l 1,1,-1
 1978 1118 l 1,2,-1
 1978 0 l 1,3,-1
 1503 0 l 1,4,-1
 1503 692 l 1,5,-1
 162 692 l 1,0,-1
EndSplineSet
EndChar

StartChar: uni00AD
Encoding: 173 173 111
Width: 1214
GlyphClass: 2
Flags: W
LayerCount: 2
Fore
SplineSet
164 879 m 1,0,-1
 164 1221 l 1,1,-1
 1049 1221 l 1,2,-1
 1049 879 l 1,3,-1
 164 879 l 1,0,-1
EndSplineSet
EndChar

StartChar: registered
Encoding: 174 174 112
Width: 3276
GlyphClass: 2
Flags: W
LayerCount: 2
Fore
SplineSet
176 1399 m 0,0,1
 176 1995 176 1995 606 2421 c 128,-1,2
 1036 2847 1036 2847 1638 2847 c 256,3,4
 2240 2847 2240 2847 2670.5 2420 c 128,-1,5
 3101 1993 3101 1993 3101 1399 c 0,6,7
 3101 803 3101 803 2672 376 c 128,-1,8
 2243 -51 2243 -51 1638 -51 c 0,9,10
 1032 -51 1032 -51 604 374 c 128,-1,11
 176 799 176 799 176 1399 c 0,0,1
481 1399 m 0,12,13
 481 912 481 912 820 569.5 c 128,-1,14
 1159 227 1159 227 1638 227 c 0,15,16
 2115 227 2115 227 2455.5 571 c 128,-1,17
 2796 915 2796 915 2796 1399 c 0,18,19
 2796 1880 2796 1880 2456 2224 c 128,-1,20
 2116 2568 2116 2568 1638 2568 c 0,21,22
 1161 2568 1161 2568 821 2224 c 128,-1,23
 481 1880 481 1880 481 1399 c 0,12,13
1073 559 m 1,24,-1
 1073 2236 l 1,25,-1
 1638 2236 l 2,26,27
 2238 2236 2238 2236 2238 1747 c 0,28,29
 2238 1446 2238 1446 1970 1311 c 1,30,-1
 2316 559 l 1,31,-1
 1935 559 l 1,32,-1
 1655 1241 l 1,33,-1
 1425 1241 l 1,34,-1
 1425 559 l 1,35,-1
 1073 559 l 1,24,-1
1425 1495 m 1,36,-1
 1624 1495 l 2,37,38
 1890 1495 1890 1495 1890 1753 c 0,39,40
 1890 1982 1890 1982 1626 1982 c 2,41,-1
 1425 1982 l 1,42,-1
 1425 1495 l 1,36,-1
EndSplineSet
EndChar

StartChar: macron
Encoding: 175 175 113
Width: 2097
GlyphClass: 2
Flags: W
LayerCount: 2
Fore
SplineSet
0 3281 m 1,0,-1
 0 3709 l 1,1,-1
 2097 3709 l 1,2,-1
 2097 3281 l 1,3,-1
 0 3281 l 1,0,-1
EndSplineSet
EndChar

StartChar: degree
Encoding: 176 176 114
Width: 2142
GlyphClass: 2
Flags: W
LayerCount: 2
Fore
SplineSet
418 2193 m 256,0,1
 418 2463 418 2463 610.5 2655 c 128,-1,2
 803 2847 803 2847 1071 2847 c 0,3,4
 1337 2847 1337 2847 1531.5 2657 c 128,-1,5
 1726 2467 1726 2467 1726 2193 c 0,6,7
 1726 1923 1726 1923 1532.5 1731.5 c 128,-1,8
 1339 1540 1339 1540 1071 1540 c 256,9,10
 803 1540 803 1540 610.5 1731.5 c 128,-1,11
 418 1923 418 1923 418 2193 c 256,0,1
745 2193 m 0,12,13
 745 2035 745 2035 842.5 1927 c 128,-1,14
 940 1819 940 1819 1071 1819 c 0,15,16
 1204 1819 1204 1819 1300.5 1927 c 128,-1,17
 1397 2035 1397 2035 1397 2193 c 0,18,19
 1397 2355 1397 2355 1299.5 2461.5 c 128,-1,20
 1202 2568 1202 2568 1071 2568 c 0,21,22
 938 2568 938 2568 841.5 2458.5 c 128,-1,23
 745 2349 745 2349 745 2193 c 0,12,13
EndSplineSet
EndChar

StartChar: plusminus
Encoding: 177 177 115
Width: 2142
GlyphClass: 2
Flags: W
LayerCount: 2
Fore
SplineSet
213 23 m 1,0,-1
 213 362 l 1,1,-1
 1927 362 l 1,2,-1
 1927 23 l 1,3,-1
 213 23 l 1,0,-1
213 1227 m 1,4,-1
 213 1569 l 1,5,-1
 893 1569 l 1,6,-1
 893 2255 l 1,7,-1
 1249 2255 l 1,8,-1
 1249 1569 l 1,9,-1
 1927 1569 l 1,10,-1
 1927 1227 l 1,11,-1
 1249 1227 l 1,12,-1
 1249 561 l 1,13,-1
 893 561 l 1,14,-1
 893 1227 l 1,15,-1
 213 1227 l 1,4,-1
EndSplineSet
EndChar

StartChar: uni00B2
Encoding: 178 178 116
Width: 1425
GlyphClass: 2
Flags: W
LayerCount: 2
Fore
SplineSet
90 2275 m 1,0,1
 186 2826 186 2826 688 2826 c 0,2,3
 948 2826 948 2826 1096.5 2683 c 128,-1,4
 1245 2540 1245 2540 1245 2322 c 0,5,6
 1245 1884 1245 1884 506 1413 c 1,7,-1
 1257 1413 l 1,8,-1
 1241 1118 l 1,9,-1
 96 1118 l 1,10,-1
 96 1393 l 1,11,12
 561 1764 561 1764 722 1956 c 128,-1,13
 883 2148 883 2148 883 2306 c 0,14,15
 883 2548 883 2548 668 2548 c 0,16,17
 445 2548 445 2548 412 2214 c 1,18,-1
 90 2275 l 1,0,1
EndSplineSet
EndChar

StartChar: uni00B3
Encoding: 179 179 117
Width: 1425
GlyphClass: 2
Flags: W
LayerCount: 2
Fore
SplineSet
57 1573 m 1,0,-1
 369 1640 l 1,1,2
 416 1357 416 1357 655 1358 c 0,3,4
 905 1358 905 1358 905 1616 c 0,5,6
 905 1866 905 1866 586 1866 c 2,7,-1
 446 1866 l 1,8,-1
 446 2111 l 1,9,-1
 586 2111 l 2,10,11
 729 2111 729 2111 800.5 2158.5 c 128,-1,12
 872 2206 872 2206 872 2335 c 0,13,14
 872 2564 872 2564 662 2564 c 0,15,16
 467 2564 467 2564 408 2318 c 1,17,-1
 104 2384 l 1,18,19
 233 2826 233 2826 684 2826 c 0,20,21
 940 2826 940 2826 1083.5 2700 c 128,-1,22
 1227 2574 1227 2574 1227 2370 c 0,23,24
 1227 2118 1227 2118 967 2005 c 1,25,26
 1276 1899 1276 1899 1276 1597 c 0,27,28
 1276 1366 1276 1366 1109 1228 c 128,-1,29
 942 1090 942 1090 676 1090 c 0,30,31
 141 1090 141 1090 57 1573 c 1,0,-1
EndSplineSet
EndChar

StartChar: acute
Encoding: 180 180 118
Width: 2097
GlyphClass: 2
Flags: W
LayerCount: 2
Fore
SplineSet
848 2474 m 1,0,-1
 1505 3049 l 1,1,-1
 1726 2771 l 1,2,-1
 1004 2316 l 1,3,-1
 848 2474 l 1,0,-1
EndSplineSet
EndChar

StartChar: uni00B5
Encoding: 181 181 119
Width: 2142
GlyphClass: 2
Flags: W
LayerCount: 2
Fore
SplineSet
330 -698 m 1,0,-1
 330 2068 l 1,1,-1
 758 2068 l 1,2,-1
 758 952 l 2,3,4
 758 538 758 538 848 405 c 128,-1,5
 938 272 938 272 1071 272 c 0,6,7
 1216 272 1216 272 1299 407.5 c 128,-1,8
 1382 543 1382 543 1382 952 c 2,9,-1
 1382 2068 l 1,10,-1
 1810 2068 l 1,11,-1
 1810 0 l 1,12,-1
 1450 0 l 1,13,-1
 1450 223 l 1,14,15
 1346 -51 1346 -51 1077 -51 c 0,16,17
 864 -51 864 -51 758 147 c 1,18,-1
 758 -698 l 1,19,-1
 330 -698 l 1,0,-1
EndSplineSet
EndChar

StartChar: paragraph
Encoding: 182 182 120
Width: 2142
GlyphClass: 2
Flags: W
LayerCount: 2
Fore
SplineSet
68 1987 m 0,0,1
 68 2255 68 2255 170 2445.5 c 128,-1,2
 272 2636 272 2636 434 2716 c 128,-1,3
 596 2796 596 2796 940 2796 c 2,4,-1
 1853 2796 l 1,5,-1
 1853 -700 l 1,6,-1
 1573 -700 l 1,7,-1
 1573 2515 l 1,8,-1
 1366 2515 l 1,9,-1
 1366 -700 l 1,10,-1
 1085 -700 l 1,11,-1
 1085 1171 l 1,12,-1
 928 1171 l 2,13,14
 637 1171 637 1171 465 1238 c 128,-1,15
 293 1305 293 1305 180.5 1500.5 c 128,-1,16
 68 1696 68 1696 68 1987 c 0,0,1
EndSplineSet
EndChar

StartChar: periodcentered
Encoding: 183 183 121
Width: 1001
GlyphClass: 2
Flags: W
LayerCount: 2
Fore
SplineSet
266 813 m 1,0,-1
 266 1341 l 1,1,-1
 733 1341 l 1,2,-1
 733 813 l 1,3,-1
 266 813 l 1,0,-1
EndSplineSet
EndChar

StartChar: cedilla
Encoding: 184 184 122
Width: 2097
GlyphClass: 2
Flags: W
LayerCount: 2
Fore
SplineSet
709 -707 m 1,0,-1
 766 -557 l 1,1,2
 934 -633 934 -633 1073 -633 c 0,3,4
 1239 -633 1239 -633 1239 -504 c 0,5,6
 1239 -344 1239 -344 989 -344 c 0,7,8
 956 -344 956 -344 864 -348 c 1,9,-1
 983 0 l 1,10,-1
 1184 0 l 1,11,-1
 1116 -195 l 1,12,-1
 1174 -195 l 2,13,14
 1360 -195 1360 -195 1446 -286 c 128,-1,15
 1532 -377 1532 -377 1532 -496 c 0,16,17
 1532 -639 1532 -639 1416 -737.5 c 128,-1,18
 1300 -836 1300 -836 1112 -836 c 0,19,20
 911 -836 911 -836 709 -707 c 1,0,-1
EndSplineSet
EndChar

StartChar: uni00B9
Encoding: 185 185 123
Width: 1425
GlyphClass: 2
Flags: W
LayerCount: 2
Fore
SplineSet
311 2181 m 1,0,-1
 311 2494 l 1,1,2
 549 2609 549 2609 711 2812 c 1,3,-1
 969 2812 l 1,4,-1
 969 1374 l 1,5,-1
 1253 1374 l 1,6,-1
 1253 1118 l 1,7,-1
 319 1118 l 1,8,-1
 319 1374 l 1,9,-1
 627 1374 l 1,10,-1
 627 2390 l 1,11,12
 484 2261 484 2261 311 2181 c 1,0,-1
EndSplineSet
EndChar

StartChar: ordmasculine
Encoding: 186 186 124
Width: 1286
GlyphClass: 2
Flags: W
LayerCount: 2
Fore
SplineSet
100 1747 m 0,0,1
 100 2402 100 2402 645 2402 c 0,2,3
 911 2402 911 2402 1049.5 2233 c 128,-1,4
 1188 2064 1188 2064 1188 1757 c 0,5,6
 1188 1089 1188 1089 643 1090 c 0,7,8
 373 1090 373 1090 236.5 1262 c 128,-1,9
 100 1434 100 1434 100 1747 c 0,0,1
449 1745 m 0,10,11
 449 1333 449 1333 645 1333 c 0,12,13
 838 1333 838 1333 838 1745 c 0,14,15
 838 2161 838 2161 643 2161 c 256,16,17
 448 2161 448 2161 449 1745 c 0,10,11
EndSplineSet
EndChar

StartChar: guillemotright
Encoding: 187 187 125
Width: 1642
GlyphClass: 2
Flags: W
LayerCount: 2
Fore
SplineSet
182 406 m 1,0,-1
 403 1075 l 1,1,-1
 182 1747 l 1,2,-1
 422 1747 l 1,3,-1
 817 1075 l 1,4,-1
 422 406 l 1,5,-1
 182 406 l 1,0,-1
825 406 m 1,6,-1
 1047 1075 l 1,7,-1
 825 1747 l 1,8,-1
 1067 1747 l 1,9,-1
 1460 1075 l 1,10,-1
 1067 406 l 1,11,-1
 825 406 l 1,6,-1
EndSplineSet
EndChar

StartChar: onequarter
Encoding: 188 188 126
Width: 3213
GlyphClass: 2
Flags: W
LayerCount: 2
Fore
SplineSet
229 2181 m 1,0,-1
 229 2494 l 1,1,2
 467 2609 467 2609 629 2812 c 1,3,-1
 887 2812 l 1,4,-1
 887 1374 l 1,5,-1
 1171 1374 l 1,6,-1
 1171 1118 l 1,7,-1
 237 1118 l 1,8,-1
 237 1374 l 1,9,-1
 545 1374 l 1,10,-1
 545 2390 l 1,11,12
 402 2261 402 2261 229 2181 c 1,0,-1
EndSplineSet
EndChar

StartChar: onehalf
Encoding: 189 189 127
Width: 3213
GlyphClass: 2
Flags: W
LayerCount: 2
Fore
SplineSet
276 2181 m 1,0,-1
 276 2494 l 1,1,2
 514 2609 514 2609 676 2812 c 1,3,-1
 934 2812 l 1,4,-1
 934 1374 l 1,5,-1
 1218 1374 l 1,6,-1
 1218 1118 l 1,7,-1
 284 1118 l 1,8,-1
 284 1374 l 1,9,-1
 592 1374 l 1,10,-1
 592 2390 l 1,11,12
 449 2261 449 2261 276 2181 c 1,0,-1
1800 1157 m 1,13,14
 1896 1708 1896 1708 2398 1708 c 0,15,16
 2658 1708 2658 1708 2806.5 1565 c 128,-1,17
 2955 1422 2955 1422 2955 1204 c 0,18,19
 2955 766 2955 766 2216 295 c 1,20,-1
 2967 295 l 1,21,-1
 2951 0 l 1,22,-1
 1806 0 l 1,23,-1
 1806 275 l 1,24,25
 2271 646 2271 646 2432 838 c 128,-1,26
 2593 1030 2593 1030 2593 1188 c 0,27,28
 2593 1430 2593 1430 2378 1430 c 0,29,30
 2155 1430 2155 1430 2122 1096 c 1,31,-1
 1800 1157 l 1,13,14
EndSplineSet
EndChar

StartChar: threequarters
Encoding: 190 190 128
Width: 3213
GlyphClass: 2
Flags: W
LayerCount: 2
Fore
SplineSet
125 1573 m 1,0,-1
 437 1640 l 1,1,2
 484 1357 484 1357 723 1358 c 0,3,4
 973 1358 973 1358 973 1616 c 0,5,6
 973 1866 973 1866 654 1866 c 2,7,-1
 514 1866 l 1,8,-1
 514 2111 l 1,9,-1
 654 2111 l 2,10,11
 797 2111 797 2111 868.5 2158.5 c 128,-1,12
 940 2206 940 2206 940 2335 c 0,13,14
 940 2564 940 2564 730 2564 c 0,15,16
 535 2564 535 2564 476 2318 c 1,17,-1
 172 2384 l 1,18,19
 301 2826 301 2826 752 2826 c 0,20,21
 1008 2826 1008 2826 1151.5 2700 c 128,-1,22
 1295 2574 1295 2574 1295 2370 c 0,23,24
 1295 2118 1295 2118 1035 2005 c 1,25,26
 1344 1899 1344 1899 1344 1597 c 0,27,28
 1344 1366 1344 1366 1177 1228 c 128,-1,29
 1010 1090 1010 1090 744 1090 c 0,30,31
 209 1090 209 1090 125 1573 c 1,0,-1
EndSplineSet
EndChar

StartChar: questiondown
Encoding: 191 191 129
Width: 2072
GlyphClass: 2
Flags: W
LayerCount: 2
Fore
SplineSet
262 -6 m 0,0,1
 262 170 262 170 339 347 c 128,-1,2
 416 524 416 524 682 743 c 0,3,4
 858 886 858 886 903 971.5 c 128,-1,5
 948 1057 948 1057 948 1217 c 2,6,-1
 946 1323 l 1,7,-1
 1333 1323 l 1,8,9
 1329 997 1329 997 1309.5 901 c 128,-1,10
 1290 805 1290 805 1232 723 c 128,-1,11
 1174 641 1174 641 979 477 c 0,12,13
 727 262 727 262 727 -18 c 0,14,15
 727 -211 727 -211 824.5 -312.5 c 128,-1,16
 922 -414 922 -414 1090 -414 c 0,17,18
 1484 -414 1484 -414 1513 166 c 1,19,-1
 1911 90 l 1,20,21
 1837 -780 1837 -780 1063 -780 c 0,22,23
 690 -780 690 -780 476 -570 c 128,-1,24
 262 -360 262 -360 262 -6 c 0,0,1
911 1565 m 1,25,-1
 911 2068 l 1,26,-1
 1368 2066 l 1,27,-1
 1368 1565 l 1,28,-1
 911 1565 l 1,25,-1
EndSplineSet
EndChar

StartChar: Agrave
Encoding: 192 192 130
Width: 2072
GlyphClass: 2
Flags: W
LayerCount: 2
Fore
SplineSet
-16 0 m 1,0,-1
 793 2796 l 1,1,-1
 1311 2796 l 1,2,-1
 2060 0 l 1,3,-1
 1591 0 l 1,4,-1
 1415 700 l 1,5,-1
 598 700 l 1,6,-1
 426 0 l 1,7,-1
 -16 0 l 1,0,-1
542 3502 m 1,8,-1
 764 3780 l 1,9,-1
 1421 3205 l 1,10,-1
 1265 3047 l 1,11,-1
 542 3502 l 1,8,-1
690 1065 m 1,12,-1
 1323 1065 l 1,13,-1
 1006 2345 l 1,14,-1
 690 1065 l 1,12,-1
EndSplineSet
EndChar

StartChar: Aacute
Encoding: 193 193 131
Width: 2072
GlyphClass: 2
Flags: W
LayerCount: 2
Fore
SplineSet
-16 0 m 1,0,-1
 793 2796 l 1,1,-1
 1311 2796 l 1,2,-1
 2060 0 l 1,3,-1
 1591 0 l 1,4,-1
 1415 700 l 1,5,-1
 598 700 l 1,6,-1
 426 0 l 1,7,-1
 -16 0 l 1,0,-1
690 1065 m 1,8,-1
 1323 1065 l 1,9,-1
 1006 2345 l 1,10,-1
 690 1065 l 1,8,-1
723 3189 m 1,11,-1
 1380 3764 l 1,12,-1
 1601 3486 l 1,13,-1
 879 3031 l 1,14,-1
 723 3189 l 1,11,-1
EndSplineSet
EndChar

StartChar: Acircumflex
Encoding: 194 194 132
Width: 2072
GlyphClass: 2
Flags: W
LayerCount: 2
Fore
SplineSet
-16 0 m 1,0,-1
 793 2796 l 1,1,-1
 1311 2796 l 1,2,-1
 2060 0 l 1,3,-1
 1591 0 l 1,4,-1
 1415 700 l 1,5,-1
 598 700 l 1,6,-1
 426 0 l 1,7,-1
 -16 0 l 1,0,-1
311 3074 m 1,8,-1
 1043 3637 l 1,9,-1
 1776 3074 l 1,10,-1
 1411 3046 l 1,11,-1
 1043 3295 l 1,12,-1
 676 3046 l 1,13,-1
 311 3074 l 1,8,-1
690 1065 m 1,14,-1
 1323 1065 l 1,15,-1
 1006 2345 l 1,16,-1
 690 1065 l 1,14,-1
EndSplineSet
EndChar

StartChar: Atilde
Encoding: 195 195 133
Width: 2072
GlyphClass: 2
Flags: W
LayerCount: 2
Fore
SplineSet
-16 0 m 1,0,-1
 793 2796 l 1,1,-1
 1311 2796 l 1,2,-1
 2060 0 l 1,3,-1
 1591 0 l 1,4,-1
 1415 700 l 1,5,-1
 598 700 l 1,6,-1
 426 0 l 1,7,-1
 -16 0 l 1,0,-1
416 3195 m 1,8,9
 600 3508 600 3508 829 3508 c 0,10,11
 933 3508 933 3508 1094 3416 c 0,12,13
 1246 3332 1246 3332 1321 3332 c 0,14,15
 1419 3332 1419 3332 1507 3486 c 1,16,-1
 1681 3369 l 1,17,18
 1499 3056 1499 3056 1264 3056 c 0,19,20
 1155 3056 1155 3056 997 3148 c 0,21,22
 854 3230 854 3230 788 3230 c 0,23,24
 688 3230 688 3230 588 3078 c 1,25,-1
 416 3195 l 1,8,9
690 1065 m 1,26,-1
 1323 1065 l 1,27,-1
 1006 2345 l 1,28,-1
 690 1065 l 1,26,-1
EndSplineSet
EndChar

StartChar: Adieresis
Encoding: 196 196 134
Width: 2072
GlyphClass: 2
Flags: W
LayerCount: 2
Fore
SplineSet
-16 0 m 1,0,-1
 793 2796 l 1,1,-1
 1311 2796 l 1,2,-1
 2060 0 l 1,3,-1
 1591 0 l 1,4,-1
 1415 700 l 1,5,-1
 598 700 l 1,6,-1
 426 0 l 1,7,-1
 -16 0 l 1,0,-1
518 3285 m 0,8,9
 518 3375 518 3375 584.5 3436.5 c 128,-1,10
 651 3498 651 3498 741 3498 c 0,11,12
 829 3498 829 3498 896.5 3438.5 c 128,-1,13
 964 3379 964 3379 964 3285 c 0,14,15
 964 3193 964 3193 894.5 3134.5 c 128,-1,16
 825 3076 825 3076 741 3076 c 0,17,18
 659 3076 659 3076 588.5 3133.5 c 128,-1,19
 518 3191 518 3191 518 3285 c 0,8,9
690 1065 m 1,20,-1
 1323 1065 l 1,21,-1
 1006 2345 l 1,22,-1
 690 1065 l 1,20,-1
1169 3285 m 0,23,24
 1169 3373 1169 3373 1235.5 3435.5 c 128,-1,25
 1302 3498 1302 3498 1392 3498 c 256,26,27
 1482 3498 1482 3498 1548.5 3436.5 c 128,-1,28
 1615 3375 1615 3375 1615 3285 c 0,29,30
 1615 3191 1615 3191 1545.5 3133.5 c 128,-1,31
 1476 3076 1476 3076 1392 3076 c 256,32,33
 1308 3076 1308 3076 1238.5 3134.5 c 128,-1,34
 1169 3193 1169 3193 1169 3285 c 0,23,24
EndSplineSet
EndChar

StartChar: Aring
Encoding: 197 197 135
Width: 2072
GlyphClass: 2
Flags: W
LayerCount: 2
Fore
SplineSet
-16 0 m 1,0,-1
 793 2796 l 1,1,-1
 1311 2796 l 1,2,-1
 2060 0 l 1,3,-1
 1591 0 l 1,4,-1
 1415 700 l 1,5,-1
 598 700 l 1,6,-1
 426 0 l 1,7,-1
 -16 0 l 1,0,-1
646 3364 m 0,8,9
 646 3528 646 3528 760.5 3641 c 128,-1,10
 875 3754 875 3754 1031 3754 c 256,11,12
 1187 3754 1187 3754 1301.5 3641 c 128,-1,13
 1416 3528 1416 3528 1416 3364 c 0,14,15
 1416 3198 1416 3198 1296 3089.5 c 128,-1,16
 1176 2981 1176 2981 1031 2981 c 0,17,18
 888 2981 888 2981 767 3088.5 c 128,-1,19
 646 3196 646 3196 646 3364 c 0,8,9
690 1065 m 1,20,-1
 1323 1065 l 1,21,-1
 1006 2345 l 1,22,-1
 690 1065 l 1,20,-1
854 3366 m 256,23,24
 854 3288 854 3288 908.5 3238 c 128,-1,25
 963 3188 963 3188 1031 3188 c 256,26,27
 1099 3188 1099 3188 1153 3238.5 c 128,-1,28
 1207 3289 1207 3289 1207 3364 c 0,29,30
 1207 3442 1207 3442 1154.5 3495.5 c 128,-1,31
 1102 3549 1102 3549 1031 3549 c 0,32,33
 961 3549 961 3549 907.5 3496.5 c 128,-1,34
 854 3444 854 3444 854 3366 c 256,23,24
EndSplineSet
EndChar

StartChar: AE
Encoding: 198 198 136
Width: 2928
GlyphClass: 2
Flags: W
LayerCount: 2
Fore
SplineSet
-170 0 m 1,0,-1
 1102 2796 l 1,1,-1
 2884 2796 l 1,2,-1
 2884 2425 l 1,3,-1
 1761 2425 l 1,4,-1
 1761 1626 l 1,5,-1
 2644 1626 l 1,6,-1
 2644 1253 l 1,7,-1
 1761 1253 l 1,8,-1
 1761 379 l 1,9,-1
 2890 379 l 1,10,-1
 2890 0 l 1,11,-1
 1309 0 l 1,12,-1
 1309 766 l 1,13,-1
 582 766 l 1,14,-1
 252 0 l 1,15,-1
 -170 0 l 1,0,-1
727 1124 m 1,16,-1
 1315 1124 l 1,17,-1
 1315 2494 l 1,18,-1
 727 1124 l 1,16,-1
EndSplineSet
EndChar

StartChar: Ccedilla
Encoding: 199 199 137
Width: 2213
GlyphClass: 2
Flags: W
LayerCount: 2
Fore
SplineSet
174 1386 m 0,0,1
 174 2093 174 2093 438 2470 c 128,-1,2
 702 2847 702 2847 1200 2847 c 0,3,4
 1970 2846 1970 2846 2103 1892 c 1,5,-1
 1673 1829 l 1,6,7
 1603 2464 1603 2464 1202 2464 c 0,8,9
 665 2464 665 2464 666 1360 c 0,10,11
 666 332 666 332 1202 332 c 0,12,13
 1417 332 1417 332 1522.5 488.5 c 128,-1,14
 1628 645 1628 645 1673 940 c 1,15,-1
 2099 881 l 1,16,17
 1978 -30 1978 -30 1212 -51 c 1,18,-1
 1161 -211 l 1,19,20
 1200 -209 1200 -209 1221 -209 c 0,21,22
 1407 -209 1407 -209 1498 -301 c 128,-1,23
 1589 -393 1589 -393 1589 -518 c 0,24,25
 1589 -665 1589 -665 1471.5 -767.5 c 128,-1,26
 1354 -870 1354 -870 1155 -870 c 0,27,28
 952 -870 952 -870 741 -737 c 1,29,-1
 799 -580 l 1,30,31
 975 -658 975 -658 1116 -657 c 0,32,33
 1280 -657 1280 -657 1280 -530 c 0,34,35
 1280 -469 1280 -469 1236 -429 c 128,-1,36
 1192 -389 1192 -389 1141 -382 c 128,-1,37
 1090 -375 1090 -375 899 -371 c 1,38,-1
 1010 -39 l 1,39,40
 557 49 557 49 365.5 443.5 c 128,-1,41
 174 838 174 838 174 1386 c 0,0,1
EndSplineSet
EndChar

StartChar: Egrave
Encoding: 200 200 138
Width: 1929
GlyphClass: 2
Flags: W
LayerCount: 2
Fore
SplineSet
268 0 m 1,0,-1
 268 2796 l 1,1,-1
 1870 2796 l 1,2,-1
 1870 2425 l 1,3,-1
 731 2425 l 1,4,-1
 731 1626 l 1,5,-1
 1624 1626 l 1,6,-1
 1624 1253 l 1,7,-1
 731 1253 l 1,8,-1
 731 379 l 1,9,-1
 1888 379 l 1,10,-1
 1888 0 l 1,11,-1
 268 0 l 1,0,-1
469 3486 m 1,12,-1
 691 3764 l 1,13,-1
 1348 3189 l 1,14,-1
 1192 3031 l 1,15,-1
 469 3486 l 1,12,-1
EndSplineSet
EndChar

StartChar: Eacute
Encoding: 201 201 139
Width: 1929
GlyphClass: 2
Flags: W
LayerCount: 2
Fore
SplineSet
268 0 m 1,0,-1
 268 2796 l 1,1,-1
 1870 2796 l 1,2,-1
 1870 2425 l 1,3,-1
 731 2425 l 1,4,-1
 731 1626 l 1,5,-1
 1624 1626 l 1,6,-1
 1624 1253 l 1,7,-1
 731 1253 l 1,8,-1
 731 379 l 1,9,-1
 1888 379 l 1,10,-1
 1888 0 l 1,11,-1
 268 0 l 1,0,-1
729 3205 m 1,12,-1
 1386 3780 l 1,13,-1
 1607 3502 l 1,14,-1
 885 3047 l 1,15,-1
 729 3205 l 1,12,-1
EndSplineSet
EndChar

StartChar: Ecircumflex
Encoding: 202 202 140
Width: 1929
GlyphClass: 2
Flags: W
LayerCount: 2
Fore
SplineSet
268 0 m 1,0,-1
 268 2796 l 1,1,-1
 1870 2796 l 1,2,-1
 1870 2425 l 1,3,-1
 731 2425 l 1,4,-1
 731 1626 l 1,5,-1
 1624 1626 l 1,6,-1
 1624 1253 l 1,7,-1
 731 1253 l 1,8,-1
 731 379 l 1,9,-1
 1888 379 l 1,10,-1
 1888 0 l 1,11,-1
 268 0 l 1,0,-1
344 3074 m 1,12,-1
 1076 3637 l 1,13,-1
 1809 3074 l 1,14,-1
 1444 3046 l 1,15,-1
 1076 3295 l 1,16,-1
 709 3046 l 1,17,-1
 344 3074 l 1,12,-1
EndSplineSet
EndChar

StartChar: Edieresis
Encoding: 203 203 141
Width: 1929
GlyphClass: 2
Flags: W
LayerCount: 2
Fore
SplineSet
268 0 m 1,0,-1
 268 2796 l 1,1,-1
 1870 2796 l 1,2,-1
 1870 2425 l 1,3,-1
 731 2425 l 1,4,-1
 731 1626 l 1,5,-1
 1624 1626 l 1,6,-1
 1624 1253 l 1,7,-1
 731 1253 l 1,8,-1
 731 379 l 1,9,-1
 1888 379 l 1,10,-1
 1888 0 l 1,11,-1
 268 0 l 1,0,-1
520 3306 m 0,12,13
 520 3396 520 3396 586.5 3457.5 c 128,-1,14
 653 3519 653 3519 743 3519 c 0,15,16
 831 3519 831 3519 898.5 3459.5 c 128,-1,17
 966 3400 966 3400 966 3306 c 0,18,19
 966 3214 966 3214 896.5 3155.5 c 128,-1,20
 827 3097 827 3097 743 3097 c 0,21,22
 661 3097 661 3097 590.5 3154.5 c 128,-1,23
 520 3212 520 3212 520 3306 c 0,12,13
1171 3306 m 0,24,25
 1171 3394 1171 3394 1237.5 3456.5 c 128,-1,26
 1304 3519 1304 3519 1394 3519 c 256,27,28
 1484 3519 1484 3519 1550.5 3457.5 c 128,-1,29
 1617 3396 1617 3396 1617 3306 c 0,30,31
 1617 3212 1617 3212 1547.5 3154.5 c 128,-1,32
 1478 3097 1478 3097 1394 3097 c 256,33,34
 1310 3097 1310 3097 1240.5 3155.5 c 128,-1,35
 1171 3214 1171 3214 1171 3306 c 0,24,25
EndSplineSet
EndChar

StartChar: Igrave
Encoding: 204 204 142
Width: 999
GlyphClass: 2
Flags: W
LayerCount: 2
Fore
SplineSet
-76 3486 m 1,0,-1
 146 3764 l 1,1,-1
 803 3189 l 1,2,-1
 647 3031 l 1,3,-1
 -76 3486 l 1,0,-1
268 0 m 1,4,-1
 268 2796 l 1,5,-1
 731 2796 l 1,6,-1
 731 0 l 1,7,-1
 268 0 l 1,4,-1
EndSplineSet
EndChar

StartChar: Iacute
Encoding: 205 205 143
Width: 999
GlyphClass: 2
Flags: W
LayerCount: 2
Fore
SplineSet
260 3189 m 1,0,-1
 917 3764 l 1,1,-1
 1138 3486 l 1,2,-1
 416 3031 l 1,3,-1
 260 3189 l 1,0,-1
268 0 m 1,4,-1
 268 2796 l 1,5,-1
 731 2796 l 1,6,-1
 731 0 l 1,7,-1
 268 0 l 1,4,-1
EndSplineSet
EndChar

StartChar: Icircumflex
Encoding: 206 206 144
Width: 999
GlyphClass: 2
Flags: W
LayerCount: 2
Fore
SplineSet
-232 3074 m 1,0,-1
 500 3637 l 1,1,-1
 1233 3074 l 1,2,-1
 868 3046 l 1,3,-1
 500 3295 l 1,4,-1
 133 3046 l 1,5,-1
 -232 3074 l 1,0,-1
268 0 m 1,6,-1
 268 2796 l 1,7,-1
 731 2796 l 1,8,-1
 731 0 l 1,9,-1
 268 0 l 1,6,-1
EndSplineSet
EndChar

StartChar: Idieresis
Encoding: 207 207 145
Width: 999
GlyphClass: 2
Flags: W
LayerCount: 2
Fore
SplineSet
-49 3306 m 0,0,1
 -49 3396 -49 3396 17.5 3457.5 c 128,-1,2
 84 3519 84 3519 174 3519 c 0,3,4
 262 3519 262 3519 329.5 3459.5 c 128,-1,5
 397 3400 397 3400 397 3306 c 0,6,7
 397 3214 397 3214 327.5 3155.5 c 128,-1,8
 258 3097 258 3097 174 3097 c 0,9,10
 92 3097 92 3097 21.5 3154.5 c 128,-1,11
 -49 3212 -49 3212 -49 3306 c 0,0,1
268 0 m 1,12,-1
 268 2796 l 1,13,-1
 731 2796 l 1,14,-1
 731 0 l 1,15,-1
 268 0 l 1,12,-1
602 3306 m 0,16,17
 602 3394 602 3394 668.5 3456.5 c 128,-1,18
 735 3519 735 3519 825 3519 c 256,19,20
 915 3519 915 3519 981.5 3457.5 c 128,-1,21
 1048 3396 1048 3396 1048 3306 c 0,22,23
 1048 3212 1048 3212 978.5 3154.5 c 128,-1,24
 909 3097 909 3097 825 3097 c 256,25,26
 741 3097 741 3097 671.5 3155.5 c 128,-1,27
 602 3214 602 3214 602 3306 c 0,16,17
EndSplineSet
EndChar

StartChar: Eth
Encoding: 208 208 146
Width: 2357
GlyphClass: 2
Flags: W
LayerCount: 2
Fore
SplineSet
33 1268 m 1,0,-1
 33 1618 l 1,1,-1
 270 1618 l 1,2,-1
 270 2796 l 1,3,-1
 899 2796 l 2,4,5
 1595 2796 1595 2796 1889 2406.5 c 128,-1,6
 2183 2017 2183 2017 2183 1442 c 0,7,8
 2183 1034 2183 1034 2057 712.5 c 128,-1,9
 1931 391 1931 391 1672 195.5 c 128,-1,10
 1413 0 1413 0 934 0 c 2,11,-1
 270 0 l 1,12,-1
 270 1268 l 1,13,-1
 33 1268 l 1,0,-1
733 371 m 1,14,-1
 926 371 l 2,15,16
 1329 371 1329 371 1511.5 649.5 c 128,-1,17
 1694 928 1694 928 1694 1397 c 0,18,19
 1694 2425 1694 2425 926 2425 c 2,20,-1
 733 2425 l 1,21,-1
 733 1618 l 1,22,-1
 1251 1618 l 1,23,-1
 1251 1268 l 1,24,-1
 733 1268 l 1,25,-1
 733 371 l 1,14,-1
EndSplineSet
EndChar

StartChar: Ntilde
Encoding: 209 209 147
Width: 2357
GlyphClass: 2
Flags: W
LayerCount: 2
Fore
SplineSet
254 0 m 1,0,-1
 254 2796 l 1,1,-1
 799 2796 l 1,2,-1
 1718 780 l 1,3,-1
 1718 2796 l 1,4,-1
 2105 2796 l 1,5,-1
 2105 0 l 1,6,-1
 1673 0 l 1,7,-1
 641 2238 l 1,8,-1
 641 0 l 1,9,-1
 254 0 l 1,0,-1
592 3199 m 1,10,11
 776 3512 776 3512 1005 3512 c 0,12,13
 1109 3512 1109 3512 1270 3420 c 0,14,15
 1422 3336 1422 3336 1497 3336 c 0,16,17
 1595 3336 1595 3336 1683 3490 c 1,18,-1
 1857 3373 l 1,19,20
 1675 3060 1675 3060 1440 3060 c 0,21,22
 1331 3060 1331 3060 1173 3152 c 0,23,24
 1030 3234 1030 3234 964 3234 c 0,25,26
 864 3234 864 3234 764 3082 c 1,27,-1
 592 3199 l 1,10,11
EndSplineSet
EndChar

StartChar: Ograve
Encoding: 210 210 148
Width: 2359
GlyphClass: 2
Flags: W
LayerCount: 2
Fore
SplineSet
176 1399 m 0,0,1
 176 2112 176 2112 434 2479.5 c 128,-1,2
 692 2847 692 2847 1184 2847 c 0,3,4
 1669 2847 1669 2847 1927 2481.5 c 128,-1,5
 2185 2116 2185 2116 2185 1399 c 256,6,7
 2185 682 2185 682 1929 315.5 c 128,-1,8
 1673 -51 1673 -51 1186 -51 c 0,9,10
 697 -51 697 -51 436.5 314.5 c 128,-1,11
 176 680 176 680 176 1399 c 0,0,1
579 3486 m 1,12,-1
 801 3764 l 1,13,-1
 1458 3189 l 1,14,-1
 1302 3031 l 1,15,-1
 579 3486 l 1,12,-1
662 1399 m 0,16,17
 662 912 662 912 774.5 621 c 128,-1,18
 887 330 887 330 1186 330 c 0,19,20
 1467 330 1467 330 1583.5 611.5 c 128,-1,21
 1700 893 1700 893 1700 1399 c 0,22,23
 1700 1897 1700 1897 1584 2182.5 c 128,-1,24
 1468 2468 1468 2468 1180 2468 c 0,25,26
 891 2468 891 2468 776.5 2181 c 128,-1,27
 662 1894 662 1894 662 1399 c 0,16,17
EndSplineSet
EndChar

StartChar: Oacute
Encoding: 211 211 149
Width: 2359
GlyphClass: 2
Flags: W
LayerCount: 2
Fore
SplineSet
176 1399 m 0,0,1
 176 2112 176 2112 434 2479.5 c 128,-1,2
 692 2847 692 2847 1184 2847 c 0,3,4
 1669 2847 1669 2847 1927 2481.5 c 128,-1,5
 2185 2116 2185 2116 2185 1399 c 256,6,7
 2185 682 2185 682 1929 315.5 c 128,-1,8
 1673 -51 1673 -51 1186 -51 c 0,9,10
 697 -51 697 -51 436.5 314.5 c 128,-1,11
 176 680 176 680 176 1399 c 0,0,1
662 1399 m 0,12,13
 662 912 662 912 774.5 621 c 128,-1,14
 887 330 887 330 1186 330 c 0,15,16
 1467 330 1467 330 1583.5 611.5 c 128,-1,17
 1700 893 1700 893 1700 1399 c 0,18,19
 1700 1897 1700 1897 1584 2182.5 c 128,-1,20
 1468 2468 1468 2468 1180 2468 c 0,21,22
 891 2468 891 2468 776.5 2181 c 128,-1,23
 662 1894 662 1894 662 1399 c 0,12,13
934 3189 m 1,24,-1
 1591 3764 l 1,25,-1
 1812 3486 l 1,26,-1
 1090 3031 l 1,27,-1
 934 3189 l 1,24,-1
EndSplineSet
EndChar

StartChar: Ocircumflex
Encoding: 212 212 150
Width: 2359
GlyphClass: 2
Flags: W
LayerCount: 2
Fore
SplineSet
176 1399 m 0,0,1
 176 2112 176 2112 434 2479.5 c 128,-1,2
 692 2847 692 2847 1184 2847 c 0,3,4
 1669 2847 1669 2847 1927 2481.5 c 128,-1,5
 2185 2116 2185 2116 2185 1399 c 256,6,7
 2185 682 2185 682 1929 315.5 c 128,-1,8
 1673 -51 1673 -51 1186 -51 c 0,9,10
 697 -51 697 -51 436.5 314.5 c 128,-1,11
 176 680 176 680 176 1399 c 0,0,1
462 3074 m 1,12,-1
 1194 3637 l 1,13,-1
 1927 3074 l 1,14,-1
 1562 3046 l 1,15,-1
 1194 3295 l 1,16,-1
 827 3046 l 1,17,-1
 462 3074 l 1,12,-1
662 1399 m 0,18,19
 662 912 662 912 774.5 621 c 128,-1,20
 887 330 887 330 1186 330 c 0,21,22
 1467 330 1467 330 1583.5 611.5 c 128,-1,23
 1700 893 1700 893 1700 1399 c 0,24,25
 1700 1897 1700 1897 1584 2182.5 c 128,-1,26
 1468 2468 1468 2468 1180 2468 c 0,27,28
 891 2468 891 2468 776.5 2181 c 128,-1,29
 662 1894 662 1894 662 1399 c 0,18,19
EndSplineSet
EndChar

StartChar: Otilde
Encoding: 213 213 151
Width: 2359
GlyphClass: 2
Flags: W
LayerCount: 2
Fore
SplineSet
176 1399 m 0,0,1
 176 2112 176 2112 434 2479.5 c 128,-1,2
 692 2847 692 2847 1184 2847 c 0,3,4
 1669 2847 1669 2847 1927 2481.5 c 128,-1,5
 2185 2116 2185 2116 2185 1399 c 256,6,7
 2185 682 2185 682 1929 315.5 c 128,-1,8
 1673 -51 1673 -51 1186 -51 c 0,9,10
 697 -51 697 -51 436.5 314.5 c 128,-1,11
 176 680 176 680 176 1399 c 0,0,1
580 3195 m 1,12,13
 764 3508 764 3508 993 3508 c 0,14,15
 1097 3508 1097 3508 1258 3416 c 0,16,17
 1410 3332 1410 3332 1485 3332 c 0,18,19
 1583 3332 1583 3332 1671 3486 c 1,20,-1
 1845 3369 l 1,21,22
 1663 3056 1663 3056 1428 3056 c 0,23,24
 1319 3056 1319 3056 1161 3148 c 0,25,26
 1018 3230 1018 3230 952 3230 c 0,27,28
 852 3230 852 3230 752 3078 c 1,29,-1
 580 3195 l 1,12,13
662 1399 m 0,30,31
 662 912 662 912 774.5 621 c 128,-1,32
 887 330 887 330 1186 330 c 0,33,34
 1467 330 1467 330 1583.5 611.5 c 128,-1,35
 1700 893 1700 893 1700 1399 c 0,36,37
 1700 1897 1700 1897 1584 2182.5 c 128,-1,38
 1468 2468 1468 2468 1180 2468 c 0,39,40
 891 2468 891 2468 776.5 2181 c 128,-1,41
 662 1894 662 1894 662 1399 c 0,30,31
EndSplineSet
EndChar

StartChar: Odieresis
Encoding: 214 214 152
Width: 2359
GlyphClass: 2
Flags: W
LayerCount: 2
Fore
SplineSet
176 1399 m 0,0,1
 176 2112 176 2112 434 2479.5 c 128,-1,2
 692 2847 692 2847 1184 2847 c 0,3,4
 1669 2847 1669 2847 1927 2481.5 c 128,-1,5
 2185 2116 2185 2116 2185 1399 c 256,6,7
 2185 682 2185 682 1929 315.5 c 128,-1,8
 1673 -51 1673 -51 1186 -51 c 0,9,10
 697 -51 697 -51 436.5 314.5 c 128,-1,11
 176 680 176 680 176 1399 c 0,0,1
633 3285 m 0,12,13
 633 3375 633 3375 699.5 3436.5 c 128,-1,14
 766 3498 766 3498 856 3498 c 0,15,16
 944 3498 944 3498 1011.5 3438.5 c 128,-1,17
 1079 3379 1079 3379 1079 3285 c 0,18,19
 1079 3193 1079 3193 1009.5 3134.5 c 128,-1,20
 940 3076 940 3076 856 3076 c 0,21,22
 774 3076 774 3076 703.5 3133.5 c 128,-1,23
 633 3191 633 3191 633 3285 c 0,12,13
662 1399 m 0,24,25
 662 912 662 912 774.5 621 c 128,-1,26
 887 330 887 330 1186 330 c 0,27,28
 1467 330 1467 330 1583.5 611.5 c 128,-1,29
 1700 893 1700 893 1700 1399 c 0,30,31
 1700 1897 1700 1897 1584 2182.5 c 128,-1,32
 1468 2468 1468 2468 1180 2468 c 0,33,34
 891 2468 891 2468 776.5 2181 c 128,-1,35
 662 1894 662 1894 662 1399 c 0,24,25
1284 3285 m 0,36,37
 1284 3373 1284 3373 1350.5 3435.5 c 128,-1,38
 1417 3498 1417 3498 1507 3498 c 256,39,40
 1597 3498 1597 3498 1663.5 3436.5 c 128,-1,41
 1730 3375 1730 3375 1730 3285 c 0,42,43
 1730 3191 1730 3191 1660.5 3133.5 c 128,-1,44
 1591 3076 1591 3076 1507 3076 c 256,45,46
 1423 3076 1423 3076 1353.5 3134.5 c 128,-1,47
 1284 3193 1284 3193 1284 3285 c 0,36,37
EndSplineSet
EndChar

StartChar: multiply
Encoding: 215 215 153
Width: 2142
GlyphClass: 2
Flags: W
LayerCount: 2
Fore
SplineSet
307 889 m 1,0,-1
 817 1399 l 1,1,-1
 307 1909 l 1,2,-1
 559 2161 l 1,3,-1
 1069 1651 l 1,4,-1
 1581 2161 l 1,5,-1
 1833 1909 l 1,6,-1
 1323 1399 l 1,7,-1
 1833 889 l 1,8,-1
 1581 637 l 1,9,-1
 1069 1145 l 1,10,-1
 559 637 l 1,11,-1
 307 889 l 1,0,-1
EndSplineSet
EndChar

StartChar: Oslash
Encoding: 216 216 154
Width: 2357
GlyphClass: 2
Flags: W
LayerCount: 2
Fore
SplineSet
184 1399 m 0,0,1
 184 2112 184 2112 439 2479.5 c 128,-1,2
 694 2847 694 2847 1182 2847 c 0,3,4
 1473 2847 1473 2847 1702 2703 c 1,5,-1
 1821 2951 l 1,6,-1
 2116 2951 l 1,7,-1
 1894 2511 l 1,8,9
 2170 2155 2170 2155 2171 1399 c 0,10,11
 2171 684 2171 684 1918 316.5 c 128,-1,12
 1665 -51 1665 -51 1188 -51 c 0,13,14
 1045 -51 1045 -51 990.5 -37 c 128,-1,15
 936 -23 936 -23 674 80 c 1,16,-1
 553 -170 l 1,17,-1
 258 -170 l 1,18,-1
 479 270 l 1,19,20
 184 616 184 616 184 1399 c 0,0,1
631 1399 m 0,21,22
 631 910 631 910 713 678 c 1,23,-1
 1505 2382 l 1,24,25
 1378 2486 1378 2486 1184 2486 c 0,26,27
 871 2486 871 2486 751 2196.5 c 128,-1,28
 631 1907 631 1907 631 1399 c 0,21,22
870 397 m 1,29,30
 993 309 993 309 1178 309 c 0,31,32
 1483 309 1483 309 1603.5 595 c 128,-1,33
 1724 881 1724 881 1724 1399 c 0,34,35
 1724 1880 1724 1880 1655 2085 c 1,36,-1
 870 397 l 1,29,30
EndSplineSet
EndChar

StartChar: Ugrave
Encoding: 217 217 155
Width: 2285
GlyphClass: 2
Flags: W
LayerCount: 2
Fore
SplineSet
248 1061 m 2,0,-1
 248 2796 l 1,1,-1
 700 2796 l 1,2,-1
 700 1061 l 2,3,4
 700 770 700 770 731 632 c 128,-1,5
 762 494 762 494 871.5 413 c 128,-1,6
 981 332 981 332 1167 332 c 0,7,8
 1343 332 1343 332 1441.5 398.5 c 128,-1,9
 1540 465 1540 465 1581 587 c 128,-1,10
 1622 709 1622 709 1622 1069 c 2,11,-1
 1622 2796 l 1,12,-1
 2038 2796 l 1,13,-1
 2038 1092 l 2,14,15
 2038 682 2038 682 1979.5 461 c 128,-1,16
 1921 240 1921 240 1709 94.5 c 128,-1,17
 1497 -51 1497 -51 1141 -51 c 0,18,19
 865 -51 865 -51 661 40 c 128,-1,20
 457 131 457 131 352.5 335 c 128,-1,21
 248 539 248 539 248 1061 c 2,0,-1
528 3486 m 1,22,-1
 750 3764 l 1,23,-1
 1407 3189 l 1,24,-1
 1251 3031 l 1,25,-1
 528 3486 l 1,22,-1
EndSplineSet
EndChar

StartChar: Uacute
Encoding: 218 218 156
Width: 2285
GlyphClass: 2
Flags: W
LayerCount: 2
Fore
SplineSet
248 1061 m 2,0,-1
 248 2796 l 1,1,-1
 700 2796 l 1,2,-1
 700 1061 l 2,3,4
 700 770 700 770 731 632 c 128,-1,5
 762 494 762 494 871.5 413 c 128,-1,6
 981 332 981 332 1167 332 c 0,7,8
 1343 332 1343 332 1441.5 398.5 c 128,-1,9
 1540 465 1540 465 1581 587 c 128,-1,10
 1622 709 1622 709 1622 1069 c 2,11,-1
 1622 2796 l 1,12,-1
 2038 2796 l 1,13,-1
 2038 1092 l 2,14,15
 2038 682 2038 682 1979.5 461 c 128,-1,16
 1921 240 1921 240 1709 94.5 c 128,-1,17
 1497 -51 1497 -51 1141 -51 c 0,18,19
 865 -51 865 -51 661 40 c 128,-1,20
 457 131 457 131 352.5 335 c 128,-1,21
 248 539 248 539 248 1061 c 2,0,-1
891 3189 m 1,22,-1
 1548 3764 l 1,23,-1
 1769 3486 l 1,24,-1
 1047 3031 l 1,25,-1
 891 3189 l 1,22,-1
EndSplineSet
EndChar

StartChar: Ucircumflex
Encoding: 219 219 157
Width: 2285
GlyphClass: 2
Flags: W
LayerCount: 2
Fore
SplineSet
248 1061 m 2,0,-1
 248 2796 l 1,1,-1
 700 2796 l 1,2,-1
 700 1061 l 2,3,4
 700 770 700 770 731 632 c 128,-1,5
 762 494 762 494 871.5 413 c 128,-1,6
 981 332 981 332 1167 332 c 0,7,8
 1343 332 1343 332 1441.5 398.5 c 128,-1,9
 1540 465 1540 465 1581 587 c 128,-1,10
 1622 709 1622 709 1622 1069 c 2,11,-1
 1622 2796 l 1,12,-1
 2038 2796 l 1,13,-1
 2038 1092 l 2,14,15
 2038 682 2038 682 1979.5 461 c 128,-1,16
 1921 240 1921 240 1709 94.5 c 128,-1,17
 1497 -51 1497 -51 1141 -51 c 0,18,19
 865 -51 865 -51 661 40 c 128,-1,20
 457 131 457 131 352.5 335 c 128,-1,21
 248 539 248 539 248 1061 c 2,0,-1
411 3074 m 1,22,-1
 1143 3637 l 1,23,-1
 1876 3074 l 1,24,-1
 1511 3046 l 1,25,-1
 1143 3295 l 1,26,-1
 776 3046 l 1,27,-1
 411 3074 l 1,22,-1
EndSplineSet
EndChar

StartChar: Udieresis
Encoding: 220 220 158
Width: 2285
GlyphClass: 2
Flags: W
LayerCount: 2
Fore
SplineSet
248 1061 m 2,0,-1
 248 2796 l 1,1,-1
 700 2796 l 1,2,-1
 700 1061 l 2,3,4
 700 770 700 770 731 632 c 128,-1,5
 762 494 762 494 871.5 413 c 128,-1,6
 981 332 981 332 1167 332 c 0,7,8
 1343 332 1343 332 1441.5 398.5 c 128,-1,9
 1540 465 1540 465 1581 587 c 128,-1,10
 1622 709 1622 709 1622 1069 c 2,11,-1
 1622 2796 l 1,12,-1
 2038 2796 l 1,13,-1
 2038 1092 l 2,14,15
 2038 682 2038 682 1979.5 461 c 128,-1,16
 1921 240 1921 240 1709 94.5 c 128,-1,17
 1497 -51 1497 -51 1141 -51 c 0,18,19
 865 -51 865 -51 661 40 c 128,-1,20
 457 131 457 131 352.5 335 c 128,-1,21
 248 539 248 539 248 1061 c 2,0,-1
613 3285 m 0,22,23
 613 3375 613 3375 679.5 3436.5 c 128,-1,24
 746 3498 746 3498 836 3498 c 0,25,26
 924 3498 924 3498 991.5 3438.5 c 128,-1,27
 1059 3379 1059 3379 1059 3285 c 0,28,29
 1059 3193 1059 3193 989.5 3134.5 c 128,-1,30
 920 3076 920 3076 836 3076 c 0,31,32
 754 3076 754 3076 683.5 3133.5 c 128,-1,33
 613 3191 613 3191 613 3285 c 0,22,23
1264 3285 m 0,34,35
 1264 3373 1264 3373 1330.5 3435.5 c 128,-1,36
 1397 3498 1397 3498 1487 3498 c 256,37,38
 1577 3498 1577 3498 1643.5 3436.5 c 128,-1,39
 1710 3375 1710 3375 1710 3285 c 0,40,41
 1710 3191 1710 3191 1640.5 3133.5 c 128,-1,42
 1571 3076 1571 3076 1487 3076 c 256,43,44
 1403 3076 1403 3076 1333.5 3134.5 c 128,-1,45
 1264 3193 1264 3193 1264 3285 c 0,34,35
EndSplineSet
EndChar

StartChar: Yacute
Encoding: 221 221 159
Width: 1714
GlyphClass: 2
Flags: W
LayerCount: 2
Fore
SplineSet
-133 2796 m 1,0,-1
 369 2796 l 1,1,-1
 883 1630 l 1,2,-1
 1405 2796 l 1,3,-1
 1847 2796 l 1,4,-1
 1071 1182 l 1,5,-1
 1071 0 l 1,6,-1
 610 0 l 1,7,-1
 610 1182 l 1,8,-1
 -133 2796 l 1,0,-1
615 3189 m 1,9,-1
 1272 3764 l 1,10,-1
 1493 3486 l 1,11,-1
 771 3031 l 1,12,-1
 615 3189 l 1,9,-1
EndSplineSet
EndChar

StartChar: Thorn
Encoding: 222 222 160
Width: 2072
GlyphClass: 2
Flags: W
LayerCount: 2
Fore
SplineSet
268 0 m 1,0,-1
 268 2796 l 1,1,-1
 731 2796 l 1,2,-1
 731 2363 l 1,3,-1
 961 2363 l 2,4,5
 1297 2363 1297 2363 1503.5 2298.5 c 128,-1,6
 1710 2234 1710 2234 1849.5 2019 c 128,-1,7
 1989 1804 1989 1804 1989 1509 c 0,8,9
 1989 1230 1989 1230 1874 1032 c 128,-1,10
 1759 834 1759 834 1565.5 745.5 c 128,-1,11
 1372 657 1372 657 971 657 c 2,12,-1
 731 657 l 1,13,-1
 731 0 l 1,14,-1
 268 0 l 1,0,-1
731 1028 m 1,15,-1
 961 1028 l 2,16,17
 1268 1028 1268 1028 1385.5 1142.5 c 128,-1,18
 1503 1257 1503 1257 1503 1518 c 0,19,20
 1503 1708 1503 1708 1425.5 1828 c 128,-1,21
 1348 1948 1348 1948 1254.5 1976.5 c 128,-1,22
 1161 2005 1161 2005 961 2005 c 2,23,-1
 731 2005 l 1,24,-1
 731 1028 l 1,15,-1
EndSplineSet
EndChar

StartChar: germandbls
Encoding: 223 223 161
Width: 2144
GlyphClass: 2
Flags: W
LayerCount: 2
Fore
SplineSet
33 1534 m 1,0,-1
 33 1876 l 1,1,-1
 276 1876 l 1,2,3
 276 2130 276 2130 305 2290.5 c 128,-1,4
 334 2451 334 2451 442.5 2606 c 128,-1,5
 551 2761 551 2761 733 2848 c 128,-1,6
 915 2935 915 2935 1143 2935 c 0,7,8
 1452 2935 1452 2935 1641.5 2765 c 128,-1,9
 1831 2595 1831 2595 1831 2341 c 0,10,11
 1831 1864 1831 1864 1159 1700 c 1,12,13
 1179 1626 1179 1626 1448 1499 c 0,14,15
 1837 1317 1837 1317 1957 1130.5 c 128,-1,16
 2077 944 2077 944 2077 719 c 0,17,18
 2077 377 2077 377 1872 163 c 128,-1,19
 1667 -51 1667 -51 1319 -51 c 0,20,21
 1126 -51 1126 -51 913 27 c 1,22,-1
 1020 338 l 1,23,24
 1182 270 1182 270 1327 270 c 0,25,26
 1487 270 1487 270 1580 375.5 c 128,-1,27
 1673 481 1673 481 1673 649 c 0,28,29
 1673 819 1673 819 1589 913.5 c 128,-1,30
 1505 1008 1505 1008 1270 1137 c 0,31,32
 1028 1272 1028 1272 942 1382.5 c 128,-1,33
 856 1493 856 1493 856 1632 c 0,34,35
 856 1734 856 1734 909 1884 c 1,36,37
 1421 1980 1421 1980 1421 2294 c 0,38,39
 1421 2444 1421 2444 1330 2535 c 128,-1,40
 1239 2626 1239 2626 1085 2626 c 0,41,42
 944 2626 944 2626 852 2537.5 c 128,-1,43
 760 2449 760 2449 732.5 2313 c 128,-1,44
 705 2177 705 2177 705 1884 c 2,45,-1
 705 -193 l 1,46,-1
 276 -193 l 1,47,-1
 276 1534 l 1,48,-1
 33 1534 l 1,0,-1
EndSplineSet
EndChar

StartChar: agrave
Encoding: 224 224 162
Width: 1929
GlyphClass: 2
Flags: W
LayerCount: 2
Fore
SplineSet
147 547 m 0,0,1
 147 885 147 885 379.5 1081.5 c 128,-1,2
 612 1278 612 1278 1186 1278 c 0,3,4
 1215 1278 1215 1278 1276 1276 c 1,5,-1
 1276 1360 l 2,6,7
 1276 1581 1276 1581 1209.5 1693.5 c 128,-1,8
 1143 1806 1143 1806 971 1806 c 0,9,10
 690 1807 690 1807 635 1483 c 1,11,-1
 223 1534 l 1,12,13
 264 1810 264 1810 478 1964 c 128,-1,14
 692 2118 692 2118 1004 2118 c 0,15,16
 1283 2118 1283 2118 1449.5 2006 c 128,-1,17
 1616 1894 1616 1894 1659 1740.5 c 128,-1,18
 1702 1587 1702 1587 1702 1276 c 2,19,-1
 1702 571 l 2,20,21
 1702 143 1702 143 1739 0 c 1,22,-1
 1335 0 l 1,23,24
 1308 113 1308 113 1309 344 c 1,25,26
 1114 -51 1114 -51 727 -51 c 0,27,28
 465 -51 465 -51 306 109.5 c 128,-1,29
 147 270 147 270 147 547 c 0,0,1
405 2771 m 1,30,-1
 627 3049 l 1,31,-1
 1284 2474 l 1,32,-1
 1128 2316 l 1,33,-1
 405 2771 l 1,30,-1
594 580 m 0,34,35
 594 263 594 263 870 262 c 0,36,37
 1032 262 1032 262 1154 434 c 128,-1,38
 1276 606 1276 606 1276 907 c 2,39,-1
 1276 1008 l 1,40,41
 1194 1016 1194 1016 1151 1016 c 0,42,43
 594 1016 594 1016 594 580 c 0,34,35
EndSplineSet
EndChar

StartChar: aacute
Encoding: 225 225 163
Width: 1929
GlyphClass: 2
Flags: W
LayerCount: 2
Fore
SplineSet
147 547 m 0,0,1
 147 885 147 885 379.5 1081.5 c 128,-1,2
 612 1278 612 1278 1186 1278 c 0,3,4
 1215 1278 1215 1278 1276 1276 c 1,5,-1
 1276 1360 l 2,6,7
 1276 1581 1276 1581 1209.5 1693.5 c 128,-1,8
 1143 1806 1143 1806 971 1806 c 0,9,10
 690 1807 690 1807 635 1483 c 1,11,-1
 223 1534 l 1,12,13
 264 1810 264 1810 478 1964 c 128,-1,14
 692 2118 692 2118 1004 2118 c 0,15,16
 1283 2118 1283 2118 1449.5 2006 c 128,-1,17
 1616 1894 1616 1894 1659 1740.5 c 128,-1,18
 1702 1587 1702 1587 1702 1276 c 2,19,-1
 1702 571 l 2,20,21
 1702 143 1702 143 1739 0 c 1,22,-1
 1335 0 l 1,23,24
 1308 113 1308 113 1309 344 c 1,25,26
 1114 -51 1114 -51 727 -51 c 0,27,28
 465 -51 465 -51 306 109.5 c 128,-1,29
 147 270 147 270 147 547 c 0,0,1
594 580 m 0,30,31
 594 263 594 263 870 262 c 0,32,33
 1032 262 1032 262 1154 434 c 128,-1,34
 1276 606 1276 606 1276 907 c 2,35,-1
 1276 1008 l 1,36,37
 1194 1016 1194 1016 1151 1016 c 0,38,39
 594 1016 594 1016 594 580 c 0,30,31
727 2474 m 1,40,-1
 1384 3049 l 1,41,-1
 1605 2771 l 1,42,-1
 883 2316 l 1,43,-1
 727 2474 l 1,40,-1
EndSplineSet
EndChar

StartChar: acircumflex
Encoding: 226 226 164
Width: 1929
GlyphClass: 2
Flags: W
LayerCount: 2
Fore
SplineSet
147 547 m 0,0,1
 147 885 147 885 379.5 1081.5 c 128,-1,2
 612 1278 612 1278 1186 1278 c 0,3,4
 1215 1278 1215 1278 1276 1276 c 1,5,-1
 1276 1360 l 2,6,7
 1276 1581 1276 1581 1209.5 1693.5 c 128,-1,8
 1143 1806 1143 1806 971 1806 c 0,9,10
 690 1807 690 1807 635 1483 c 1,11,-1
 223 1534 l 1,12,13
 264 1810 264 1810 478 1964 c 128,-1,14
 692 2118 692 2118 1004 2118 c 0,15,16
 1283 2118 1283 2118 1449.5 2006 c 128,-1,17
 1616 1894 1616 1894 1659 1740.5 c 128,-1,18
 1702 1587 1702 1587 1702 1276 c 2,19,-1
 1702 571 l 2,20,21
 1702 143 1702 143 1739 0 c 1,22,-1
 1335 0 l 1,23,24
 1308 113 1308 113 1309 344 c 1,25,26
 1114 -51 1114 -51 727 -51 c 0,27,28
 465 -51 465 -51 306 109.5 c 128,-1,29
 147 270 147 270 147 547 c 0,0,1
215 2359 m 1,30,-1
 947 2922 l 1,31,-1
 1680 2359 l 1,32,-1
 1315 2331 l 1,33,-1
 947 2580 l 1,34,-1
 580 2331 l 1,35,-1
 215 2359 l 1,30,-1
594 580 m 0,36,37
 594 263 594 263 870 262 c 0,38,39
 1032 262 1032 262 1154 434 c 128,-1,40
 1276 606 1276 606 1276 907 c 2,41,-1
 1276 1008 l 1,42,43
 1194 1016 1194 1016 1151 1016 c 0,44,45
 594 1016 594 1016 594 580 c 0,36,37
EndSplineSet
EndChar

StartChar: atilde
Encoding: 227 227 165
Width: 1929
GlyphClass: 2
Flags: W
LayerCount: 2
Fore
SplineSet
147 547 m 0,0,1
 147 885 147 885 379.5 1081.5 c 128,-1,2
 612 1278 612 1278 1186 1278 c 0,3,4
 1215 1278 1215 1278 1276 1276 c 1,5,-1
 1276 1360 l 2,6,7
 1276 1581 1276 1581 1209.5 1693.5 c 128,-1,8
 1143 1806 1143 1806 971 1806 c 0,9,10
 690 1807 690 1807 635 1483 c 1,11,-1
 223 1534 l 1,12,13
 264 1810 264 1810 478 1964 c 128,-1,14
 692 2118 692 2118 1004 2118 c 0,15,16
 1283 2118 1283 2118 1449.5 2006 c 128,-1,17
 1616 1894 1616 1894 1659 1740.5 c 128,-1,18
 1702 1587 1702 1587 1702 1276 c 2,19,-1
 1702 571 l 2,20,21
 1702 143 1702 143 1739 0 c 1,22,-1
 1335 0 l 1,23,24
 1308 113 1308 113 1309 344 c 1,25,26
 1114 -51 1114 -51 727 -51 c 0,27,28
 465 -51 465 -51 306 109.5 c 128,-1,29
 147 270 147 270 147 547 c 0,0,1
375 2513 m 1,30,31
 559 2826 559 2826 788 2826 c 0,32,33
 892 2826 892 2826 1053 2734 c 0,34,35
 1205 2650 1205 2650 1280 2650 c 0,36,37
 1378 2650 1378 2650 1466 2804 c 1,38,-1
 1640 2687 l 1,39,40
 1458 2374 1458 2374 1223 2374 c 0,41,42
 1114 2374 1114 2374 956 2466 c 0,43,44
 813 2548 813 2548 747 2548 c 0,45,46
 647 2548 647 2548 547 2396 c 1,47,-1
 375 2513 l 1,30,31
594 580 m 0,48,49
 594 263 594 263 870 262 c 0,50,51
 1032 262 1032 262 1154 434 c 128,-1,52
 1276 606 1276 606 1276 907 c 2,53,-1
 1276 1008 l 1,54,55
 1194 1016 1194 1016 1151 1016 c 0,56,57
 594 1016 594 1016 594 580 c 0,48,49
EndSplineSet
EndChar

StartChar: adieresis
Encoding: 228 228 166
Width: 1929
GlyphClass: 2
Flags: W
LayerCount: 2
Fore
SplineSet
147 547 m 0,0,1
 147 885 147 885 379.5 1081.5 c 128,-1,2
 612 1278 612 1278 1186 1278 c 0,3,4
 1215 1278 1215 1278 1276 1276 c 1,5,-1
 1276 1360 l 2,6,7
 1276 1581 1276 1581 1209.5 1693.5 c 128,-1,8
 1143 1806 1143 1806 971 1806 c 0,9,10
 690 1807 690 1807 635 1483 c 1,11,-1
 223 1534 l 1,12,13
 264 1810 264 1810 478 1964 c 128,-1,14
 692 2118 692 2118 1004 2118 c 0,15,16
 1283 2118 1283 2118 1449.5 2006 c 128,-1,17
 1616 1894 1616 1894 1659 1740.5 c 128,-1,18
 1702 1587 1702 1587 1702 1276 c 2,19,-1
 1702 571 l 2,20,21
 1702 143 1702 143 1739 0 c 1,22,-1
 1335 0 l 1,23,24
 1308 113 1308 113 1309 344 c 1,25,26
 1114 -51 1114 -51 727 -51 c 0,27,28
 465 -51 465 -51 306 109.5 c 128,-1,29
 147 270 147 270 147 547 c 0,0,1
449 2591 m 0,30,31
 449 2681 449 2681 515.5 2742.5 c 128,-1,32
 582 2804 582 2804 672 2804 c 0,33,34
 760 2804 760 2804 827.5 2744.5 c 128,-1,35
 895 2685 895 2685 895 2591 c 0,36,37
 895 2499 895 2499 825.5 2440.5 c 128,-1,38
 756 2382 756 2382 672 2382 c 0,39,40
 590 2382 590 2382 519.5 2439.5 c 128,-1,41
 449 2497 449 2497 449 2591 c 0,30,31
594 580 m 0,42,43
 594 263 594 263 870 262 c 0,44,45
 1032 262 1032 262 1154 434 c 128,-1,46
 1276 606 1276 606 1276 907 c 2,47,-1
 1276 1008 l 1,48,49
 1194 1016 1194 1016 1151 1016 c 0,50,51
 594 1016 594 1016 594 580 c 0,42,43
1100 2591 m 0,52,53
 1100 2679 1100 2679 1166.5 2741.5 c 128,-1,54
 1233 2804 1233 2804 1323 2804 c 256,55,56
 1413 2804 1413 2804 1479.5 2742.5 c 128,-1,57
 1546 2681 1546 2681 1546 2591 c 0,58,59
 1546 2497 1546 2497 1476.5 2439.5 c 128,-1,60
 1407 2382 1407 2382 1323 2382 c 256,61,62
 1239 2382 1239 2382 1169.5 2440.5 c 128,-1,63
 1100 2499 1100 2499 1100 2591 c 0,52,53
EndSplineSet
EndChar

StartChar: aring
Encoding: 229 229 167
Width: 1929
GlyphClass: 2
Flags: W
LayerCount: 2
Fore
SplineSet
147 547 m 0,0,1
 147 885 147 885 379.5 1081.5 c 128,-1,2
 612 1278 612 1278 1186 1278 c 0,3,4
 1215 1278 1215 1278 1276 1276 c 1,5,-1
 1276 1360 l 2,6,7
 1276 1581 1276 1581 1209.5 1693.5 c 128,-1,8
 1143 1806 1143 1806 971 1806 c 0,9,10
 690 1807 690 1807 635 1483 c 1,11,-1
 223 1534 l 1,12,13
 264 1810 264 1810 478 1964 c 128,-1,14
 692 2118 692 2118 1004 2118 c 0,15,16
 1283 2118 1283 2118 1449.5 2006 c 128,-1,17
 1616 1894 1616 1894 1659 1740.5 c 128,-1,18
 1702 1587 1702 1587 1702 1276 c 2,19,-1
 1702 571 l 2,20,21
 1702 143 1702 143 1739 0 c 1,22,-1
 1335 0 l 1,23,24
 1308 113 1308 113 1309 344 c 1,25,26
 1114 -51 1114 -51 727 -51 c 0,27,28
 465 -51 465 -51 306 109.5 c 128,-1,29
 147 270 147 270 147 547 c 0,0,1
594 580 m 0,30,31
 594 263 594 263 870 262 c 0,32,33
 1032 262 1032 262 1154 434 c 128,-1,34
 1276 606 1276 606 1276 907 c 2,35,-1
 1276 1008 l 1,36,37
 1194 1016 1194 1016 1151 1016 c 0,38,39
 594 1016 594 1016 594 580 c 0,30,31
611 2664 m 0,40,41
 611 2828 611 2828 725.5 2941 c 128,-1,42
 840 3054 840 3054 996 3054 c 256,43,44
 1152 3054 1152 3054 1266.5 2941 c 128,-1,45
 1381 2828 1381 2828 1381 2664 c 0,46,47
 1381 2498 1381 2498 1261 2389.5 c 128,-1,48
 1141 2281 1141 2281 996 2281 c 0,49,50
 853 2281 853 2281 732 2388.5 c 128,-1,51
 611 2496 611 2496 611 2664 c 0,40,41
819 2666 m 256,52,53
 819 2588 819 2588 873.5 2538 c 128,-1,54
 928 2488 928 2488 996 2488 c 256,55,56
 1064 2488 1064 2488 1118 2538.5 c 128,-1,57
 1172 2589 1172 2589 1172 2664 c 0,58,59
 1172 2742 1172 2742 1119.5 2795.5 c 128,-1,60
 1067 2849 1067 2849 996 2849 c 0,61,62
 926 2849 926 2849 872.5 2796.5 c 128,-1,63
 819 2744 819 2744 819 2666 c 256,52,53
EndSplineSet
EndChar

StartChar: ae
Encoding: 230 230 168
Width: 2928
GlyphClass: 2
Flags: W
LayerCount: 2
Fore
SplineSet
147 545 m 0,0,1
 147 807 147 807 281.5 981 c 128,-1,2
 416 1155 416 1155 642 1216.5 c 128,-1,3
 868 1278 868 1278 1255 1278 c 1,4,-1
 1257 1386 l 1,5,6
 1257 1806 1257 1806 948 1806 c 0,7,8
 672 1806 672 1806 610 1477 c 1,9,-1
 219 1528 l 1,10,11
 260 1809 260 1809 461 1963.5 c 128,-1,12
 662 2118 662 2118 971 2118 c 0,13,14
 1362 2118 1362 2118 1522 1864 c 1,15,16
 1723 2108 1723 2108 2075 2107 c 0,17,18
 2390 2107 2390 2107 2604 1838 c 128,-1,19
 2818 1569 2818 1569 2826 971 c 1,20,-1
 1667 971 l 1,21,22
 1667 559 1667 559 1779.5 414.5 c 128,-1,23
 1892 270 1892 270 2066 270 c 0,24,25
 2342 270 2342 270 2421 653 c 1,26,-1
 2802 602 l 1,27,28
 2667 -51 2667 -51 2060 -51 c 0,29,30
 1622 -51 1622 -51 1434 338 c 1,31,32
 1205 -51 1205 -51 754 -51 c 0,33,34
 447 -51 447 -51 297 127 c 128,-1,35
 147 305 147 305 147 545 c 0,0,1
586 578 m 0,36,37
 586 263 586 263 854 262 c 0,38,39
 1032 262 1032 262 1146 433 c 128,-1,40
 1260 604 1260 604 1260 899 c 0,41,42
 1259 936 1259 936 1255 1010 c 1,43,44
 1179 1018 1179 1018 1137 1018 c 0,45,46
 586 1018 586 1018 586 578 c 0,36,37
1673 1260 m 1,47,-1
 2394 1260 l 1,48,49
 2380 1807 2380 1807 2044 1806 c 0,50,51
 1714 1806 1714 1806 1673 1260 c 1,47,-1
EndSplineSet
EndChar

StartChar: ccedilla
Encoding: 231 231 169
Width: 1714
GlyphClass: 2
Flags: W
LayerCount: 2
Fore
SplineSet
150 1026 m 0,0,1
 150 1563 150 1563 356.5 1840.5 c 128,-1,2
 563 2118 563 2118 958 2118 c 0,3,4
 1596 2117 1596 2117 1686 1372 c 1,5,-1
 1274 1327 l 1,6,7
 1243 1597 1243 1597 1169.5 1688.5 c 128,-1,8
 1096 1780 1096 1780 961 1780 c 0,9,10
 771 1780 771 1780 684.5 1605 c 128,-1,11
 598 1430 598 1430 598 989 c 0,12,13
 598 301 598 301 961 301 c 0,14,15
 1240 301 1240 301 1274 750 c 1,16,-1
 1686 713 l 1,17,18
 1635 303 1635 303 1454.5 133 c 128,-1,19
 1274 -37 1274 -37 963 -49 c 1,20,-1
 913 -195 l 1,21,-1
 971 -195 l 2,22,23
 1157 -195 1157 -195 1243 -285 c 128,-1,24
 1329 -375 1329 -375 1329 -494 c 0,25,26
 1329 -639 1329 -639 1213.5 -737.5 c 128,-1,27
 1098 -836 1098 -836 909 -836 c 0,28,29
 708 -836 708 -836 506 -707 c 1,30,-1
 563 -553 l 1,31,32
 733 -633 733 -633 870 -633 c 0,33,34
 1038 -633 1038 -633 1038 -504 c 0,35,36
 1038 -344 1038 -344 786 -344 c 0,37,38
 753 -344 753 -344 662 -348 c 1,39,-1
 770 -39 l 1,40,41
 149 82 149 82 150 1026 c 0,0,1
EndSplineSet
EndChar

StartChar: egrave
Encoding: 232 232 170
Width: 1857
GlyphClass: 2
Flags: W
LayerCount: 2
Fore
SplineSet
150 1004 m 0,0,1
 150 1536 150 1536 375 1827 c 128,-1,2
 600 2118 600 2118 977 2118 c 0,3,4
 1241 2118 1241 2118 1421.5 1972.5 c 128,-1,5
 1602 1827 1602 1827 1675.5 1590.5 c 128,-1,6
 1749 1354 1749 1354 1755 971 c 1,7,-1
 586 971 l 1,8,9
 586 551 586 551 699.5 410.5 c 128,-1,10
 813 270 813 270 985 270 c 0,11,12
 1272 270 1272 270 1348 657 c 1,13,-1
 1737 606 l 1,14,15
 1583 -51 1583 -51 971 -51 c 0,16,17
 596 -51 596 -51 373 217 c 128,-1,18
 150 485 150 485 150 1004 c 0,0,1
428 2771 m 1,19,-1
 650 3049 l 1,20,-1
 1307 2474 l 1,21,-1
 1151 2316 l 1,22,-1
 428 2771 l 1,19,-1
596 1260 m 1,23,-1
 1319 1260 l 1,24,25
 1319 1807 1319 1807 963 1806 c 0,26,27
 629 1806 629 1806 596 1260 c 1,23,-1
EndSplineSet
EndChar

StartChar: eacute
Encoding: 233 233 171
Width: 1857
GlyphClass: 2
Flags: W
LayerCount: 2
Fore
SplineSet
150 1004 m 0,0,1
 150 1536 150 1536 375 1827 c 128,-1,2
 600 2118 600 2118 977 2118 c 0,3,4
 1241 2118 1241 2118 1421.5 1972.5 c 128,-1,5
 1602 1827 1602 1827 1675.5 1590.5 c 128,-1,6
 1749 1354 1749 1354 1755 971 c 1,7,-1
 586 971 l 1,8,9
 586 551 586 551 699.5 410.5 c 128,-1,10
 813 270 813 270 985 270 c 0,11,12
 1272 270 1272 270 1348 657 c 1,13,-1
 1737 606 l 1,14,15
 1583 -51 1583 -51 971 -51 c 0,16,17
 596 -51 596 -51 373 217 c 128,-1,18
 150 485 150 485 150 1004 c 0,0,1
596 1260 m 1,19,-1
 1319 1260 l 1,20,21
 1319 1807 1319 1807 963 1806 c 0,22,23
 629 1806 629 1806 596 1260 c 1,19,-1
647 2474 m 1,24,-1
 1304 3049 l 1,25,-1
 1525 2771 l 1,26,-1
 803 2316 l 1,27,-1
 647 2474 l 1,24,-1
EndSplineSet
EndChar

StartChar: ecircumflex
Encoding: 234 234 172
Width: 1857
GlyphClass: 2
Flags: W
LayerCount: 2
Fore
SplineSet
150 1004 m 0,0,1
 150 1536 150 1536 375 1827 c 128,-1,2
 600 2118 600 2118 977 2118 c 0,3,4
 1241 2118 1241 2118 1421.5 1972.5 c 128,-1,5
 1602 1827 1602 1827 1675.5 1590.5 c 128,-1,6
 1749 1354 1749 1354 1755 971 c 1,7,-1
 586 971 l 1,8,9
 586 551 586 551 699.5 410.5 c 128,-1,10
 813 270 813 270 985 270 c 0,11,12
 1272 270 1272 270 1348 657 c 1,13,-1
 1737 606 l 1,14,15
 1583 -51 1583 -51 971 -51 c 0,16,17
 596 -51 596 -51 373 217 c 128,-1,18
 150 485 150 485 150 1004 c 0,0,1
245 2359 m 1,19,-1
 977 2922 l 1,20,-1
 1710 2359 l 1,21,-1
 1345 2331 l 1,22,-1
 977 2580 l 1,23,-1
 610 2331 l 1,24,-1
 245 2359 l 1,19,-1
596 1260 m 1,25,-1
 1319 1260 l 1,26,27
 1319 1807 1319 1807 963 1806 c 0,28,29
 629 1806 629 1806 596 1260 c 1,25,-1
EndSplineSet
EndChar

StartChar: edieresis
Encoding: 235 235 173
Width: 1857
GlyphClass: 2
Flags: W
LayerCount: 2
Fore
SplineSet
150 1004 m 0,0,1
 150 1536 150 1536 375 1827 c 128,-1,2
 600 2118 600 2118 977 2118 c 0,3,4
 1241 2118 1241 2118 1421.5 1972.5 c 128,-1,5
 1602 1827 1602 1827 1675.5 1590.5 c 128,-1,6
 1749 1354 1749 1354 1755 971 c 1,7,-1
 586 971 l 1,8,9
 586 551 586 551 699.5 410.5 c 128,-1,10
 813 270 813 270 985 270 c 0,11,12
 1272 270 1272 270 1348 657 c 1,13,-1
 1737 606 l 1,14,15
 1583 -51 1583 -51 971 -51 c 0,16,17
 596 -51 596 -51 373 217 c 128,-1,18
 150 485 150 485 150 1004 c 0,0,1
428 2591 m 0,19,20
 428 2681 428 2681 494.5 2742.5 c 128,-1,21
 561 2804 561 2804 651 2804 c 0,22,23
 739 2804 739 2804 806.5 2744.5 c 128,-1,24
 874 2685 874 2685 874 2591 c 0,25,26
 874 2499 874 2499 804.5 2440.5 c 128,-1,27
 735 2382 735 2382 651 2382 c 0,28,29
 569 2382 569 2382 498.5 2439.5 c 128,-1,30
 428 2497 428 2497 428 2591 c 0,19,20
596 1260 m 1,31,-1
 1319 1260 l 1,32,33
 1319 1807 1319 1807 963 1806 c 0,34,35
 629 1806 629 1806 596 1260 c 1,31,-1
1079 2591 m 0,36,37
 1079 2679 1079 2679 1145.5 2741.5 c 128,-1,38
 1212 2804 1212 2804 1302 2804 c 256,39,40
 1392 2804 1392 2804 1458.5 2742.5 c 128,-1,41
 1525 2681 1525 2681 1525 2591 c 0,42,43
 1525 2497 1525 2497 1455.5 2439.5 c 128,-1,44
 1386 2382 1386 2382 1302 2382 c 256,45,46
 1218 2382 1218 2382 1148.5 2440.5 c 128,-1,47
 1079 2499 1079 2499 1079 2591 c 0,36,37
EndSplineSet
EndChar

StartChar: igrave
Encoding: 236 236 174
Width: 929
GlyphClass: 2
Flags: W
LayerCount: 2
Fore
SplineSet
-84 2771 m 1,0,-1
 138 3049 l 1,1,-1
 795 2474 l 1,2,-1
 639 2316 l 1,3,-1
 -84 2771 l 1,0,-1
252 0 m 1,4,-1
 252 2068 l 1,5,-1
 678 2068 l 1,6,-1
 678 0 l 1,7,-1
 252 0 l 1,4,-1
EndSplineSet
EndChar

StartChar: iacute
Encoding: 237 237 175
Width: 929
GlyphClass: 2
Flags: W
LayerCount: 2
Fore
SplineSet
135 2474 m 1,0,-1
 792 3049 l 1,1,-1
 1013 2771 l 1,2,-1
 291 2316 l 1,3,-1
 135 2474 l 1,0,-1
252 0 m 1,4,-1
 252 2068 l 1,5,-1
 678 2068 l 1,6,-1
 678 0 l 1,7,-1
 252 0 l 1,4,-1
EndSplineSet
EndChar

StartChar: icircumflex
Encoding: 238 238 176
Width: 929
GlyphClass: 2
Flags: W
LayerCount: 2
Fore
SplineSet
-267 2359 m 1,0,-1
 465 2922 l 1,1,-1
 1198 2359 l 1,2,-1
 833 2331 l 1,3,-1
 465 2580 l 1,4,-1
 98 2331 l 1,5,-1
 -267 2359 l 1,0,-1
250 0 m 1,6,-1
 250 2068 l 1,7,-1
 676 2068 l 1,8,-1
 676 0 l 1,9,-1
 250 0 l 1,6,-1
EndSplineSet
EndChar

StartChar: idieresis
Encoding: 239 239 177
Width: 929
GlyphClass: 2
Flags: W
LayerCount: 2
Fore
SplineSet
-84 2591 m 0,0,1
 -84 2681 -84 2681 -17.5 2742.5 c 128,-1,2
 49 2804 49 2804 139 2804 c 0,3,4
 227 2804 227 2804 294.5 2744.5 c 128,-1,5
 362 2685 362 2685 362 2591 c 0,6,7
 362 2499 362 2499 292.5 2440.5 c 128,-1,8
 223 2382 223 2382 139 2382 c 0,9,10
 57 2382 57 2382 -13.5 2439.5 c 128,-1,11
 -84 2497 -84 2497 -84 2591 c 0,0,1
252 0 m 1,12,-1
 252 2068 l 1,13,-1
 678 2068 l 1,14,-1
 678 0 l 1,15,-1
 252 0 l 1,12,-1
567 2591 m 0,16,17
 567 2679 567 2679 633.5 2741.5 c 128,-1,18
 700 2804 700 2804 790 2804 c 256,19,20
 880 2804 880 2804 946.5 2742.5 c 128,-1,21
 1013 2681 1013 2681 1013 2591 c 0,22,23
 1013 2497 1013 2497 943.5 2439.5 c 128,-1,24
 874 2382 874 2382 790 2382 c 256,25,26
 706 2382 706 2382 636.5 2440.5 c 128,-1,27
 567 2499 567 2499 567 2591 c 0,16,17
EndSplineSet
EndChar

StartChar: eth
Encoding: 240 240 178
Width: 1857
GlyphClass: 2
Flags: W
LayerCount: 2
Fore
SplineSet
115 1034 m 0,0,1
 115 1571 115 1571 319.5 1844.5 c 128,-1,2
 524 2118 524 2118 823 2118 c 0,3,4
 987 2118 987 2118 1114 2011 c 1,5,6
 1014 2251 1014 2251 928 2402 c 1,7,-1
 649 2234 l 1,8,-1
 535 2423 l 1,9,-1
 821 2595 l 1,10,-1
 692 2824 l 1,11,-1
 963 2990 l 1,12,-1
 1106 2767 l 1,13,-1
 1372 2927 l 1,14,-1
 1487 2738 l 1,15,-1
 1223 2578 l 1,16,17
 1495 2119 1495 2119 1619 1757 c 128,-1,18
 1743 1395 1743 1395 1743 1008 c 0,19,20
 1743 498 1743 498 1534 223.5 c 128,-1,21
 1325 -51 1325 -51 938 -51 c 0,22,23
 606 -51 606 -51 430 108.5 c 128,-1,24
 254 268 254 268 184.5 505.5 c 128,-1,25
 115 743 115 743 115 1034 c 0,0,1
569 1034 m 0,26,27
 569 645 569 645 653 458.5 c 128,-1,28
 737 272 737 272 930 272 c 0,29,30
 1120 272 1120 272 1205 461.5 c 128,-1,31
 1290 651 1290 651 1290 1034 c 0,32,33
 1290 1470 1290 1470 1193 1633 c 128,-1,34
 1096 1796 1096 1796 930 1796 c 0,35,36
 570 1796 570 1796 569 1034 c 0,26,27
EndSplineSet
EndChar

StartChar: ntilde
Encoding: 241 241 179
Width: 1929
GlyphClass: 2
Flags: W
LayerCount: 2
Fore
SplineSet
252 0 m 1,0,-1
 252 2068 l 1,1,-1
 647 2068 l 1,2,-1
 647 1749 l 1,3,4
 790 2118 790 2118 1159 2118 c 0,5,6
 1368 2118 1368 2118 1496 2017.5 c 128,-1,7
 1624 1917 1624 1917 1658 1776.5 c 128,-1,8
 1692 1636 1692 1636 1692 1333 c 2,9,-1
 1692 0 l 1,10,-1
 1266 0 l 1,11,-1
 1266 1311 l 2,12,13
 1266 1581 1266 1581 1218.5 1678.5 c 128,-1,14
 1171 1776 1171 1776 1018 1776 c 0,15,16
 858 1776 858 1776 769 1652 c 128,-1,17
 680 1528 680 1528 680 1159 c 2,18,-1
 680 0 l 1,19,-1
 252 0 l 1,0,-1
326 2513 m 1,20,21
 510 2826 510 2826 739 2826 c 0,22,23
 843 2826 843 2826 1004 2734 c 0,24,25
 1156 2650 1156 2650 1231 2650 c 0,26,27
 1329 2650 1329 2650 1417 2804 c 1,28,-1
 1591 2687 l 1,29,30
 1409 2374 1409 2374 1174 2374 c 0,31,32
 1065 2374 1065 2374 907 2466 c 0,33,34
 764 2548 764 2548 698 2548 c 0,35,36
 598 2548 598 2548 498 2396 c 1,37,-1
 326 2513 l 1,20,21
EndSplineSet
EndChar

StartChar: ograve
Encoding: 242 242 180
Width: 1929
GlyphClass: 2
Flags: W
LayerCount: 2
Fore
SplineSet
150 1034 m 0,0,1
 150 2117 150 2117 969 2118 c 0,2,3
 1342 2118 1342 2118 1560 1854 c 128,-1,4
 1778 1590 1778 1590 1778 1055 c 0,5,6
 1778 -51 1778 -51 958 -51 c 0,7,8
 581 -51 581 -51 365.5 216 c 128,-1,9
 150 483 150 483 150 1034 c 0,0,1
419 2771 m 1,10,-1
 641 3049 l 1,11,-1
 1298 2474 l 1,12,-1
 1142 2316 l 1,13,-1
 419 2771 l 1,10,-1
604 1034 m 0,14,15
 604 645 604 645 688 458.5 c 128,-1,16
 772 272 772 272 965 272 c 0,17,18
 1155 272 1155 272 1240 461.5 c 128,-1,19
 1325 651 1325 651 1325 1034 c 0,20,21
 1325 1470 1325 1470 1227.5 1633 c 128,-1,22
 1130 1796 1130 1796 965 1796 c 0,23,24
 605 1796 605 1796 604 1034 c 0,14,15
EndSplineSet
EndChar

StartChar: oacute
Encoding: 243 243 181
Width: 1929
GlyphClass: 2
Flags: W
LayerCount: 2
Fore
SplineSet
150 1034 m 0,0,1
 150 2117 150 2117 969 2118 c 0,2,3
 1342 2118 1342 2118 1560 1854 c 128,-1,4
 1778 1590 1778 1590 1778 1055 c 0,5,6
 1778 -51 1778 -51 958 -51 c 0,7,8
 581 -51 581 -51 365.5 216 c 128,-1,9
 150 483 150 483 150 1034 c 0,0,1
604 1034 m 0,10,11
 604 645 604 645 688 458.5 c 128,-1,12
 772 272 772 272 965 272 c 0,13,14
 1155 272 1155 272 1240 461.5 c 128,-1,15
 1325 651 1325 651 1325 1034 c 0,16,17
 1325 1470 1325 1470 1227.5 1633 c 128,-1,18
 1130 1796 1130 1796 965 1796 c 0,19,20
 605 1796 605 1796 604 1034 c 0,10,11
639 2474 m 1,21,-1
 1296 3049 l 1,22,-1
 1517 2771 l 1,23,-1
 795 2316 l 1,24,-1
 639 2474 l 1,21,-1
EndSplineSet
EndChar

StartChar: ocircumflex
Encoding: 244 244 182
Width: 1929
GlyphClass: 2
Flags: W
LayerCount: 2
Fore
SplineSet
150 1034 m 0,0,1
 150 2117 150 2117 969 2118 c 0,2,3
 1342 2118 1342 2118 1560 1854 c 128,-1,4
 1778 1590 1778 1590 1778 1055 c 0,5,6
 1778 -51 1778 -51 958 -51 c 0,7,8
 581 -51 581 -51 365.5 216 c 128,-1,9
 150 483 150 483 150 1034 c 0,0,1
237 2359 m 1,10,-1
 969 2922 l 1,11,-1
 1702 2359 l 1,12,-1
 1337 2331 l 1,13,-1
 969 2580 l 1,14,-1
 602 2331 l 1,15,-1
 237 2359 l 1,10,-1
604 1034 m 0,16,17
 604 645 604 645 688 458.5 c 128,-1,18
 772 272 772 272 965 272 c 0,19,20
 1155 272 1155 272 1240 461.5 c 128,-1,21
 1325 651 1325 651 1325 1034 c 0,22,23
 1325 1470 1325 1470 1227.5 1633 c 128,-1,24
 1130 1796 1130 1796 965 1796 c 0,25,26
 605 1796 605 1796 604 1034 c 0,16,17
EndSplineSet
EndChar

StartChar: otilde
Encoding: 245 245 183
Width: 1929
GlyphClass: 2
Flags: W
LayerCount: 2
Fore
SplineSet
150 1034 m 0,0,1
 150 2117 150 2117 969 2118 c 0,2,3
 1342 2118 1342 2118 1560 1854 c 128,-1,4
 1778 1590 1778 1590 1778 1055 c 0,5,6
 1778 -51 1778 -51 958 -51 c 0,7,8
 581 -51 581 -51 365.5 216 c 128,-1,9
 150 483 150 483 150 1034 c 0,0,1
373 2513 m 1,10,11
 557 2826 557 2826 786 2826 c 0,12,13
 890 2826 890 2826 1051 2734 c 0,14,15
 1203 2650 1203 2650 1278 2650 c 0,16,17
 1376 2650 1376 2650 1464 2804 c 1,18,-1
 1638 2687 l 1,19,20
 1456 2374 1456 2374 1221 2374 c 0,21,22
 1112 2374 1112 2374 954 2466 c 0,23,24
 811 2548 811 2548 745 2548 c 0,25,26
 645 2548 645 2548 545 2396 c 1,27,-1
 373 2513 l 1,10,11
604 1034 m 0,28,29
 604 645 604 645 688 458.5 c 128,-1,30
 772 272 772 272 965 272 c 0,31,32
 1155 272 1155 272 1240 461.5 c 128,-1,33
 1325 651 1325 651 1325 1034 c 0,34,35
 1325 1470 1325 1470 1227.5 1633 c 128,-1,36
 1130 1796 1130 1796 965 1796 c 0,37,38
 605 1796 605 1796 604 1034 c 0,28,29
EndSplineSet
EndChar

StartChar: odieresis
Encoding: 246 246 184
Width: 1929
GlyphClass: 2
Flags: W
LayerCount: 2
Fore
SplineSet
150 1034 m 0,0,1
 150 2117 150 2117 969 2118 c 0,2,3
 1342 2118 1342 2118 1560 1854 c 128,-1,4
 1778 1590 1778 1590 1778 1055 c 0,5,6
 1778 -51 1778 -51 958 -51 c 0,7,8
 581 -51 581 -51 365.5 216 c 128,-1,9
 150 483 150 483 150 1034 c 0,0,1
420 2591 m 0,10,11
 420 2681 420 2681 486.5 2742.5 c 128,-1,12
 553 2804 553 2804 643 2804 c 0,13,14
 731 2804 731 2804 798.5 2744.5 c 128,-1,15
 866 2685 866 2685 866 2591 c 0,16,17
 866 2499 866 2499 796.5 2440.5 c 128,-1,18
 727 2382 727 2382 643 2382 c 0,19,20
 561 2382 561 2382 490.5 2439.5 c 128,-1,21
 420 2497 420 2497 420 2591 c 0,10,11
604 1034 m 0,22,23
 604 645 604 645 688 458.5 c 128,-1,24
 772 272 772 272 965 272 c 0,25,26
 1155 272 1155 272 1240 461.5 c 128,-1,27
 1325 651 1325 651 1325 1034 c 0,28,29
 1325 1470 1325 1470 1227.5 1633 c 128,-1,30
 1130 1796 1130 1796 965 1796 c 0,31,32
 605 1796 605 1796 604 1034 c 0,22,23
1071 2591 m 0,33,34
 1071 2679 1071 2679 1137.5 2741.5 c 128,-1,35
 1204 2804 1204 2804 1294 2804 c 256,36,37
 1384 2804 1384 2804 1450.5 2742.5 c 128,-1,38
 1517 2681 1517 2681 1517 2591 c 0,39,40
 1517 2497 1517 2497 1447.5 2439.5 c 128,-1,41
 1378 2382 1378 2382 1294 2382 c 256,42,43
 1210 2382 1210 2382 1140.5 2440.5 c 128,-1,44
 1071 2499 1071 2499 1071 2591 c 0,33,34
EndSplineSet
EndChar

StartChar: divide
Encoding: 247 247 185
Width: 2142
GlyphClass: 2
Flags: W
LayerCount: 2
Fore
SplineSet
213 1227 m 1,0,-1
 213 1569 l 1,1,-1
 1927 1569 l 1,2,-1
 1927 1227 l 1,3,-1
 213 1227 l 1,0,-1
862 553 m 1,4,-1
 862 1018 l 1,5,-1
 1278 1018 l 1,6,-1
 1278 553 l 1,7,-1
 862 553 l 1,4,-1
862 1778 m 1,8,-1
 862 2243 l 1,9,-1
 1278 2243 l 1,10,-1
 1278 1778 l 1,11,-1
 862 1778 l 1,8,-1
EndSplineSet
EndChar

StartChar: oslash
Encoding: 248 248 186
Width: 1929
GlyphClass: 2
Flags: W
LayerCount: 2
Fore
SplineSet
150 1034 m 0,0,1
 150 1556 150 1556 353.5 1837 c 128,-1,2
 557 2118 557 2118 954 2118 c 0,3,4
 1194 2118 1194 2118 1364 2025 c 1,5,-1
 1479 2253 l 1,6,-1
 1726 2253 l 1,7,-1
 1540 1880 l 1,8,9
 1778 1604 1778 1604 1778 1053 c 0,10,11
 1778 -51 1778 -51 969 -51 c 0,12,13
 762 -51 762 -51 590 27 c 1,14,-1
 469 -217 l 1,15,-1
 221 -217 l 1,16,-1
 412 162 l 1,17,18
 150 447 150 447 150 1034 c 0,0,1
551 1034 m 0,19,20
 551 710 551 710 614 504 c 1,21,-1
 1198 1755 l 1,22,23
 1108 1812 1108 1812 971 1812 c 0,24,25
 744 1812 744 1812 647.5 1619.5 c 128,-1,26
 551 1427 551 1427 551 1034 c 0,19,20
758 297 m 1,27,28
 867 254 867 254 956 254 c 0,29,30
 1192 254 1192 254 1284 454.5 c 128,-1,31
 1376 655 1376 655 1376 1034 c 0,32,33
 1376 1288 1376 1288 1327 1518 c 1,34,-1
 758 297 l 1,27,28
EndSplineSet
EndChar

StartChar: ugrave
Encoding: 249 249 187
Width: 1931
GlyphClass: 2
Flags: W
LayerCount: 2
Fore
SplineSet
238 745 m 2,0,-1
 238 2068 l 1,1,-1
 666 2068 l 1,2,-1
 666 754 l 2,3,4
 666 480 666 480 711 386.5 c 128,-1,5
 756 293 756 293 909 293 c 0,6,7
 1099 293 1099 293 1175 459 c 128,-1,8
 1251 625 1251 625 1251 1073 c 2,9,-1
 1251 2068 l 1,10,-1
 1677 2068 l 1,11,-1
 1677 0 l 1,12,-1
 1286 0 l 1,13,-1
 1286 311 l 1,14,15
 1120 -51 1120 -51 760 -51 c 0,16,17
 576 -51 576 -51 458 26.5 c 128,-1,18
 340 104 340 104 289 247.5 c 128,-1,19
 238 391 238 391 238 745 c 2,0,-1
409 2771 m 1,20,-1
 631 3049 l 1,21,-1
 1288 2474 l 1,22,-1
 1132 2316 l 1,23,-1
 409 2771 l 1,20,-1
EndSplineSet
EndChar

StartChar: uacute
Encoding: 250 250 188
Width: 1931
GlyphClass: 2
Flags: W
LayerCount: 2
Fore
SplineSet
238 745 m 2,0,-1
 238 2068 l 1,1,-1
 666 2068 l 1,2,-1
 666 754 l 2,3,4
 666 480 666 480 711 386.5 c 128,-1,5
 756 293 756 293 909 293 c 0,6,7
 1099 293 1099 293 1175 459 c 128,-1,8
 1251 625 1251 625 1251 1073 c 2,9,-1
 1251 2068 l 1,10,-1
 1677 2068 l 1,11,-1
 1677 0 l 1,12,-1
 1286 0 l 1,13,-1
 1286 311 l 1,14,15
 1120 -51 1120 -51 760 -51 c 0,16,17
 576 -51 576 -51 458 26.5 c 128,-1,18
 340 104 340 104 289 247.5 c 128,-1,19
 238 391 238 391 238 745 c 2,0,-1
629 2474 m 1,20,-1
 1286 3049 l 1,21,-1
 1507 2771 l 1,22,-1
 785 2316 l 1,23,-1
 629 2474 l 1,20,-1
EndSplineSet
EndChar

StartChar: ucircumflex
Encoding: 251 251 189
Width: 1931
GlyphClass: 2
Flags: W
LayerCount: 2
Fore
SplineSet
233 2359 m 1,0,-1
 965 2922 l 1,1,-1
 1698 2359 l 1,2,-1
 1333 2331 l 1,3,-1
 965 2580 l 1,4,-1
 598 2331 l 1,5,-1
 233 2359 l 1,0,-1
238 745 m 2,6,-1
 238 2068 l 1,7,-1
 666 2068 l 1,8,-1
 666 754 l 2,9,10
 666 480 666 480 711 386.5 c 128,-1,11
 756 293 756 293 909 293 c 0,12,13
 1099 293 1099 293 1175 459 c 128,-1,14
 1251 625 1251 625 1251 1073 c 2,15,-1
 1251 2068 l 1,16,-1
 1677 2068 l 1,17,-1
 1677 0 l 1,18,-1
 1286 0 l 1,19,-1
 1286 311 l 1,20,21
 1120 -51 1120 -51 760 -51 c 0,22,23
 576 -51 576 -51 458 26.5 c 128,-1,24
 340 104 340 104 289 247.5 c 128,-1,25
 238 391 238 391 238 745 c 2,6,-1
EndSplineSet
EndChar

StartChar: udieresis
Encoding: 252 252 190
Width: 1931
GlyphClass: 2
Flags: W
LayerCount: 2
Fore
SplineSet
238 745 m 2,0,-1
 238 2068 l 1,1,-1
 666 2068 l 1,2,-1
 666 754 l 2,3,4
 666 480 666 480 711 386.5 c 128,-1,5
 756 293 756 293 909 293 c 0,6,7
 1099 293 1099 293 1175 459 c 128,-1,8
 1251 625 1251 625 1251 1073 c 2,9,-1
 1251 2068 l 1,10,-1
 1677 2068 l 1,11,-1
 1677 0 l 1,12,-1
 1286 0 l 1,13,-1
 1286 311 l 1,14,15
 1120 -51 1120 -51 760 -51 c 0,16,17
 576 -51 576 -51 458 26.5 c 128,-1,18
 340 104 340 104 289 247.5 c 128,-1,19
 238 391 238 391 238 745 c 2,0,-1
416 2591 m 0,20,21
 416 2681 416 2681 482.5 2742.5 c 128,-1,22
 549 2804 549 2804 639 2804 c 0,23,24
 727 2804 727 2804 794.5 2744.5 c 128,-1,25
 862 2685 862 2685 862 2591 c 0,26,27
 862 2499 862 2499 792.5 2440.5 c 128,-1,28
 723 2382 723 2382 639 2382 c 0,29,30
 557 2382 557 2382 486.5 2439.5 c 128,-1,31
 416 2497 416 2497 416 2591 c 0,20,21
1067 2591 m 0,32,33
 1067 2679 1067 2679 1133.5 2741.5 c 128,-1,34
 1200 2804 1200 2804 1290 2804 c 256,35,36
 1380 2804 1380 2804 1446.5 2742.5 c 128,-1,37
 1513 2681 1513 2681 1513 2591 c 0,38,39
 1513 2497 1513 2497 1443.5 2439.5 c 128,-1,40
 1374 2382 1374 2382 1290 2382 c 256,41,42
 1206 2382 1206 2382 1136.5 2440.5 c 128,-1,43
 1067 2499 1067 2499 1067 2591 c 0,32,33
EndSplineSet
EndChar

StartChar: yacute
Encoding: 253 253 191
Width: 1501
GlyphClass: 2
Flags: W
LayerCount: 2
Fore
SplineSet
-2 2068 m 1,0,-1
 426 2068 l 1,1,-1
 786 647 l 1,2,-1
 1157 2068 l 1,3,-1
 1542 2068 l 1,4,-1
 870 -131 l 2,5,6
 796 -371 796 -371 735 -485.5 c 128,-1,7
 674 -600 674 -600 561.5 -670.5 c 128,-1,8
 449 -741 449 -741 270 -741 c 0,9,10
 164 -741 164 -741 51 -713 c 1,11,-1
 51 -373 l 1,12,13
 133 -387 133 -387 201 -387 c 0,14,15
 367 -387 367 -387 436.5 -306 c 128,-1,16
 506 -225 506 -225 586 70 c 1,17,-1
 -2 2068 l 1,0,-1
438 2474 m 1,18,-1
 1095 3049 l 1,19,-1
 1316 2771 l 1,20,-1
 594 2316 l 1,21,-1
 438 2474 l 1,18,-1
EndSplineSet
EndChar

StartChar: thorn
Encoding: 254 254 192
Width: 2000
GlyphClass: 2
Flags: W
LayerCount: 2
Fore
SplineSet
250 -700 m 1,0,-1
 250 2796 l 1,1,-1
 674 2796 l 1,2,-1
 674 1749 l 1,3,4
 840 2103 840 2103 1165 2103 c 0,5,6
 1464 2103 1464 2103 1658.5 1833 c 128,-1,7
 1853 1563 1853 1563 1853 1051 c 0,8,9
 1853 598 1853 598 1678 280.5 c 128,-1,10
 1503 -37 1503 -37 1135 -37 c 0,11,12
 844 -37 844 -37 678 215 c 1,13,-1
 674 -700 l 1,14,-1
 250 -700 l 1,0,-1
674 864 m 2,15,16
 674 665 674 665 703.5 553.5 c 128,-1,17
 733 442 733 442 825.5 363.5 c 128,-1,18
 918 285 918 285 1034 285 c 0,19,20
 1399 285 1399 285 1399 1051 c 0,21,22
 1399 1792 1399 1792 1055 1792 c 0,23,24
 891 1792 891 1792 782.5 1616 c 128,-1,25
 674 1440 674 1440 674 1208 c 2,26,-1
 674 864 l 2,15,16
EndSplineSet
EndChar

StartChar: ydieresis
Encoding: 255 255 193
Width: 1501
GlyphClass: 2
Flags: W
LayerCount: 2
Fore
SplineSet
-2 2068 m 1,0,-1
 426 2068 l 1,1,-1
 786 647 l 1,2,-1
 1157 2068 l 1,3,-1
 1542 2068 l 1,4,-1
 870 -131 l 2,5,6
 796 -371 796 -371 735 -485.5 c 128,-1,7
 674 -600 674 -600 561.5 -670.5 c 128,-1,8
 449 -741 449 -741 270 -741 c 0,9,10
 164 -741 164 -741 51 -713 c 1,11,-1
 51 -373 l 1,12,13
 133 -387 133 -387 201 -387 c 0,14,15
 367 -387 367 -387 436.5 -306 c 128,-1,16
 506 -225 506 -225 586 70 c 1,17,-1
 -2 2068 l 1,0,-1
230 2591 m 0,18,19
 230 2681 230 2681 296.5 2742.5 c 128,-1,20
 363 2804 363 2804 453 2804 c 0,21,22
 541 2804 541 2804 608.5 2744.5 c 128,-1,23
 676 2685 676 2685 676 2591 c 0,24,25
 676 2499 676 2499 606.5 2440.5 c 128,-1,26
 537 2382 537 2382 453 2382 c 0,27,28
 371 2382 371 2382 300.5 2439.5 c 128,-1,29
 230 2497 230 2497 230 2591 c 0,18,19
881 2591 m 0,30,31
 881 2679 881 2679 947.5 2741.5 c 128,-1,32
 1014 2804 1014 2804 1104 2804 c 256,33,34
 1194 2804 1194 2804 1260.5 2742.5 c 128,-1,35
 1327 2681 1327 2681 1327 2591 c 0,36,37
 1327 2497 1327 2497 1257.5 2439.5 c 128,-1,38
 1188 2382 1188 2382 1104 2382 c 256,39,40
 1020 2382 1020 2382 950.5 2440.5 c 128,-1,41
 881 2499 881 2499 881 2591 c 0,30,31
EndSplineSet
EndChar

StartChar: OE
Encoding: 338 338 194
Width: 3358
GlyphClass: 2
Flags: W
LayerCount: 2
Fore
SplineSet
174 1384 m 0,0,1
 174 2125 174 2125 452.5 2486 c 128,-1,2
 731 2847 731 2847 1182 2847 c 0,3,4
 1518 2847 1518 2847 1726 2562 c 1,5,-1
 1726 2796 l 1,6,-1
 3308 2796 l 1,7,-1
 3308 2425 l 1,8,-1
 2144 2425 l 1,9,-1
 2144 1626 l 1,10,-1
 3058 1626 l 1,11,-1
 3058 1253 l 1,12,-1
 2144 1253 l 1,13,-1
 2144 379 l 1,14,-1
 3318 379 l 1,15,-1
 3318 0 l 1,16,-1
 1710 0 l 1,17,-1
 1710 258 l 1,18,19
 1513 -53 1513 -53 1163 -53 c 0,20,21
 725 -53 725 -53 449.5 314.5 c 128,-1,22
 174 682 174 682 174 1384 c 0,0,1
666 1339 m 0,23,24
 666 331 666 331 1223 332 c 0,25,26
 1565 332 1565 332 1700 709 c 1,27,-1
 1700 2128 l 1,28,29
 1548 2464 1548 2464 1219 2464 c 0,30,31
 895 2464 895 2464 780.5 2157.5 c 128,-1,32
 666 1851 666 1851 666 1339 c 0,23,24
EndSplineSet
EndChar

StartChar: oe
Encoding: 339 339 195
Width: 3000
GlyphClass: 2
Flags: W
LayerCount: 2
Fore
SplineSet
150 1034 m 0,0,1
 150 1552 150 1552 350.5 1835 c 128,-1,2
 551 2118 551 2118 946 2118 c 0,3,4
 1345 2118 1345 2118 1546 1808 c 1,5,6
 1767 2117 1767 2117 2126 2118 c 0,7,8
 2480 2118 2480 2118 2684 1858 c 128,-1,9
 2888 1598 2888 1598 2896 971 c 1,10,-1
 1735 971 l 1,11,12
 1735 545 1735 545 1849.5 407.5 c 128,-1,13
 1964 270 1964 270 2132 270 c 0,14,15
 2415 270 2415 270 2492 657 c 1,16,-1
 2882 606 l 1,17,18
 2726 -51 2726 -51 2118 -51 c 0,19,20
 1737 -51 1737 -51 1520 256 c 1,21,22
 1315 -51 1315 -51 946 -51 c 256,23,24
 577 -51 577 -51 363.5 216 c 128,-1,25
 150 483 150 483 150 1034 c 0,0,1
604 1034 m 0,26,27
 604 645 604 645 687 458.5 c 128,-1,28
 770 272 770 272 958 272 c 0,29,30
 1140 272 1140 272 1225.5 453.5 c 128,-1,31
 1311 635 1311 635 1311 1034 c 256,32,33
 1311 1433 1311 1433 1225 1614.5 c 128,-1,34
 1139 1796 1139 1796 956 1796 c 0,35,36
 774 1796 774 1796 689 1611.5 c 128,-1,37
 604 1427 604 1427 604 1034 c 0,26,27
1745 1260 m 1,38,-1
 2462 1260 l 1,39,40
 2466 1543 2466 1543 2367.5 1674.5 c 128,-1,41
 2269 1806 2269 1806 2111 1806 c 0,42,43
 1781 1806 1781 1806 1745 1260 c 1,38,-1
EndSplineSet
EndChar

StartChar: Ydieresis
Encoding: 376 376 196
Width: 1714
GlyphClass: 2
Flags: W
LayerCount: 2
Fore
SplineSet
-133 2796 m 1,0,-1
 369 2796 l 1,1,-1
 883 1630 l 1,2,-1
 1405 2796 l 1,3,-1
 1847 2796 l 1,4,-1
 1071 1182 l 1,5,-1
 1071 0 l 1,6,-1
 610 0 l 1,7,-1
 610 1182 l 1,8,-1
 -133 2796 l 1,0,-1
332 3285 m 0,9,10
 332 3375 332 3375 398.5 3436.5 c 128,-1,11
 465 3498 465 3498 555 3498 c 0,12,13
 643 3498 643 3498 710.5 3438.5 c 128,-1,14
 778 3379 778 3379 778 3285 c 0,15,16
 778 3193 778 3193 708.5 3134.5 c 128,-1,17
 639 3076 639 3076 555 3076 c 0,18,19
 473 3076 473 3076 402.5 3133.5 c 128,-1,20
 332 3191 332 3191 332 3285 c 0,9,10
983 3285 m 0,21,22
 983 3373 983 3373 1049.5 3435.5 c 128,-1,23
 1116 3498 1116 3498 1206 3498 c 256,24,25
 1296 3498 1296 3498 1362.5 3436.5 c 128,-1,26
 1429 3375 1429 3375 1429 3285 c 0,27,28
 1429 3191 1429 3191 1359.5 3133.5 c 128,-1,29
 1290 3076 1290 3076 1206 3076 c 256,30,31
 1122 3076 1122 3076 1052.5 3134.5 c 128,-1,32
 983 3193 983 3193 983 3285 c 0,21,22
EndSplineSet
EndChar

StartChar: circumflex
Encoding: 710 710 197
Width: 2097
GlyphClass: 2
Flags: W
LayerCount: 2
Fore
SplineSet
317 2359 m 1,0,-1
 1049 2922 l 1,1,-1
 1782 2359 l 1,2,-1
 1417 2331 l 1,3,-1
 1049 2580 l 1,4,-1
 682 2331 l 1,5,-1
 317 2359 l 1,0,-1
EndSplineSet
EndChar

StartChar: tilde
Encoding: 732 732 198
Width: 2097
GlyphClass: 2
Flags: W
LayerCount: 2
Fore
SplineSet
416 2513 m 1,0,1
 600 2826 600 2826 829 2826 c 0,2,3
 933 2826 933 2826 1094 2734 c 0,4,5
 1246 2650 1246 2650 1321 2650 c 0,6,7
 1419 2650 1419 2650 1507 2804 c 1,8,-1
 1681 2687 l 1,9,10
 1499 2374 1499 2374 1264 2374 c 0,11,12
 1155 2374 1155 2374 997 2466 c 0,13,14
 854 2548 854 2548 788 2548 c 0,15,16
 688 2548 688 2548 588 2396 c 1,17,-1
 416 2513 l 1,0,1
EndSplineSet
EndChar

StartChar: uni2010
Encoding: 8208 8208 210
Width: 1214
GlyphClass: 2
Flags: W
LayerCount: 2
Fore
SplineSet
164 879 m 1,0,-1
 164 1221 l 1,1,-1
 1049 1221 l 1,2,-1
 1049 879 l 1,3,-1
 164 879 l 1,0,-1
EndSplineSet
EndChar

StartChar: uni2011
Encoding: 8209 8209 211
Width: 1214
GlyphClass: 2
Flags: W
LayerCount: 2
Fore
SplineSet
164 879 m 1,0,-1
 164 1221 l 1,1,-1
 1049 1221 l 1,2,-1
 1049 879 l 1,3,-1
 164 879 l 1,0,-1
EndSplineSet
EndChar

StartChar: figuredash
Encoding: 8210 8210 212
Width: 1214
GlyphClass: 2
Flags: W
LayerCount: 2
Fore
SplineSet
164 879 m 1,0,-1
 164 1221 l 1,1,-1
 1049 1221 l 1,2,-1
 1049 879 l 1,3,-1
 164 879 l 1,0,-1
EndSplineSet
EndChar

StartChar: endash
Encoding: 8211 8211 213
Width: 2142
GlyphClass: 2
Flags: W
LayerCount: 2
Fore
SplineSet
348 885 m 1,0,-1
 348 1214 l 1,1,-1
 1794 1214 l 1,2,-1
 1794 885 l 1,3,-1
 348 885 l 1,0,-1
EndSplineSet
EndChar

StartChar: emdash
Encoding: 8212 8212 214
Width: 2643
GlyphClass: 2
Flags: W
LayerCount: 2
Fore
SplineSet
129 885 m 1,0,-1
 129 1214 l 1,1,-1
 2515 1214 l 1,2,-1
 2515 885 l 1,3,-1
 129 885 l 1,0,-1
EndSplineSet
EndChar

StartChar: quoteleft
Encoding: 8216 8216 215
Width: 927
GlyphClass: 2
Flags: W
LayerCount: 2
Fore
SplineSet
221 1812 m 1,0,-1
 221 2320 l 1,1,-1
 504 2845 l 1,2,-1
 709 2845 l 1,3,-1
 469 2333 l 1,4,-1
 668 2333 l 1,5,-1
 668 1812 l 1,6,-1
 221 1812 l 1,0,-1
EndSplineSet
EndChar

StartChar: quoteright
Encoding: 8217 8217 216
Width: 927
GlyphClass: 2
Flags: W
LayerCount: 2
Fore
SplineSet
221 1765 m 1,0,-1
 461 2275 l 1,1,-1
 262 2275 l 1,2,-1
 262 2796 l 1,3,-1
 709 2796 l 1,4,-1
 709 2290 l 1,5,-1
 424 1765 l 1,6,-1
 221 1765 l 1,0,-1
EndSplineSet
EndChar

StartChar: quotesinglbase
Encoding: 8218 8218 217
Width: 929
GlyphClass: 2
Flags: W
LayerCount: 2
Fore
SplineSet
221 -510 m 1,0,-1
 461 0 l 1,1,-1
 262 0 l 1,2,-1
 262 520 l 1,3,-1
 709 520 l 1,4,-1
 709 12 l 1,5,-1
 424 -510 l 1,6,-1
 221 -510 l 1,0,-1
EndSplineSet
EndChar

StartChar: quotedblleft
Encoding: 8220 8220 218
Width: 1572
GlyphClass: 2
Flags: W
LayerCount: 2
Fore
SplineSet
227 1812 m 1,0,-1
 227 2320 l 1,1,-1
 510 2845 l 1,2,-1
 715 2845 l 1,3,-1
 475 2333 l 1,4,-1
 674 2333 l 1,5,-1
 674 1812 l 1,6,-1
 227 1812 l 1,0,-1
856 1812 m 1,7,-1
 856 2320 l 1,8,-1
 1139 2845 l 1,9,-1
 1341 2845 l 1,10,-1
 1104 2333 l 1,11,-1
 1300 2333 l 1,12,-1
 1300 1812 l 1,13,-1
 856 1812 l 1,7,-1
EndSplineSet
EndChar

StartChar: quotedblright
Encoding: 8221 8221 219
Width: 1572
GlyphClass: 2
Flags: W
LayerCount: 2
Fore
SplineSet
227 1765 m 1,0,-1
 467 2275 l 1,1,-1
 268 2275 l 1,2,-1
 268 2796 l 1,3,-1
 715 2796 l 1,4,-1
 715 2290 l 1,5,-1
 430 1765 l 1,6,-1
 227 1765 l 1,0,-1
856 1765 m 1,7,-1
 1096 2275 l 1,8,-1
 897 2275 l 1,9,-1
 897 2796 l 1,10,-1
 1341 2796 l 1,11,-1
 1341 2290 l 1,12,-1
 1059 1765 l 1,13,-1
 856 1765 l 1,7,-1
EndSplineSet
EndChar

StartChar: quotedblbase
Encoding: 8222 8222 220
Width: 1572
GlyphClass: 2
Flags: W
LayerCount: 2
Fore
SplineSet
227 -510 m 1,0,-1
 467 0 l 1,1,-1
 268 0 l 1,2,-1
 268 520 l 1,3,-1
 715 520 l 1,4,-1
 715 12 l 1,5,-1
 430 -510 l 1,6,-1
 227 -510 l 1,0,-1
856 -510 m 1,7,-1
 1096 0 l 1,8,-1
 897 0 l 1,9,-1
 897 520 l 1,10,-1
 1341 520 l 1,11,-1
 1341 12 l 1,12,-1
 1059 -510 l 1,13,-1
 856 -510 l 1,7,-1
EndSplineSet
EndChar

StartChar: bullet
Encoding: 8226 8226 221
Width: 2795
GlyphClass: 2
Flags: W
LayerCount: 2
Fore
SplineSet
821 1425 m 0,0,1
 821 1667 821 1667 990 1839 c 128,-1,2
 1159 2011 1159 2011 1399 2011 c 0,3,4
 1637 2011 1637 2011 1805.5 1839 c 128,-1,5
 1974 1667 1974 1667 1974 1425 c 0,6,7
 1974 1185 1974 1185 1805 1012.5 c 128,-1,8
 1636 840 1636 840 1399 840 c 0,9,10
 1155 840 1155 840 988 1013 c 128,-1,11
 821 1186 821 1186 821 1425 c 0,0,1
EndSplineSet
EndChar

StartChar: ellipsis
Encoding: 8230 8230 222
Width: 3002
GlyphClass: 2
Flags: W
LayerCount: 2
Fore
SplineSet
266 0 m 1,0,-1
 266 528 l 1,1,-1
 733 528 l 1,2,-1
 733 0 l 1,3,-1
 266 0 l 1,0,-1
1268 0 m 1,4,-1
 1268 528 l 1,5,-1
 1735 528 l 1,6,-1
 1735 0 l 1,7,-1
 1268 0 l 1,4,-1
2269 0 m 1,8,-1
 2269 528 l 1,9,-1
 2736 528 l 1,10,-1
 2736 0 l 1,11,-1
 2269 0 l 1,8,-1
EndSplineSet
EndChar

StartChar: guilsinglleft
Encoding: 8249 8249 224
Width: 999
GlyphClass: 2
Flags: W
LayerCount: 2
Fore
SplineSet
182 1075 m 1,0,-1
 578 1747 l 1,1,-1
 817 1747 l 1,2,-1
 596 1075 l 1,3,-1
 817 406 l 1,4,-1
 578 406 l 1,5,-1
 182 1075 l 1,0,-1
EndSplineSet
EndChar

StartChar: guilsinglright
Encoding: 8250 8250 225
Width: 999
GlyphClass: 2
Flags: W
LayerCount: 2
Fore
SplineSet
182 406 m 1,0,-1
 403 1075 l 1,1,-1
 182 1747 l 1,2,-1
 422 1747 l 1,3,-1
 817 1075 l 1,4,-1
 422 406 l 1,5,-1
 182 406 l 1,0,-1
EndSplineSet
EndChar

StartChar: trademark
Encoding: 8482 8482 227
Width: 3000
GlyphClass: 2
Flags: W
LayerCount: 2
Fore
SplineSet
63 2464 m 1,0,-1
 63 2712 l 1,1,-1
 1087 2712 l 1,2,-1
 1087 2464 l 1,3,-1
 729 2464 l 1,4,-1
 729 1118 l 1,5,-1
 418 1118 l 1,6,-1
 418 2464 l 1,7,-1
 63 2464 l 1,0,-1
1212 1118 m 1,8,-1
 1212 2712 l 1,9,-1
 1669 2712 l 1,10,-1
 1964 1567 l 1,11,-1
 2273 2712 l 1,12,-1
 2720 2712 l 1,13,-1
 2720 1118 l 1,14,-1
 2429 1118 l 1,15,-1
 2429 2458 l 1,16,-1
 2066 1118 l 1,17,-1
 1819 1118 l 1,18,-1
 1473 2460 l 1,19,-1
 1473 1118 l 1,20,-1
 1212 1118 l 1,8,-1
EndSplineSet
EndChar

StartChar: uni25FC
Encoding: 9724 9724 228
Width: 2068
GlyphClass: 2
Flags: W
LayerCount: 2
Fore
SplineSet
0 0 m 1,0,-1
 0 2068 l 1,1,-1
 2068 2068 l 1,2,-1
 2068 0 l 1,3,-1
 0 0 l 1,0,-1
EndSplineSet
EndChar
